<svg id="Capa_1" enable-background="new 0 0 512 512" height="512" viewBox="0 0 512 512" width="512" xmlns="http://www.w3.org/2000/svg"><g><path d="m500.51 2.28c-1.914 0-3.817.489-5.501 1.412-14.541 7.96-30.993 12.168-47.578 12.168h-28.75c-12.811 0-25.687 1.205-38.271 3.58-12.588 2.375-25.021 5.946-36.953 10.616-30.068 11.769-49.497 40.236-49.497 72.524v17c0 11.073-4.142 21.517-11.52 29.509v-14.199c0-4.142-3.358-7.5-7.5-7.5s-7.5 3.358-7.5 7.5v132.271l-11.44 3.593-11.44-3.594v-187.439c3.632 1.066 7.468 1.649 11.44 1.649s7.808-.583 11.44-1.649v20.169c0 4.142 3.358 7.5 7.5 7.5s7.5-3.358 7.5-7.5v-28.321c8.71-7.468 14.245-18.538 14.245-30.884 0-22.434-18.251-40.685-40.685-40.685s-40.685 18.251-40.685 40.685c0 12.346 5.535 23.416 14.245 30.884v77.521c-7.377-7.99-11.52-18.435-11.52-29.509v-17c0-32.288-19.429-60.755-49.497-72.524-11.933-4.669-24.365-8.241-36.949-10.615-9.712-1.837-19.686-2.979-29.642-3.395-4.109-.17-7.633 3.043-7.806 7.182-.172 4.138 3.043 7.633 7.182 7.806 9.232.384 18.477 1.443 27.482 3.146 11.672 2.202 23.202 5.514 34.267 9.844 24.277 9.502 39.963 32.487 39.963 58.556v17c0 17.835 7.971 34.476 21.872 45.657l4.648 3.735v15.004h-12.845c-.495-1.08-1.434-2.648-2.036-3.696-10.877-18.84-35.054-25.317-53.894-14.44-7.609 4.393-13.725 10.701-17.89 18.136h-3.462c-8.53 0-16.686-2.653-23.585-7.671-9.668-7.033-15.689-18.09-16.428-29.95h54.08c4.142 0 7.5-3.358 7.5-7.5s-3.358-7.5-7.5-7.5h-56.125c-8.531 0-16.687-2.652-23.584-7.67-9.792-7.123-15.837-18.377-16.447-30.409 2.508.292 5.04.456 7.597.456h46.28c4.142 0 7.5-3.358 7.5-7.5s-3.358-7.5-7.5-7.5h-46.281c-6.993 0-13.773-1.427-20.149-4.24-6.398-2.827-12.024-6.87-16.725-12.02-8.426-9.222-13.066-21.182-13.066-33.683v-9.262c16.032 7.746 33.816 11.607 51.64 11.332 4.142 0 7.5-3.358 7.5-7.5s-3.358-7.5-7.5-7.5c-17.271.305-34.504-3.856-49.646-12.167-1.687-.924-3.59-1.413-5.504-1.413-6.336 0-11.49 5.15-11.49 11.48v15.03c0 16.255 6.035 31.81 16.99 43.796 6.11 6.694 13.424 11.951 21.742 15.626 1.172.517 2.358.989 3.55 1.434-.479 18.097 8.015 35.529 22.684 46.167 5.896 4.289 12.461 7.319 19.403 8.998.294 17.221 8.703 33.473 22.656 43.623 8.965 6.522 19.476 10.131 30.505 10.504-.306 1.697-.54 3.415-.664 5.158-.301 4.219-.899 7.533-1.884 10.428-2.256 6.63-3.4 13.511-3.4 20.45-.005 28.205 18.136 52.835 45.07 61.204-18.411 8.604-30.362 27.026-30.362 47.812 0 15.789 6.999 30.631 19.201 40.72 3.193 2.639 7.92 2.19 10.56-1.001 2.639-3.192 2.191-7.92-1.001-10.56-8.744-7.229-13.759-17.858-13.759-29.16 0-16.602 10.642-31.104 26.477-36.085l137.873-43.3c13.003-4.088 21.74-15.998 21.74-29.695 0-6.204-3.343-11.985-8.718-15.084l-25.293-14.612c-5.427-3.131-7.294-10.096-4.173-15.506l1.121-1.929c3.265-5.655 8.537-9.702 14.844-11.393 6.309-1.692 12.896-.826 18.549 2.438 4.767 2.753 8.799 6.671 11.656 11.325 2.766 4.513 4.427 9.704 4.804 15.018.397 5.531 1.239 10.04 2.649 14.185 1.727 5.081 2.602 10.335 2.602 15.618 0 21.558-13.815 40.379-34.377 46.834l-137.554 43.211c-7.029 2.212-12.299 7.933-13.756 14.951-1.975 9.65 3.518 19.397 12.776 22.674l53.92 19.07c31.82 11.259 53.341 41.498 53.551 75.25.034 5.09-3.875 9.354-8.725 9.504-5.015.237-9.315-4.018-9.315-9.014 0-26.312-16.689-49.953-41.531-58.742l-35.48-12.54c-3.904-1.38-8.19.666-9.57 4.572-1.38 3.905.667 8.19 4.572 9.57l12.937 4.572c-10.151 15.38-15.734 33.557-15.848 51.979-.082 13.158 10.348 24.192 23.249 24.598 3.196.107 6.375-.446 9.291-1.555v4.998c-.002 14.943 11.859 27.099 26.438 27.099s26.44-12.156 26.44-27.097v-5.037c2.9 1.118 6.09 1.7 9.293 1.59 12.906-.401 23.334-11.435 23.247-24.593-.118-18.895-5.869-36.859-15.873-51.972l31.399-11.105c21.058-7.448 35.207-27.46 35.207-49.796 0-20.793-11.955-39.215-30.373-47.813l.197-.062c26.847-8.428 44.884-33 44.884-61.146 0-6.927-1.144-13.805-3.399-20.445-.986-2.9-1.587-6.215-1.889-10.425-.123-1.733-.354-3.455-.663-5.161 11.03-.373 21.541-3.982 30.507-10.504 13.952-10.15 22.362-26.402 22.655-43.623 6.941-1.679 13.506-4.708 19.403-8.998 14.669-10.639 23.163-28.071 22.684-46.168 1.196-.446 2.384-.919 3.561-1.438 5.816-2.577 11.184-5.956 15.953-10.042 3.145-2.696 3.509-7.43.814-10.576-2.696-3.145-7.431-3.509-10.576-.814-3.659 3.136-7.786 5.733-12.256 7.713-6.38 2.814-13.16 4.242-20.153 4.242h-46.28c-4.142 0-7.5 3.358-7.5 7.5s3.358 7.5 7.5 7.5h46.28c2.557 0 5.089-.163 7.597-.456-.611 12.032-6.655 23.286-16.447 30.409-6.898 5.018-15.054 7.67-23.584 7.67h-56.126c-4.142 0-7.5 3.358-7.5 7.5s3.358 7.5 7.5 7.5h54.08c-.739 11.86-6.76 22.918-16.427 29.95-6.899 5.018-15.055 7.671-23.585 7.671h-3.46c-4.15-7.533-10.432-13.814-17.897-18.141-18.838-10.874-43.01-4.393-53.875 14.427-.611 1.056-1.554 2.622-2.053 3.713h-12.845v-14.996l4.651-3.745c13.898-11.179 21.869-27.819 21.869-45.654v-17c0-26.069 15.687-49.054 39.963-58.556 11.065-4.331 22.594-7.643 34.268-9.845 11.669-2.203 23.61-3.32 35.489-3.32h28.75c17.139 0 34.155-3.903 49.57-11.332v9.262c0 4.1-.502 8.17-1.493 12.096-1.013 4.017 1.422 8.094 5.438 9.106 4.018 1.015 8.094-1.422 9.106-5.438 1.294-5.121 1.949-10.425 1.949-15.761v-15.03c0-6.33-5.154-11.48-11.49-11.48zm-244.51 12.72c14.163 0 25.685 11.522 25.685 25.685s-11.522 25.685-25.685 25.685-25.685-11.522-25.685-25.685 11.522-25.685 25.685-25.685zm-35.259 451.469c-4.84-.152-8.752-4.419-8.72-9.512.104-16.773 5.595-33.305 15.511-46.89l7.877 2.784c3.305 1.169 6.414 2.69 9.304 4.501-9.376 11.179-14.658 25.47-14.658 40.103 0 2.463-.974 4.763-2.743 6.478-1.768 1.712-4.097 2.61-6.571 2.536zm35.259 30.531c-6.308 0-11.44-5.427-11.44-12.097v-22.558c.326-1.59.495-3.227.495-4.891 0-11.009 3.947-21.763 10.953-30.221 6.899 8.314 10.932 18.934 10.932 30.217 0 1.636.175 3.253.5 4.829v22.625c0 6.669-5.132 12.096-11.44 12.096zm58.011-157.671c1.824.573 3.221 2.008 3.561 3.658.484 2.35-.842 4.719-3.084 5.512l-32.048 11.335v-30.423zm-119.588 3.666c.344-1.656 1.745-3.097 3.564-3.67l31.572-9.918v30.427l-32.047-11.334c-2.278-.806-3.575-3.13-3.089-5.505zm50.137 22.144v-40.444l11.435-3.592 11.445 3.596v40.44l-6.869 2.429c-1.536.543-3.066 1.142-4.578 1.766-1.502-.62-3.018-1.218-4.562-1.764zm66.589-61.338 13.079 4.109c15.841 4.977 26.484 19.476 26.484 36.08 0 15.993-10.13 30.321-25.208 35.654l-36.21 12.807c-4.707-5.054-9.967-9.615-15.715-13.573l45.911-16.238c9.269-3.278 14.761-13.027 12.775-22.678-1.442-7.005-6.714-12.731-13.757-14.944l-37.487-11.776 30.094-9.454c.01.004.022.009.034.013zm-81.589-41.353-38.699-12.157c-6.725-2.112-11.243-8.268-11.243-15.306.001-.907.49-1.751 1.275-2.205l25.241-14.572c7.315-4.224 11.834-11.45 12.916-19.232h10.509v63.472zm-82.978-27.474c0-5.292.875-10.547 2.6-15.619 1.411-4.146 2.251-8.656 2.646-14.192.783-10.992 6.936-20.836 16.458-26.333 11.677-6.741 25.807-2.985 33.403 8.95 2.901 4.557 3.273 13.852-3.055 17.438l-25.241 14.572c-5.404 3.121-8.766 8.935-8.774 15.185 0 13.634 8.739 25.541 21.747 29.627l44.607 14.013-30.094 9.452-19.919-6.258c-20.563-6.461-34.378-25.282-34.378-46.835zm146.368-35.999c1.083 7.783 5.603 15.009 12.919 19.229l25.295 14.613c.75.432 1.216 1.234 1.216 2.153 0 7.053-4.517 13.211-11.237 15.325l-38.703 12.155v-63.475z"/></g></svg>