<svg height="512" viewBox="0 0 512 512" width="512" xmlns="http://www.w3.org/2000/svg"><g id="_08_Lack_of_air" data-name="08 Lack of air"><path d="m426 331.88c-9-11.77-32.11-25-68.72-39.28-3.84-1.49-7.63-2.92-11.31-4.28v-6.27a7.52 7.52 0 1 0 -15 0v.95c-8.27-2.85-15.19-5.07-19.64-6.47v-25.1c10.56-8 19.58-18.16 24.64-30.37 3.32-8 6.13-18.46 8.48-29.59.75.05 1.51.08 2.27.08a39.8 39.8 0 0 0 14.21-77 40.86 40.86 0 0 0 3.13-9.82c3.62-18.82-2.08-49.16-19.78-68.34-14-15.12-32.11-16.68-39.88-16.58-8.84-7.81-38.57-29.09-90.53-15.23-38.66 10.31-65.64 51.81-68.46 84.34-.91 10.4.74 19.3 4.62 26.08a39.81 39.81 0 0 0 15.31 76.55c.76 0 1.52 0 2.27-.08 2.35 11.13 5.16 21.58 8.48 29.59 5.06 12.21 14.08 22.39 24.64 30.37v25.07c-8.69 2.73-26.79 8.62-46 16.1-36.59 14.29-59.73 27.51-68.73 39.28-14.28 18.76-41 88.64-41 172.61a7.51 7.51 0 0 0 7.48 7.51h407a7.51 7.51 0 0 0 7.51-7.51c.01-83.97-26.71-153.85-40.99-172.61zm-95.06-33v85.7a34.15 34.15 0 0 1 -68.29 0v-47.67a55.39 55.39 0 0 0 47.75-45c5.91 1.93 12.94 4.27 20.51 6.94zm-117.94-57.21c-6-6.53-6.69-15.55-2-26.83 4.11-9.85 12-20.37 21.71-28.87 10.33-9.06 18.55-12.27 22.45-12.27s12.13 3.22 22.49 12.31c9.7 8.52 17.62 19.06 21.7 28.92 4.81 11.62 3.92 20.83-2.64 27.4l-2.41 2.39c-10.9 6.44-22.64 10.41-31.63 11.8v-13.7a24.86 24.86 0 1 0 -15 0v13.4a96.16 96.16 0 0 1 -34.67-14.55zm34.64 29.81v49.92a40.3 40.3 0 0 1 -31.83-39.35v-21.18a102.49 102.49 0 0 0 31.78 10.61zm-73.73-141.3a67.52 67.52 0 0 0 14.72 1.58c36.63 0 76.68-26.08 94.72-39.37a2.51 2.51 0 0 1 3.43.44c22.58 27.36 39.52 35.52 51.56 35.81-.4 4.09-.94 9.27-1.62 15.08l-42.22 37.64c-12.54-13.22-27.86-22.69-39.39-22.69s-26.84 9.48-39.39 22.7l-40.18-35.87c-.7-5.81-1.26-11.06-1.68-15.32zm122.33 130.69v21.18a40.31 40.31 0 0 1 -33.62 39.69v-50c10.04-1.19 22.06-4.87 33.62-10.87zm-51-41.75a9.83 9.83 0 1 1 9.83 9.83 9.84 9.84 0 0 1 -9.79-9.83zm71.85 5.11a53.43 53.43 0 0 0 -3.95-15 83.75 83.75 0 0 0 -9.07-16.23l29.52-26.35c-2.75 17.81-6.56 36.62-11.56 48.69a49.23 49.23 0 0 1 -4.9 8.89zm54.3-72.49a24.8 24.8 0 0 1 -24.21 24.76c3.28-19.23 5.29-38.22 6.25-48.58a24.82 24.82 0 0 1 18 23.82zm-211-61.52c2.4-27.6 26-62.76 57.36-71.12a113.13 113.13 0 0 1 29.17-4.1c32.42 0 48.17 16.62 49 17.48a7.52 7.52 0 0 0 6.5 2.52c.18 0 18.05-2.12 30.76 11.64 13.65 14.79 19 40.23 16.06 55.31-1.07 5.57-3.21 9.49-5.85 10.76-9.21 4.39-26.48-6.88-45.07-29.41a17.55 17.55 0 0 0 -23.94-3c-15.91 11.7-70.56 48.7-105.91 32.33-8.71-4.03-8.56-17.02-8.09-22.41zm-19.81 61.52a24.82 24.82 0 0 1 18-23.82c1 10.36 3 29.35 6.25 48.58a24.8 24.8 0 0 1 -24.26-24.76zm56.51 57.32a55.07 55.07 0 0 0 -3.7 12.87 48.12 48.12 0 0 1 -3.41-6.62c-4.83-11.65-8.55-29.58-11.27-46.84l27.44 24.53a84.56 84.56 0 0 0 -9.07 16.06zm-83.47 287.94h-53.55c.26-12.87 1.16-25.37 2.53-37.36h56zm273.47-84.22a7.52 7.52 0 0 0 -14.9 2l11 82.23h-254.4l11-82.23a7.52 7.52 0 0 0 -14.9-2l-4.26 31.83h-56c7.85-51.61 23.92-91.26 33.37-103.61 13.44-17.6 73-39.29 103.65-49.05a55.41 55.41 0 0 0 46 44.72v47.88a49.18 49.18 0 0 0 98.35 0v-80.21c28.22 10.73 58.85 24.66 68 36.66 9.43 12.35 25.5 51.95 33.37 103.58h-56zm11.29 84.22-5-37.36h56c1.37 12 2.27 24.49 2.53 37.36z"/><path d="m229 151a7.53 7.53 0 0 0 -11-10.35s-3.63 3.42-10.84 4.46a7.53 7.53 0 0 0 1.07 15 6.63 6.63 0 0 0 1.08-.08c12.5-1.81 18.95-8.29 19.69-9.03z"/><path d="m302.67 160a6.63 6.63 0 0 0 1.08.08 7.53 7.53 0 0 0 1.07-15c-7.21-1-10.81-4.43-10.84-4.46a7.53 7.53 0 0 0 -10.93 10.38c.69.74 7.14 7.22 19.62 9z"/></g></svg>