<svg id="Layer_1" enable-background="new 0 0 512 512" viewBox="0 0 512 512" xmlns="http://www.w3.org/2000/svg"><g><path d="m459.8251953 76.1298828h-407.6503906c-28.2177735 0-51.1748047 22.9560547-51.1748047 51.1738281v257.3925781c0 28.2177734 22.9570312 51.1738281 51.1748047 51.1738281h407.6503906c28.2177735.0000001 51.1748047-22.9560546 51.1748047-51.173828v-257.3925782c0-28.2177734-22.9570312-51.1738281-51.1748047-51.1738281zm35.1748047 308.5664063c0 19.3945312-15.7792969 35.1738281-35.1748047 35.1738281h-407.6503906c-19.3955078 0-35.1748047-15.7792969-35.1748047-35.1738281v-257.3925782c0-19.3945312 15.7792969-35.1738281 35.1748047-35.1738281h407.6503906c19.3955078 0 35.1748047 15.7792969 35.1748047 35.1738281z"/><path d="m373.5693359 115.9951172h-307.1386718c-12.3681641 0-22.4306641 10.0625-22.4306641 22.430664v235.1484375c0 12.3681641 10.0625 22.4306641 22.4306641 22.4306641h307.1386719c12.368164 0 22.430664-10.0625 22.430664-22.430664v-235.1484376c0-12.368164-10.0625-22.430664-22.4306641-22.430664zm-307.1386718 16h307.1386719c3.5458984 0 6.4306641 2.8847656 6.4306641 6.4306641v100.5742187h-46c-3.4433594 0-6.5009766 2.203125-7.5898438 5.4697266l-1.4746094 4.4248047-17.1943359-65.9140625c-.9101562-3.4892578-4.0429688-5.9384766-7.6484375-5.9794922-.0312501-.0009766-.0625001-.0009766-.0937501-.0009766-3.5673828 0-6.7089844 2.3652344-7.6914062 5.8017578l-23.8496094 83.4746094-9.7041016-38.2441406c-.899414-3.5478516-4.0932617-6.0322266-7.7539062-6.0322266h-44c-3.284668 0-6.2353516 2.0078125-7.4414062 5.0625l-6.1264648 15.5214844-17.7080078-65.6669922c-.9228516-3.4208984-3.9863281-5.828125-7.5288086-5.9150391-3.5693359-.0800781-6.7202148 2.1679688-7.8085938 5.5400391l-34.4008789 106.5595703-16.6196289-39.2226562c-1.253418-2.9580079-4.1542969-4.8789063-7.366211-4.8789063h-42v-100.5742188c0-3.5458984 2.8847656-6.430664 6.4306641-6.430664zm307.1386718 248.0097656h-307.1386718c-3.5458984 0-6.4306641-2.8847656-6.4306641-6.4306641v-118.5742187h36.7011719l22.9326172 54.1210938c1.2573242 2.9667968 4.165039 4.8789062 7.3642578 4.8789062.1181641 0 .2368164-.0029297.355957-.0078125 3.3378906-.1474609 6.2324219-2.3544922 7.2592773-5.5341797l32.6982422-101.2851562 16.9643555 62.9101562c.8979492 3.3300781 3.8300781 5.7099609 7.2739258 5.9042969 3.4462891.2001953 6.6245117-1.8408203 7.8916016-5.0498047l13.0014648-32.9375h32.3334961l15.4697266 60.9677734c.8886719 3.5048828 4.0185547 5.9775391 7.6347656 6.03125.040039.0009766.0800781.0009766.1201172.0009766 3.5664062 0 6.7089844-2.3642578 7.6914062-5.8017578l23.9570312-83.8496094 16.609375 63.6708984c.8945312 3.4267578 3.9355469 5.8583984 7.4746094 5.9755859 3.5664062.1455078 6.7363281-2.1054688 7.8564453-5.4648438l8.1757813-24.5302733h40.234375v118.5742188c0 3.5458984-2.8847656 6.430664-6.4306641 6.430664z"/><path d="m446 200c15.9902344 0 29-13.0097656 29-29s-13.0097656-29-29-29-29 13.0097656-29 29 13.0097656 29 29 29zm0-42c7.1679688 0 13 5.8320312 13 13s-5.8320312 13-13 13-13-5.8320312-13-13 5.8320312-13 13-13z"/><path d="m446 282c15.9902344 0 29-13.0097656 29-29s-13.0097656-29-29-29-29 13.0097656-29 29 13.0097656 29 29 29zm0-42c7.1679688 0 13 5.8320312 13 13s-5.8320312 13-13 13-13-5.8320312-13-13 5.8320312-13 13-13z"/><path d="m468 329h-37c-4.4179688 0-8 3.5820312-8 8s3.5820312 8 8 8h37c4.4179688 0 8-3.5820312 8-8s-3.5820312-8-8-8z"/><path d="m468 364h-37c-4.4179688 0-8 3.5820312-8 8s3.5820312 8 8 8h37c4.4179688 0 8-3.5820312 8-8s-3.5820312-8-8-8z"/></g></svg>