<svg id="Layer_1" enable-background="new 0 0 480.001 480.001" height="512" viewBox="0 0 480.001 480.001" width="512" xmlns="http://www.w3.org/2000/svg"><g><path d="m464.688 256.373c2.244-3.806.977-8.71-2.829-10.954s-8.711-.977-10.954 2.829c-14.404 24.435-34.939 45.485-60.264 58.75-3.289 1.722-4.871 5.409-4.08 8.866-.256 1.113-.285 2.296-.027 3.486 3.487 16.03 11.63 30.526 24.821 42.064-3.242 15.929-15.618 28.443-31.847 31.725-4.331.876-7.131 5.097-6.255 9.427.873 4.317 5.083 7.133 9.427 6.255 20.265-4.099 36.214-18.542 42.55-37.482 10.739 6.256 20.955 9.43 26.855 10.892 4.297 1.064 8.628-1.561 9.688-5.842 1.063-4.289-1.553-8.626-5.842-9.689-25.062-6.208-46.43-22.487-53.131-48.127 24.176-13.741 45.883-35.047 61.888-62.2z"/><path d="m344.729 325.765c-36.041 14.025-66.99 32.39-98.402 61.664-1.624 1.513-2.545 3.632-2.546 5.852-.003 24.296 1.665 51.089 4.957 79.636.506 4.389 4.474 7.537 8.864 7.031 4.389-.506 7.537-4.475 7.031-8.864-3.064-26.573-4.69-51.551-4.84-74.307 30.175-27.507 58.929-43.723 90.739-56.101 4.117-1.602 6.156-6.239 4.554-10.356-1.603-4.118-6.24-6.158-10.357-4.555z"/><path d="m97.465 158.71c-27.903-29.058-53.315-50.07-36.243-119.443 1.056-4.29-1.566-8.624-5.856-9.68-4.29-1.057-8.625 1.566-9.68 5.856-17.414 70.759 6.261 99.79 33.708 127.75-8.829 7.074-15.247 15.27-19.111 24.466-4.631 11.02-4.446 20.105-4.114 31.08-12.147-3.748-24.366-3.823-36.05-.668-4.265 1.152-6.789 5.544-5.637 9.809 1.152 4.266 5.542 6.789 9.809 5.638 10.246-2.768 20.908-2.16 30.864 1.789-2.801 13.03-11.134 23.479-21.678 31.454-3.524 2.665-4.22 7.683-1.554 11.207 2.67 3.529 7.687 4.216 11.207 1.554 3.332-2.521 6.379-5.176 9.156-7.953 8.913 8.171 20.797 12.74 33.571 12.41 4.417-.114 7.905-3.786 7.792-8.203-.114-4.417-3.764-7.91-8.204-7.792-8.581.224-16.83-2.801-23.08-8.918 2.536-4.002 4.61-8.19 6.19-12.562 7.947-21.994-.529-35.97 6.48-52.648 2.994-7.126 8.258-13.568 15.677-19.211 18.449 18.851 36.578 39.723 46.524 75.767-21.89 55.925-26.05 126.789-13.113 222.656.59 4.371 4.609 7.449 8.998 6.858 4.378-.591 7.449-4.62 6.858-8.998-12.745-94.437-8.586-163.399 13.087-217.028.644-1.593.758-3.35.325-5.013-11.648-44.745-34.969-69.041-55.926-90.177z"/><path d="m222.612 139.327c-3.473-2.731-8.502-2.13-11.234 1.342-8.111 10.313-16.861 20.377-25.643 31.039-40.824-63.5-89.603-60.291-67.81-132.028 1.284-4.228-1.102-8.696-5.33-9.98-4.228-1.286-8.696 1.102-9.98 5.329-26.11 85.953 36.803 85.886 75.166 154.505 2.777 4.967 9.722 5.526 13.256 1.061 10.859-13.723 22.452-26.73 32.917-40.034 2.732-3.473 2.131-8.502-1.342-11.234z"/><path d="m253.186 103.879c11.48-25.596 16.843-54.515 16.398-88.408-.058-4.382-3.628-7.895-7.998-7.895-4.47 0-8.06 3.654-8.001 8.105.325 24.733-2.642 46.494-9.006 66.042-6.92-9.702-16.776-20.248-30.507-28.817 10.289-13.5 14.519-29.824 13.063-45.639-.405-4.399-4.294-7.637-8.7-7.233-4.399.405-7.638 4.3-7.233 8.7 1.213 13.175-2.785 26.322-11.591 36.632-11.614-4.968-23.985-7.803-36.873-8.425-4.428-.216-8.164 3.192-8.376 7.605-.213 4.413 3.192 8.163 7.605 8.376 33.217 1.603 60.745 20.416 75.746 47.921.058.107.131.2.193.303.293 4.271 3.847 7.462 7.976 7.462 3.055 0 5.972-1.76 7.304-4.729z"/><path d="m257.711 286.906c-2.197 7.206 5.928 13.144 12.125 8.966 57.532-38.789 103.25-8.037 146.503-79.176 2.295-3.775 1.095-8.696-2.68-10.992-3.778-2.296-8.696-1.095-10.992 2.68-34.918 57.432-70.26 38.014-122.566 63.175 39.646-97.607 125.586-111.27 115.604-256.531-.303-4.408-4.136-7.733-8.529-7.433-4.408.303-7.736 4.122-7.433 8.53 10.156 147.804-84.652 148.164-122.032 270.781z"/><path d="m190.072 296.613c-4.08-1.696-8.763.237-10.458 4.316-.577 1.388-1.153 2.813-1.727 4.277-2.06 5.251 1.829 10.923 7.446 10.923 3.195 0 6.213-1.927 7.45-5.081.534-1.361 1.069-2.687 1.606-3.977 1.695-4.08-.238-8.762-4.317-10.458z"/><path d="m177.932 329.997c-4.306-1.001-8.604 1.674-9.606 5.977-3.2 13.737-3.895 23.882-4.323 42.846-.101 4.474 3.494 8.18 8.001 8.18 4.334 0 7.896-3.464 7.995-7.82.401-17.796 1.033-27.229 3.91-39.577 1.002-4.302-1.674-8.603-5.977-9.606z"/></g></svg>