<svg id="Layer_1" enable-background="new 0 0 500 500" viewBox="0 0 500 500" xmlns="http://www.w3.org/2000/svg"><g><path d="m153.761 445.419c-1.93 0-3.808-.758-5.198-2.154l-98.677-98.672c-1.752-1.752-2.505-4.268-1.999-6.692.5-2.424 2.194-4.434 4.498-5.347l25.671-10.133c2.728-1.08 5.819-.437 7.898 1.643l83.134 83.134c2.074 2.068 2.717 5.17 1.643 7.898l-10.127 25.67c-.914 2.304-2.918 3.998-5.348 4.498-.495.104-.995.155-1.495.155zm-85.552-103.301 82.824 82.824 4.245-10.759-76.31-76.31z"/><path d="m154.278 410.134c-1.936 0-3.814-.764-5.199-2.154l-63.909-63.903c-1.596-1.596-2.372-3.837-2.102-6.077s1.551-4.228 3.481-5.405l77.471-47.119c2.883-1.752 6.611-1.321 9.018 1.086l33.557 33.552c2.395 2.395 2.843 6.123 1.086 9.018l-47.119 77.471c-1.178 1.93-3.165 3.211-5.405 3.48-.293.033-.586.051-.879.051zm-52.093-69.837 50.674 50.669 39.255-64.541-25.389-25.383z"/><path d="m201.397 332.663c-1.885 0-3.763-.718-5.199-2.154l-33.557-33.551c-1.379-1.378-2.154-3.245-2.154-5.198 0-1.948.775-3.82 2.154-5.199l38.456-38.456c2.872-2.872 7.525-2.872 10.397 0l33.557 33.551c1.379 1.379 2.154 3.246 2.154 5.199 0 1.947-.775 3.82-2.154 5.198l-38.456 38.457c-1.436 1.435-3.314 2.153-5.198 2.153zm-23.161-40.903 23.161 23.154 28.059-28.059-23.16-23.155z"/><path d="m255.029 309.383c-1.885 0-3.762-.718-5.199-2.154l-63.909-63.903c-1.378-1.379-2.154-3.245-2.154-5.198 0-1.948.775-3.82 2.154-5.199l8.588-8.587c6.99-6.991 19.197-7.002 26.199 0l48.106 48.107c3.499 3.498 5.423 8.145 5.423 13.097 0 4.946-1.924 9.599-5.423 13.097l-8.587 8.587c-1.436 1.434-3.314 2.153-5.198 2.153zm-53.511-71.256 53.512 53.506 3.389-3.389c1.488-1.488 1.488-3.912 0-5.4l-48.107-48.106c-1.499-1.499-3.917-1.488-5.405 0z"/><path d="m263.421 284.803c-1.935 0-3.808-.764-5.198-2.154l-47.716-47.715c-1.666-1.666-2.436-4.027-2.063-6.354.368-2.326 1.832-4.331 3.929-5.399l37.699-19.15c2.843-1.453 6.278-.896 8.53 1.355l29.162 29.163c2.252 2.251 2.797 5.692 1.356 8.53l-19.145 37.704c-1.063 2.096-3.073 3.561-5.4 3.929-.384.063-.769.091-1.154.091zm-35.354-53.103 33.391 33.385 12.137-23.913-21.615-21.615z"/><path d="m274.829 239.362c-1.884 0-3.762-.718-5.198-2.154l-13.688-13.688c-2.872-2.872-2.872-7.524 0-10.396l154.871-154.873c.603-.603 1.304-1.097 2.073-1.459l51.634-24.251c3.245-1.516 7.088-.483 9.144 2.429 2.051 2.924 1.706 6.899-.822 9.427l-192.816 192.811c-1.436 1.436-3.314 2.154-5.198 2.154zm-3.291-21.04 3.291 3.291 157.893-157.887-12.419 5.83z"/><path d="m290.361 468.154c-8.484 0-17.014-2.441-24.447-7.433l-104.542-70.245c-3.372-2.263-4.268-6.829-1.999-10.201 2.269-3.378 6.836-4.273 10.201-1.999l104.542 70.238c11.552 7.749 27.083 6.25 36.929-3.596 9.662-9.655 11.299-24.998 3.894-36.475l-66.091-102.428c-2.2-3.412-1.218-7.961 2.194-10.167 3.418-2.189 7.967-1.212 10.168 2.194l66.085 102.428c11.138 17.261 8.674 40.323-5.853 54.844-8.466 8.469-19.736 12.84-31.081 12.84z"/><path d="m281.986 399.329c-2.412 0-4.779-1.189-6.187-3.366l-33.258-51.542c-2.2-3.412-1.217-7.961 2.195-10.167 3.412-2.189 7.967-1.218 10.167 2.194l33.258 51.542c2.2 3.412 1.217 7.961-2.195 10.167-1.234.793-2.613 1.172-3.98 1.172z"/><path d="m260.79 423.299c-1.413 0-2.837-.402-4.095-1.252l-46.263-31.087c-3.372-2.263-4.268-6.83-1.999-10.201 2.269-3.377 6.835-4.268 10.201-1.999l46.263 31.087c3.371 2.263 4.267 6.83 1.999 10.201-1.418 2.113-3.739 3.251-6.106 3.251z"/><path d="m108.779 335.036c-2.366 0-4.687-1.138-6.106-3.252l-70.233-104.542c-11.677-17.381-9.409-40.736 5.394-55.533 14.521-14.515 37.595-16.986 54.85-5.848l102.422 66.086c3.412 2.206 4.395 6.755 2.195 10.167s-6.75 4.389-10.167 2.194l-102.422-66.086c-11.477-7.41-26.825-5.773-36.481 3.882-9.84 9.846-11.35 25.377-3.584 36.935l70.227 104.542c2.269 3.372 1.373 7.938-1.999 10.201-1.258.852-2.683 1.254-4.096 1.254z"/><path d="m152.716 251.781c-1.367 0-2.746-.379-3.981-1.172l-51.547-33.252c-3.412-2.206-4.394-6.755-2.194-10.167 2.206-3.406 6.755-4.383 10.167-2.194l51.547 33.252c3.412 2.206 4.395 6.755 2.195 10.167-1.408 2.177-3.775 3.366-6.187 3.366z"/><path d="m108.297 285.975c-2.367 0-4.687-1.137-6.112-3.251l-31.081-46.269c-2.263-3.372-1.367-7.938 2.005-10.207 3.366-2.257 7.932-1.372 10.207 2.005l31.081 46.268c2.263 3.372 1.367 7.938-2.005 10.207-1.258.845-2.682 1.247-4.095 1.247z"/></g></svg>