<svg id="Layer_1" viewBox="0 0 128 128" xmlns="http://www.w3.org/2000/svg" data-name="Layer 1"><path d="m6.64852 15.2206a2.00011 2.00011 0 0 0 -.87241 2.6894c.11375.22363 11.28714 22.63043 3.41446 46.95224a5.36618 5.36618 0 0 1 -.767 1.50095c-3.26357 4.51163-13.30727 21.10507-5.54785 45.24816a1.99977 1.99977 0 1 0 3.80746-1.22459c-7.18481-22.35309 1.99575-37.553 4.97962-41.67695a9.38252 9.38252 0 0 0 1.33278-2.61616c8.39652-25.93993-3.16206-49.03325-3.65807-50.00295a1.99593 1.99593 0 0 0 -2.68899-.8701z"/><path d="m38.53958 35.05811c-6.28555 1.53708-9.88553 6.912-8.75486 13.071l.3393 1.82614c1.61447 8.64437 3.28411 17.58268-.43547 25.4214-1.81707 3.831-3.6898 8.74007-2.02407 12.73121a8.701 8.701 0 0 0 5.52252 4.77924 2.00005 2.00005 0 0 0 1.322-3.77532 4.84712 4.84712 0 0 1 -3.15376-2.54487c-1.06915-2.56148.599-6.63464 1.94693-9.47541 4.27564-9.01155 2.40438-19.03089.75329-27.87057l-.33686-1.81442c-.74157-4.037 1.57786-7.43736 5.771-8.46371a1.99959 1.99959 0 1 0 -.95-3.88469z"/><path d="m61.93 61.35992 3.92341-1.17722c-.8-9.84973-4.8757-20.158-12.21771-30.78659 1.13555-2.63667 3.49013-9.11116 1.33473-13.30932a2.00008 2.00008 0 0 0 -3.558 1.82809c1.27713 2.48628-.46672 7.951-1.86589 10.81034a2.00314 2.00314 0 0 0 .16346 2.0361c7.55284 10.67246 11.63509 20.92496 12.22 30.5986z"/><path d="m46.87166 94.2318a1.99787 1.99787 0 0 0 -.85825 1.64157v15.12569a1.99966 1.99966 0 1 0 3.99932 0v-14.12864a43.689 43.689 0 0 0 14.96309-23.896l-4.46415 1.33945a40.20551 40.20551 0 0 1 -13.64001 19.91793z"/><path d="m125.28412 61.22559-34.53368 10.63163c-1.13945.30859-1.81219.36913-3.50917-1.90035-.01513-.01953-1.52562-2.0693-3.27972-7.827a41.01512 41.01512 0 0 1 -1.9152-9.866c-.00049-.04883-.00342-.09668-.00732-.14453-.26021-2.89545 1.04816-3.25092 1.58762-3.3974l11.12488-3.317 3.37363 9.27882a1.99955 1.99955 0 1 0 3.75815-1.36716l-3.29271-9.05639 4.94655-1.47489 1.09375 2.91712a1.99957 1.99957 0 1 0 3.74448-1.40427l-.99672-2.65828 19.19234-5.72242a2.00025 2.00025 0 0 0 -1.14238-3.83391l-42.89749 12.79175c-3.13521.85155-4.80729 3.66692-4.48117 7.536.00842.26623.05016 1.1544.23208 2.54164l-6.34481 1.69461c-.82261.207-2.75 1.01854-2.917 4.081a9.8908 9.8908 0 0 0 .2704 2.59864l-15.8532 4.75669a2.00083 2.00083 0 0 0 .57363 3.91692 2.02915 2.02915 0 0 0 .57559-.085l15.89019-4.76781a7.169 7.169 0 0 0 1.07568 1.93484 4.48461 4.48461 0 0 0 3.49208 1.91207 4.5344 4.5344 0 0 0 .86606-.08887l6.39734-1.70355a16.59688 16.59688 0 0 0 1.74781 3.17328c1.42993 1.9111 3.12105 3.61224 5.79443 3.61224a7.63917 7.63917 0 0 0 2.01431-.29l34.59617-10.65019a1.99959 1.99959 0 1 0 -1.17656-3.82219zm-50.16482 5.75965-.00976.002a2.699 2.699 0 0 1 -.48136-.46093 9.95247 9.95247 0 0 1 -1.04426-2.55855 10.82444 10.82444 0 0 1 -.579-2.90351l.0083-.10522a2.2021 2.2021 0 0 1 .06688-.47655l5.90378-1.57687c.28743 1.3079.66078 2.77711 1.15215 4.3903.23769.78038.47209 1.49759.7013 2.16213z"/></svg>