<svg id="Capa_1" enable-background="new 0 0 512 512" height="512" viewBox="0 0 512 512" width="512" xmlns="http://www.w3.org/2000/svg"><g><path d="m230.463 180.48c1.956 1.435 4.257 2.167 6.569 2.167 1.7 0 3.407-.395 4.989-1.196 3.892-1.972 6.31-5.975 6.31-10.447v-26.828c0-6.419-5.066-11.642-11.292-11.642h-10.413c-4.515 0-8.755 2.083-11.633 5.716-3.074 3.879-4.18 8.902-3.034 13.781 2.719 11.582 9.29 21.685 18.504 28.449zm-3.687-32.947h6.555v15.089c-3.207-3.988-5.538-8.778-6.769-14.021-.13-.555.096-.932.214-1.068z"/><path d="m269.978 181.45c1.583.801 3.289 1.196 4.989 1.196 2.312 0 4.613-.732 6.569-2.168 9.214-6.763 15.785-16.865 18.504-28.447 1.146-4.88.04-9.903-3.034-13.782-2.878-3.633-7.118-5.716-11.633-5.716h-10.413c-6.227 0-11.292 5.223-11.292 11.642v26.828c.001 4.473 2.419 8.476 6.31 10.447zm8.691-33.917h6.555c.118.136.345.513.214 1.069-1.23 5.242-3.561 10.031-6.769 14.02z"/><path d="m197.895 364.834c1.363 0 2.733-.055 4.065-.162 20.28-1.621 37.89-15.14 45.957-35.28l8.083-20.175 8.082 20.175c8.067 20.141 25.677 33.659 45.95 35.279 1.339.108 2.709.163 4.072.163h.003c18.995 0 36.3-10.423 46.29-27.88 6.491-11.343 9.232-24.881 7.718-38.122l-8.992-78.563c-3.133-27.387-12.292-53.959-26.486-76.845-.566-.914-.878-2.101-.877-3.391 0-22.405-16.974-40.633-37.838-40.633h-22.753c-5.235 0-10.403 1.171-15.169 3.415-4.766-2.244-9.934-3.415-15.169-3.415h-22.753c-20.864 0-37.838 18.228-37.838 40.683.001 1.24-.311 2.427-.878 3.342-14.193 22.885-23.353 49.457-26.485 76.844l-8.992 78.563c-1.515 13.241 1.227 26.779 7.718 38.121 9.991 17.459 27.296 27.882 46.292 27.881zm-39.108-64.297 8.992-78.564c2.884-25.2 11.297-49.628 24.33-70.642 2.053-3.309 3.136-7.205 3.131-11.299 0-14.134 10.245-25.633 22.838-25.633h22.753c3.897 0 7.755 1.139 11.155 3.293 2.451 1.553 5.576 1.553 8.027 0 3.4-2.154 7.258-3.293 11.155-3.293h22.753c12.593 0 22.838 11.499 22.838 25.665-.005 4.062 1.078 7.957 3.13 11.266 13.034 21.015 21.447 45.442 24.331 70.643l8.992 78.564c1.153 10.089-.918 20.376-5.835 28.967-7.285 12.73-19.724 20.331-33.273 20.33-.962 0-1.925-.038-2.87-.115-14.561-1.164-27.294-11.09-33.229-25.905l-8.096-20.209c-2.354-5.876-7.813-9.674-13.91-9.674s-11.557 3.798-13.91 9.674l-8.096 20.209c-5.934 14.815-18.667 24.741-33.235 25.906-.939.076-1.901.114-2.863.114-13.55.001-25.988-7.6-33.273-20.331-4.917-8.59-6.988-18.877-5.835-28.966z"/><path d="m197.882 331.702c.618 0 1.24-.025 1.864-.075 9.16-.733 16.778-6.532 20.378-15.516l11.839-29.553c2.053-5.122 1.42-10.868-1.69-15.369-2.831-4.095-7.377-6.515-12.203-6.515-.095 0-.19.001-.286.002-6.645.128-13.341-1.166-19.831-3.854-4.289-1.777-9.045-1.443-13.047.913-4.226 2.487-6.98 6.805-7.557 11.847l-3.36 29.36c-.652 5.705.534 11.547 3.34 16.449 4.413 7.715 12.169 12.311 20.553 12.311zm-8.991-27.055 3.36-29.358c.031-.269.106-.431.169-.522 7.954 3.266 16.176 4.921 24.441 4.921.347 0 .692-.003 1.042-.009.148.192.378.698.136 1.303l-11.839 29.55c-1.455 3.631-4.243 5.87-7.658 6.143-3.328.277-6.319-1.455-8.194-4.733-1.232-2.151-1.748-4.743-1.457-7.295z"/><path d="m314.048 260.822c-6.191 2.564-12.552 3.864-18.909 3.864-.308 0-.615-.004-.918-.009-4.945-.104-9.606 2.335-12.493 6.512-3.11 4.501-3.743 10.247-1.69 15.369l11.839 29.554c3.6 8.982 11.218 14.782 20.369 15.514.626.051 1.248.075 1.867.075 8.39 0 16.146-4.596 20.56-12.31 2.806-4.903 3.992-10.745 3.34-16.45l-3.36-29.36c-.577-5.041-3.331-9.358-7.557-11.846-4.004-2.356-8.76-2.689-13.048-.913zm7.604 51.119v.001c-1.876 3.276-4.875 4.997-8.203 4.731-3.406-.271-6.194-2.511-7.649-6.141l-11.839-29.553c-.242-.604-.013-1.11.136-1.303 8.6.15 17.193-1.51 25.483-4.912.062.092.138.254.169.522l3.36 29.358c.291 2.555-.225 5.147-1.457 7.297z"/><path d="m190.476 234.55c6.851 4.598 18.143 10.673 29.967 10.672 5.118 0 10.338-1.139 15.338-4.029l4.768-2.755c4.801-2.775 7.783-8.068 7.783-13.845l-.023-5.636c-.025-6.792-4.209-12.795-10.41-14.938-11.168-3.859-21.06-11.189-28.605-21.196-2.867-3.807-7.951-4.923-12.071-2.67-1.963 1.068-3.506 2.814-4.346 4.915-4.329 10.842-7.411 22.203-9.159 33.768-.935 6.163 1.718 12.332 6.758 15.714zm8.072-13.471c1.116-7.383 2.835-14.675 5.128-21.771 8.312 8.622 18.301 15.077 29.317 18.886.083.047.313.331.315.821l.023 5.607c0 .479-.218.78-.29.828l-4.767 2.755c-9.858 5.695-23.872-2.375-29.439-6.111-.136-.09-.366-.493-.287-1.015z"/><path d="m271.453 238.438 4.767 2.755c5.001 2.892 10.219 4.03 15.338 4.029 11.823 0 23.117-6.075 29.967-10.672 5.039-3.382 7.692-9.551 6.76-15.713-1.749-11.566-4.831-22.928-9.155-33.759-.837-2.105-2.382-3.854-4.351-4.926-4.13-2.25-9.208-1.132-12.07 2.669-7.545 10.007-17.436 17.337-28.605 21.197-6.197 2.143-10.381 8.143-10.41 14.934l-.023 5.671c-.002 5.746 2.98 11.039 7.782 13.815zm7.239-19.422c.002-.496.238-.78.31-.819 11.019-3.81 21.009-10.265 29.321-18.888 2.294 7.097 4.012 14.388 5.129 21.773.078.52-.152.923-.288 1.014-5.566 3.736-19.582 11.808-29.439 6.111l-4.765-2.754c-.074-.049-.292-.35-.292-.798z"/><path d="m479.272 298.7-18.865-94.325c-4.438-22.191-11.208-43.991-20.124-64.794-8.283-19.329-24.469-34.233-44.41-40.901-.022-.008-.045-.015-.066-.022-14.044-4.682-28.069-10.014-41.685-15.848l-28.45-12.193c-2.948-1.264-5.026-4.025-5.424-7.209l-6.198-49.58c-.985-7.884-7.718-13.828-15.662-13.828h-84.775c-7.944 0-14.677 5.944-15.661 13.825l-6.198 49.583c-.397 3.183-2.476 5.944-5.424 7.208l-26.935 11.544c-3.808 1.632-5.571 6.041-3.939 9.848 1.631 3.808 6.041 5.573 9.848 3.94l26.935-11.544c7.827-3.354 13.345-10.687 14.4-19.135l6.198-49.583c.049-.391.383-.686.776-.686h84.775c.394 0 .728.295.776.686l6.198 49.581c1.056 8.449 6.573 15.781 14.4 19.136l28.45 12.193c13.977 5.989 28.371 11.463 42.787 16.271.022.007.043.015.064.021 15.911 5.303 28.825 17.186 35.432 32.601 8.508 19.85 14.968 40.652 19.202 61.827l18.865 94.325c4.23 21.148-3.435 42.864-20.004 56.672-12.504 10.42-26.089 19.663-40.377 27.472l-11.641 6.362c.73-10.431 2.116-20.836 4.184-31.179 5.087-25.435 6.357-51.418 3.776-77.227l-4.505-45.054c-.411-4.121-4.074-7.119-8.209-6.717-4.122.412-7.129 4.088-6.717 8.209l4.505 45.054c2.433 24.327 1.235 48.818-3.56 72.793-6.231 31.154-6.742 62.842-1.518 94.181l7.312 43.879c.015.089.061.36-.175.638-.232.276-.505.276-.595.276h-183.021c-4.143 0-7.5 3.357-7.5 7.5s3.357 7.5 7.5 7.5h183.021c4.648 0 9.037-2.034 12.042-5.58 3.005-3.547 4.291-8.211 3.527-12.799l-7.314-43.881c-2.225-13.349-3.335-26.765-3.353-40.172l19.435-10.621c15.141-8.274 29.536-18.068 42.787-29.11 20.798-17.332 30.419-44.591 25.11-71.137z"/><path d="m169.017 497h-44.055c-.09 0-.363 0-.598-.276-.235-.277-.19-.549-.175-.636l7.312-43.881c5.225-31.339 4.714-63.026-1.518-94.181-4.795-23.975-5.992-48.466-3.56-72.793l4.505-45.054c.412-4.121-2.595-7.797-6.717-8.209-4.121-.423-7.797 2.594-8.209 6.717l-4.505 45.054c-2.581 25.809-1.311 51.792 3.776 77.227 2.069 10.343 3.454 20.748 4.184 31.179l-11.641-6.362c-14.288-7.809-27.873-17.052-40.377-27.472-16.569-13.808-24.234-35.523-20.004-56.672l18.865-94.325c4.234-21.175 10.694-41.977 19.202-61.827 6.606-15.415 19.521-27.298 35.431-32.601.022-.007.044-.015.065-.022 3.719-1.239 7.485-2.54 11.195-3.866 3.9-1.395 5.933-5.687 4.538-9.587-1.394-3.9-5.689-5.932-9.587-4.538-3.63 1.298-7.314 2.57-10.952 3.782-.022.008-.045.015-.067.022-19.941 6.668-36.126 21.572-44.41 40.901-8.916 20.803-15.686 42.602-20.124 64.794l-18.862 94.326c-5.31 26.546 4.312 53.805 25.109 71.137 13.251 11.042 27.646 20.836 42.787 29.11l19.435 10.621c-.018 13.407-1.128 26.823-3.353 40.172l-7.314 43.883c-.764 4.586.522 9.25 3.527 12.797 3.005 3.546 7.394 5.58 12.042 5.58h44.055c4.143 0 7.5-3.357 7.5-7.5s-3.358-7.5-7.5-7.5z"/></g></svg>