<svg height="477pt" viewBox="0 -15 477 477" width="477pt" xmlns="http://www.w3.org/2000/svg"><path d="m114.5 356.550781h-26c-2.625-.058593-5.164062.9375-7.042969 2.769531-1.882812 1.832032-2.945312 4.34375-2.957031 6.96875v70.808594c0 5.523438 4.476562 10.453125 10 10.453125h300c5.523438 0 10-4.929687 10-10.453125v-70.808594c-.011719-2.625-1.074219-5.136718-2.957031-6.96875-1.878907-1.832031-4.417969-2.828124-7.042969-2.769531h-26v-136.109375c0-68.59375-55.40625-124.890625-124-124.890625h-.007812c-68.59375 0-123.992188 56.304688-123.992188 124.898438zm264 71h-280v-51h280zm-244-207.101562c0-57.566407 46.425781-104.898438 103.992188-104.898438h.007812c57.566406 0 104 47.324219 104 104.898438v136.101562h-208zm0 0"/><path d="m297.183594 221.550781h-29.683594v-30.742187c-.082031-5.617188-4.605469-10.15625-10.222656-10.257813h-37.554688c-5.617187.101563-10.140625 4.640625-10.222656 10.257813v30.742187h-29.683594c-5.640625.113281-10.191406 4.65625-10.316406 10.296875v38.628906c.144531 5.597657 4.71875 10.0625 10.316406 10.074219h29.683594v30.964844c.101562 5.570313 4.648438 10.035156 10.222656 10.035156h37.554688c5.574218 0 10.121094-4.464843 10.222656-10.035156v-30.964844h29.683594c5.597656-.011719 10.171875-4.476562 10.316406-10.074219v-38.628906c-.125-5.640625-4.675781-10.183594-10.316406-10.296875zm-9.683594 39h-30.222656c-2.621094-.007812-5.132813 1.039063-6.972656 2.90625-1.839844 1.867188-2.851563 4.398438-2.804688 7.019531v31.074219h-18v-31.074219c.046875-2.621093-.964844-5.152343-2.804688-7.019531-1.839843-1.867187-4.351562-2.914062-6.972656-2.90625h-30.222656v-19h30.222656c2.597656.058594 5.105469-.941406 6.949219-2.773437 1.847656-1.828125 2.867187-4.332032 2.828125-6.929688v-31.296875h18v31.296875c-.039062 2.597656.980469 5.101563 2.828125 6.929688 1.84375 1.832031 4.351563 2.832031 6.949219 2.773437h30.222656zm0 0"/><path d="m238.5 83.511719c5.523438 0 10-4.480469 10-10v-63.511719c0-5.523438-4.476562-10-10-10s-10 4.476562-10 10v63.511719c0 5.519531 4.476562 10 10 10zm0 0"/><path d="m467 234.550781h-61.753906c-5.523438 0-10 4.476563-10 10 0 5.519531 4.476562 10 10 10h61.753906c5.523438 0 10-4.480469 10-10 0-5.523437-4.476562-10-10-10zm0 0"/><path d="m81.753906 244.550781c0-5.523437-4.476562-10-10-10h-61.753906c-5.523438 0-10 4.476563-10 10 0 5.519531 4.476562 10 10 10h61.753906c5.523438 0 10-4.480469 10-10zm0 0"/><path d="m113.421875 130.710938c2.484375 2.585937 6.167969 3.644531 9.644531 2.769531 3.480469-.871094 6.226563-3.539063 7.195313-6.996094.96875-3.453125.015625-7.160156-2.5-9.714844l-43.660157-44.910156c-2.484374-2.601563-6.171874-3.675781-9.660156-2.804687-3.492187.871093-6.246094 3.546874-7.214844 7.011718-.964843 3.464844 0 7.183594 2.535157 9.738282zm0 0"/><path d="m356.40625 133.738281c2.703125.003907 5.289062-1.089843 7.171875-3.027343l43.664063-44.90625c2.535156-2.554688 3.503906-6.273438 2.535156-9.738282s-3.722656-6.140625-7.210938-7.011718c-3.492187-.871094-7.179687.203124-9.660156 2.804687l-43.667969 44.910156c-2.800781 2.878907-3.605469 7.160157-2.042969 10.859375 1.566407 3.703125 5.191407 6.109375 9.210938 6.109375zm0 0"/></svg>