<svg id="Layer_3" height="512" viewBox="0 0 64 64" width="512" xmlns="http://www.w3.org/2000/svg" data-name="Layer 3"><path d="m55 3h-12v-1a1 1 0 0 0 -1-1h-20a1 1 0 0 0 -1 1v1h-12a1 1 0 0 0 -1 1v58a1 1 0 0 0 1 1h46a1 1 0 0 0 1-1v-58a1 1 0 0 0 -1-1zm-32 0h18v6h-18zm19 8a1 1 0 0 0 1-1v-1h7v48h-36v-48h7v1a1 1 0 0 0 1 1zm12 50h-44v-56h11v2h-8a1 1 0 0 0 -1 1v50a1 1 0 0 0 1 1h38a1 1 0 0 0 1-1v-50a1 1 0 0 0 -1-1h-8v-2h11z"/><path d="m25 5h2v2h-2z"/><path d="m37 5h2v2h-2z"/><path d="m22.586 36h-5.586a1 1 0 0 0 -1 1v6a1 1 0 0 0 1 1h6a1 1 0 0 0 1-1v-5.586l2.707-2.707-1.414-1.414zm-2 2-2.586 2.586v-2.586zm1.414 4h-2.586l2.586-2.586z"/><path d="m25.293 43.293-2.707 2.707h-5.586a1 1 0 0 0 -1 1v6a1 1 0 0 0 1 1h6a1 1 0 0 0 1-1v-5.586l2.707-2.707zm-4.707 4.707-2.586 2.586v-2.586zm1.414 4h-2.586l2.586-2.586z"/><path d="m27 37h21v2h-21z"/><path d="m27 41h17v2h-17z"/><path d="m46 41h2v2h-2z"/><path d="m27 47h21v2h-21z"/><path d="m27 51h17v2h-17z"/><path d="m46 51h2v2h-2z"/><path d="m32 33a10 10 0 1 0 -10-10 10.011 10.011 0 0 0 10 10zm0-18a8 8 0 1 1 -8 8 8.009 8.009 0 0 1 8-8z"/><path d="m27 26h2v2a1 1 0 0 0 1 1h4a1 1 0 0 0 1-1v-2h2a1 1 0 0 0 1-1v-4a1 1 0 0 0 -1-1h-2v-2a1 1 0 0 0 -1-1h-4a1 1 0 0 0 -1 1v2h-2a1 1 0 0 0 -1 1v4a1 1 0 0 0 1 1zm1-4h2a1 1 0 0 0 1-1v-2h2v2a1 1 0 0 0 1 1h2v2h-2a1 1 0 0 0 -1 1v2h-2v-2a1 1 0 0 0 -1-1h-2z"/></svg>