<?xml version="1.0" encoding="UTF-8"?>
<svg id="Capa_1" xmlns="http://www.w3.org/2000/svg" version="1.1" viewBox="0 0 512 512">
  <!-- Generator: Adobe Illustrator 29.2.1, SVG Export Plug-In . SVG Version: 2.1.0 Build 116)  -->
  <path d="M108.8,72.4c1.3,0,2.6-.4,3.7-1.3,6.2-4.8,12.8-9.4,19.4-13.6,2.8-1.8,3.7-5.5,1.9-8.3-1.8-2.8-5.5-3.7-8.3-1.9-7,4.4-13.9,9.2-20.4,14.3-2.6,2-3.1,5.8-1.1,8.4,1.2,1.5,3,2.3,4.7,2.3Z"/>
  <path d="M150,46.6c.9,0,1.8-.2,2.6-.6,7.1-3.5,14.4-6.6,21.8-9.4,3.1-1.2,4.7-4.6,3.5-7.7-1.2-3.1-4.6-4.7-7.7-3.5-7.8,2.9-15.5,6.2-22.9,9.9-3,1.5-4.2,5.1-2.7,8,1,2.1,3.2,3.3,5.4,3.3Z"/>
  <path d="M69.8,104.5c1.1,1,2.5,1.4,3.9,1.4s3.4-.7,4.6-2.1c5.1-6,10.6-11.8,16.3-17.2,2.4-2.3,2.5-6.1.2-8.5-2.3-2.4-6.1-2.5-8.5-.2-6,5.7-11.8,11.8-17.1,18.1-2.2,2.5-1.9,6.3.7,8.5Z"/>
  <path d="M501.4,273.7c.1-1.5.2-2.9.3-4.4,0-.4,0-.9,0-1.3,0-1.8.2-3.5.2-5.3,0-.4,0-.7,0-1.1,0-1.9,0-3.7,0-5.6v-.5c0,0,0-.1,0-.2,0-8.3-.5-16.5-1.3-24.7,0,0,0,0,0,0,0,0,0-.1,0-.2-5.6-54.1-28.7-104.4-66.7-144.1-.3-.3-.6-.7-1-1-1-1.1-2.1-2.1-3.1-3.2,0,0-.1-.1-.2-.2-.5-.5-1.1-1.1-1.6-1.6-.9-.9-1.9-1.8-2.8-2.8,0,0,0,0-.1-.1,0,0,0,0,0,0-43-40.7-98.1-64.2-157.1-67.1,0,0,0,0,0,0-.1,0-.2,0-.3,0-1.9,0-3.9-.2-5.8-.2-.5,0-1.1,0-1.6,0-1.4,0-2.9,0-4.3,0s-.2,0-.3,0c-.6,0-1.3,0-1.9,0-1.4,0-2.8,0-4.2,0-1.1,0-2.2,0-3.2.1-.9,0-1.8,0-2.8.1-.2,0-.3,0-.5,0,0,0-.2,0-.3,0-8.1.4-16.2,1.3-24.1,2.5-.1,0-.2,0-.4,0-1.1.2-2.1.4-3.2.5-.6,0-1.2.2-1.8.3-1.4.2-2.8.5-4.1.8-.4,0-.9.2-1.3.2h0c-4.7.9-9.4,2-14,3.2-3.2.8-5.1,4.1-4.3,7.3.7,2.7,3.1,4.5,5.8,4.5s1,0,1.5-.2c4.8-1.2,9.7-2.3,14.6-3.3,1.3-.3,2.6-.5,3.9-.7.6,0,1.1-.2,1.7-.3,8.9-1.5,18-2.5,27.1-2.9.8,0,1.7,0,2.5,0,1.1,0,2.1,0,3.2-.1,1.2,0,2.4,0,3.6,0,.7,0,1.5,0,2.2,0,1.3,0,2.6,0,3.9,0,.7,0,1.3,0,2,0,1.9,0,3.8.1,5.6.2,7.9.4,15.7,1.1,23.5,2.3,0,0,.2,0,.3,0,7.8,1.2,15.6,2.8,23.2,4.7.1,0,.3,0,.4,0,7.3,1.9,14.5,4.1,21.6,6.7.2.1.4.2.6.3,7.4,2.7,14.7,5.9,21.8,9.3.2.1.5.2.7.3,6.7,3.3,13.2,6.9,19.5,10.8.2.1.3.3.5.4,6.7,4.2,13.2,8.7,19.5,13.5,0,0,.1,0,.2.1,6.2,4.8,12.2,10,18,15.4.9.8,1.7,1.7,2.6,2.5.6.5,1.1,1.1,1.7,1.6,1,1,2,2.1,3.1,3.1.3.3.7.7,1,1,2.7,2.8,5.4,5.8,7.9,8.7,0,0,0,0,.1.1,5,5.8,9.7,11.8,14.1,18,.1.2.2.4.3.6,4.5,6.5,8.8,13.2,12.6,20.1.1.2.2.4.4.6,3.6,6.5,6.9,13.2,9.9,20,0,.2.1.5.2.7,3.1,7.2,5.9,14.7,8.3,22.2,0,.1.1.3.2.4,2.3,7.3,4.2,14.8,5.8,22.3,0,0,0,.2,0,.2,1.6,7.6,2.8,15.3,3.6,23.1.8,8.1,1.3,16.3,1.3,24.5s0,4.5-.1,6.7c0,.7,0,1.3,0,2,0,1.6-.1,3.2-.2,4.8,0,.7,0,1.3-.1,2-.1,1.7-.2,3.5-.4,5.2,0,.5,0,1-.1,1.4-.9,9.3-2.3,18.5-4.3,27.5,0,.3-.1.5-.2.8-.5,2.2-1,4.3-1.5,6.5-1.1,4.4-2.3,8.8-3.7,13.1-1,3.2.8,6.5,3.9,7.5.6.2,1.2.3,1.8.3,2.6,0,4.9-1.6,5.7-4.2,1.4-4.5,2.7-9,3.8-13.6h0c0-.3.1-.6.2-.8.5-1.9.9-3.9,1.4-5.8.1-.5.2-1,.3-1.6.2-.8.3-1.5.5-2.3,0-.1,0-.2,0-.3,1.6-8,2.8-16.1,3.7-24.2,0,0,0,0,0-.1,0-.4,0-.8.1-1.2.1-1.5.3-2.9.4-4.4,0-.5,0-1.1.1-1.6Z"/>
  <path d="M43.1,145c.9.5,1.9.8,2.9.8,2.1,0,4.2-1.1,5.3-3.1,3.8-6.9,8-13.6,12.5-20.1,1.9-2.7,1.2-6.5-1.5-8.4-2.7-1.9-6.5-1.2-8.4,1.5-4.7,6.8-9.2,13.9-13.2,21.2-1.6,2.9-.6,6.6,2.3,8.2Z"/>
  <path d="M337.4,475.5c-2.7,1-5.5,2-8.3,2.9-4.1,1.3-8.2,2.6-12.3,3.7-.2,0-.4.1-.6.2-8.6,2.3-17.3,4.1-26.1,5.3-.9.1-1.8.3-2.6.4-.8.1-1.7.2-2.5.3-1.2.1-2.4.3-3.5.4-.6,0-1.1.1-1.7.2-1.7.2-3.5.3-5.2.5-.6,0-1.2,0-1.8.1-1.2,0-2.5.2-3.7.2-4.3.2-8.6.4-12.9.4s-7.8,0-11.7-.3c0,0,0,0,0,0-7.9-.4-15.8-1.2-23.6-2.4,0,0-.1,0-.2,0-7.6-1.1-15.1-2.7-22.5-4.5-.2,0-.4-.1-.6-.2-7.6-2-15.2-4.3-22.6-7.1-.2,0-.4-.1-.7-.2-7-2.6-13.8-5.5-20.5-8.8-.2-.1-.4-.3-.6-.4-7.1-3.5-14-7.3-20.7-11.5-.2-.1-.4-.2-.6-.3-6.4-4-12.6-8.4-18.6-13,0,0-.2-.1-.2-.2-6-4.6-11.8-9.7-17.4-14.9-1.7-1.6-3.3-3.2-5-4.8-4.1-4.1-8.1-8.4-11.8-12.7,0,0,0-.1-.1-.2-5.1-6-10-12.3-14.5-18.7-.1-.2-.2-.3-.3-.4-4.3-6.1-8.3-12.5-11.9-19,0-.2-.2-.5-.3-.7-3.8-6.9-7.4-14-10.5-21.3,0-.2-.2-.4-.3-.6-2.9-6.9-5.5-13.8-7.8-21,0-.2,0-.4-.2-.6-2.4-7.5-4.4-15.2-5.9-22.9,0-.1,0-.2,0-.3-1.5-7.6-2.7-15.3-3.5-23.1,0,0,0,0,0,0-.2-1.9-.4-3.8-.5-5.7,0,0,0-.2,0-.3-.1-1.8-.2-3.6-.3-5.4,0-.2,0-.4,0-.6,0-1.6-.1-3.2-.2-4.8,0-.4,0-.7,0-1.1,0-1.4,0-2.9,0-4.3,0-.6,0-1.2,0-1.8,0-8.4.5-16.8,1.4-25.2.1-1,.2-1.9.3-2.9.1-.9.2-1.7.3-2.6.1-.9.2-1.8.4-2.6.1-.9.3-1.8.4-2.7.1-.8.2-1.5.4-2.3.3-1.9.6-3.7,1-5.5.1-.5.2-1.1.3-1.6,1.7-8.7,3.9-17.3,6.6-25.8h0c2.2-7,4.8-14.1,7.8-20.9,1.3-3-.1-6.6-3.2-7.9-3-1.3-6.6.1-7.9,3.2-3.3,7.6-6.2,15.5-8.6,23.4,0,.2,0,.3-.1.5-2.4,7.6-4.3,15.4-6,23.2,0,.1,0,.3-.1.4-.1.5-.2,1-.3,1.5-.1.6-.2,1.2-.3,1.8-.3,1.8-.7,3.6-.9,5.4-.2.9-.3,1.9-.5,2.8-.1.9-.3,1.8-.4,2.7-.1,1-.3,1.9-.4,2.9-.1.9-.2,1.8-.3,2.7-.1,1-.2,2.1-.4,3.1,0,.6-.1,1.2-.2,1.8,0,0,0,.1,0,.2-.8,8.1-1.2,16.2-1.2,24.4s0,.2,0,.2c0,0,0,0,0,0,0,.5,0,1.1,0,1.6,0,1.5,0,3,0,4.5,0,.4,0,.8,0,1.1,0,1.7.1,3.4.2,5.2,0,.2,0,.3,0,.5.1,1.9.2,3.9.4,5.8,0,0,0,0,0,0,4.4,58.5,29.4,113,71.3,154.9,1.5,1.5,3,3,4.6,4.5,0,0,0,0,0,0,.2.2.4.4.6.6,45.8,43.3,105.5,67,168.7,67s8.2-.1,12.2-.3c0,0,0,0,0,0,.1,0,.2,0,.3,0,.3,0,.6,0,.9,0,1.3,0,2.7-.2,4-.3.6,0,1.2,0,1.8-.1,1.8-.1,3.7-.3,5.5-.5.6,0,1.1-.1,1.7-.2,1.3-.1,2.5-.3,3.8-.4.9-.1,1.8-.2,2.6-.3.9-.1,1.9-.3,2.8-.4.6,0,1.1-.1,1.7-.2.1,0,.2,0,.3,0,8-1.2,15.9-2.9,23.7-4.9.1,0,.2,0,.4,0,.4-.1.9-.2,1.3-.4.4,0,.7-.2,1.1-.3,4.2-1.1,8.4-2.4,12.5-3.7.3,0,.5-.2.8-.2h0c2.7-.9,5.4-1.8,8.1-2.8,3.1-1.2,4.7-4.6,3.5-7.7-1.2-3.1-4.6-4.7-7.7-3.5Z"/>
</svg>