<?xml version="1.0" encoding="UTF-8"?>
<svg id="Capa_1" data-name="Capa 1" xmlns="http://www.w3.org/2000/svg" viewBox="0 0 512 128">
  <defs>
    <style>
      .cls-1, .cls-2 {
        fill-rule: evenodd;
      }

      .cls-1, .cls-3 {
        fill: #4f6466;
      }

      .cls-2, .cls-4 {
        fill: #44b7af;
      }

      .cls-5 {
        fill: #575756;
      }

      .cls-6 {
        fill: #0f6569;
      }
    </style>
  </defs>
  <g>
    <g>
      <path class="cls-6" d="M150.38,60.34c0,1.66-.49,2.96-1.48,3.9-.98.94-2.31,1.41-3.98,1.41h-8.59v-28.19h8.59c1.67,0,3,.48,3.98,1.43.98.95,1.48,2.26,1.48,3.92v17.53ZM146.15,59.63v-16.19c0-1.57-.82-2.36-2.47-2.36h-3.13v20.95h3.03c1.72,0,2.58-.8,2.58-2.4Z"/>
      <path class="cls-6" d="M168.07,65.65h-4.4l-4.65-13.1v-2.54h4.14v-8.93h-5.31v24.57h-4.21v-28.19h11.19c1.69,0,2.54.86,2.54,2.59v10.25c0,1.19-.4,1.96-1.21,2.31-.43.18-1.35.27-2.74.27l4.65,12.77Z"/>
      <path class="cls-6" d="M174.37,65.65h-4.05v-4.36h4.05v4.36Z"/>
      <path class="cls-6" d="M191.37,63.07c0,1.72-.86,2.58-2.58,2.58h-8.86c-1.67,0-2.5-.86-2.5-2.58v-23.02c0-1.73.85-2.59,2.56-2.59h8.81c1.72,0,2.58.86,2.58,2.59v6.02h-4.23v-4.99h-5.49v20.95h5.49v-7.89h-3.13v-3.58h7.37v12.52Z"/>
      <path class="cls-6" d="M209.03,65.65h-4.18l-.85-5.35h-5.28l-.85,5.35h-4.16v-.07l5.46-28.15h4.43l5.42,28.23ZM203.41,56.68l-2.05-12.72-2.07,12.72h4.12Z"/>
      <path class="cls-6" d="M225.22,63.07c0,1.72-.86,2.58-2.58,2.58h-11.26v-28.19h11.19c1.67,0,2.5.86,2.5,2.59v7.26c0,.96-.3,1.71-.9,2.23-.08.07-.82.53-2.2,1.39,1.43.88,2.19,1.36,2.27,1.44.65.56.97,1.34.97,2.32v8.38ZM220.88,47.83v-6.83h-5.28v8.27h3.24l2.04-1.44ZM220.99,62.1v-8.03l-2.07-1.37h-3.31v9.4h5.39Z"/>
      <path class="cls-6" d="M242.96,65.65h-4.4l-4.65-13.1v-2.54h4.14v-8.93h-5.31v24.57h-4.21v-28.19h11.19c1.69,0,2.54.86,2.54,2.59v10.25c0,1.19-.4,1.96-1.21,2.31-.43.18-1.35.27-2.74.27l4.65,12.77Z"/>
      <path class="cls-6" d="M249.83,65.65h-4.21v-28.19h4.21v28.19Z"/>
      <path class="cls-6" d="M264.97,65.65h-11.69v-28.19h11.58v3.73h-7.37v8.23h6.34v3.66h-6.34v8.84h7.48v3.73Z"/>
      <path class="cls-6" d="M278.93,65.65h-11.08v-28.19h4.21v24.42h6.86v3.76Z"/>
      <path class="cls-6" d="M302.98,63.07c0,1.72-.86,2.58-2.58,2.58h-8.86c-1.67,0-2.5-.86-2.5-2.58v-23.02c0-1.73.85-2.59,2.56-2.59h8.81c1.72,0,2.58.86,2.58,2.59v6.02h-4.23v-4.99h-5.49v20.95h5.49v-7.89h-3.13v-3.58h7.37v12.52Z"/>
      <path class="cls-6" d="M320.56,63.07c0,1.72-.85,2.58-2.56,2.58h-9.15c-1.67,0-2.5-.86-2.5-2.58v-23.02c0-1.73.83-2.59,2.5-2.59h9.15c1.7,0,2.56.86,2.56,2.59v23.02ZM316.35,62.03v-20.95h-5.78v20.95h5.78ZM319.01,31.48l-5.24,4.76h-3.03v-.14l3.1-4.77h5.17v.16Z"/>
      <path class="cls-6" d="M340.99,65.65h-4.05v-13.91c0-.73.08-1.75.25-3.06l-3.64,14.39h-2.14l-3.66-14.39c.17,1.33.25,2.35.25,3.06v13.91h-4.05v-28.19h3.98l4.43,15.58c.05.17.08.59.11,1.28,0-.3.04-.73.11-1.28l4.43-15.58h3.98v28.19Z"/>
      <path class="cls-6" d="M356.04,65.65h-11.69v-28.19h11.58v3.73h-7.37v8.23h6.34v3.66h-6.34v8.84h7.48v3.73Z"/>
      <path class="cls-6" d="M370.89,65.65h-12.95v-2.25l7.89-22.14h-7.26v-3.8h12.28v2.43l-7.87,21.96h7.91v3.8Z"/>
      <path class="cls-6" d="M394.54,52.81c0,1.75-.86,2.63-2.58,2.63h-6.83v10.21h-4.21v-28.19h11.04c1.72,0,2.58.86,2.58,2.59v12.75ZM390.29,51.82v-10.74h-5.15v10.74h5.15Z"/>
      <path class="cls-6" d="M411.81,65.65h-4.18l-.85-5.35h-5.28l-.85,5.35h-4.16v-.07l5.46-28.15h4.43l5.42,28.23ZM406.19,56.68l-2.05-12.72-2.07,12.72h4.12Z"/>
      <path class="cls-6" d="M425.25,65.65h-11.08v-28.19h4.21v24.42h6.86v3.76Z"/>
      <path class="cls-6" d="M442.04,65.65h-4.18l-.85-5.35h-5.28l-.85,5.35h-4.16v-.07l5.46-28.15h4.43l5.42,28.23ZM436.42,56.68l-2.05-12.72-2.07,12.72h4.12Z"/>
      <path class="cls-6" d="M458.27,63.07c0,1.72-.86,2.58-2.58,2.58h-8.79c-1.67,0-2.5-.86-2.5-2.58v-23.02c0-1.73.83-2.59,2.5-2.59h8.79c1.72,0,2.58.86,2.58,2.59v6.59h-4.2v-5.57h-5.46v20.95h5.46v-5.93h4.2v6.97Z"/>
      <path class="cls-6" d="M465.87,65.65h-4.21v-28.19h4.21v28.19Z"/>
      <path class="cls-6" d="M483.54,63.07c0,1.72-.85,2.58-2.56,2.58h-9.15c-1.67,0-2.5-.86-2.5-2.58v-23.02c0-1.73.83-2.59,2.5-2.59h9.15c1.7,0,2.56.86,2.56,2.59v23.02ZM479.32,62.03v-20.95h-5.78v20.95h5.78Z"/>
      <path class="cls-6" d="M500.43,63.07c0,1.72-.85,2.58-2.56,2.58h-8.48c-1.69,0-2.54-.86-2.54-2.58v-6.72h4.21v5.75h5.15v-5.53l-8.45-8c-.61-.59-.92-1.34-.92-2.25v-6.27c0-1.73.85-2.59,2.54-2.59h8.48c1.7,0,2.56.85,2.56,2.56v6.3h-4.21v-5.31h-5.15v5.1l8.45,7.96c.61.58.92,1.34.92,2.29v6.72Z"/>
    </g>
    <g>
      <path class="cls-5" d="M147.33,96.68h-1.89v-14.31c0-.2.07-.79.2-1.78l-3.7,13.97h-.4l-3.7-13.97c.13.99.2,1.58.2,1.78v14.31h-1.89v-22.6h1.86l3.67,14.7c.02.08.04.29.06.65,0-.14.02-.36.06-.65l3.67-14.7h1.86v22.6Z"/>
      <path class="cls-5" d="M158.6,96.68h-7.42v-22.6h7.34v1.78h-5.33v8.43h4.85v1.81h-4.85v8.81h5.42v1.78Z"/>
      <path class="cls-5" d="M171.29,92.6c0,1.19-.39,2.17-1.18,2.94-.78.77-1.77,1.15-2.97,1.15h-5.17v-22.6h5.17c1.2,0,2.2.38,2.98,1.15.78.77,1.17,1.75,1.17,2.94v14.43ZM169.28,92.39v-14.05c0-.74-.23-1.34-.7-1.8s-1.07-.69-1.81-.69h-2.79v19.05h2.67c.78,0,1.41-.22,1.9-.67.49-.45.73-1.06.73-1.84Z"/>
      <path class="cls-5" d="M177.17,96.68h-2.01v-22.6h2.01v22.6Z"/>
      <path class="cls-5" d="M190.23,95.08c0,.47-.15.86-.46,1.16-.31.3-.7.45-1.17.45h-5.82c-.47,0-.86-.15-1.16-.45-.3-.3-.45-.68-.45-1.16v-19.4c0-.47.15-.86.45-1.16.3-.3.68-.45,1.16-.45h5.82c.47,0,.86.15,1.17.45.31.3.46.68.46,1.16v5.26h-2.02v-5.08h-5.03v19.05h5.03v-5.56h2.02v5.73Z"/>
      <path class="cls-5" d="M196.1,96.68h-2.01v-22.6h2.01v22.6Z"/>
      <path class="cls-5" d="M209.43,96.68h-1.39l-6.04-16.62v16.62h-1.89v-22.6h1.5l5.92,16.34v-16.34h1.89v22.6Z"/>
      <path class="cls-5" d="M222.39,96.68h-1.99l-.79-5.03h-4.49l-.79,5.03h-1.94v-.06l4.03-22.6h1.98l4,22.66ZM219.34,89.88l-1.98-12.25-1.99,12.25h3.97Z"/>
      <path class="cls-5" d="M233.49,96.68h-2.01v-22.6h2.01v22.6Z"/>
      <path class="cls-5" d="M246.81,96.68h-1.39l-6.04-16.62v16.62h-1.89v-22.6h1.5l5.92,16.34v-16.34h1.89v22.6Z"/>
      <path class="cls-5" d="M258.45,75.86h-3.5v20.83h-2.01v-20.83h-3.52v-1.78h9.03v1.78Z"/>
      <path class="cls-5" d="M268.46,96.68h-7.42v-22.6h7.34v1.78h-5.33v8.43h4.85v1.81h-4.85v8.81h5.42v1.78Z"/>
      <path class="cls-5" d="M281.45,96.68h-2.11l-4.2-12.1.27-.4h3.58v-8.32h-5.16v20.83h-2.01v-22.6h7.57c.47,0,.86.15,1.16.45.3.3.45.68.45,1.16v8.58c0,1.09-.73,1.63-2.2,1.63-.14,0-.36,0-.64-.02-.28-.01-.48-.02-.61-.02,1.3,3.6,2.59,7.21,3.89,10.83Z"/>
      <path class="cls-5" d="M294.01,96.68h-1.39l-6.04-16.62v16.62h-1.89v-22.6h1.5l5.92,16.34v-16.34h1.89v22.6Z"/>
      <path class="cls-5" d="M306.97,96.68h-1.99l-.79-5.03h-4.49l-.79,5.03h-1.94v-.06l4.03-22.6h1.98l4,22.66ZM303.92,89.88l-1.98-12.25-1.99,12.25h3.97Z"/>
      <path class="cls-5" d="M326.28,74.21l-9.56,22.47h-1.92v-.12l9.56-22.49h1.92v.13Z"/>
      <path class="cls-5" d="M346.18,96.68h-1.89v-14.31c0-.2.07-.79.2-1.78l-3.7,13.97h-.4l-3.7-13.97c.13.99.2,1.58.2,1.78v14.31h-1.89v-22.6h1.86l3.67,14.7c.02.08.04.29.06.65,0-.14.02-.36.06-.65l3.67-14.7h1.86v22.6Z"/>
      <path class="cls-5" d="M357.45,96.68h-7.42v-22.6h7.34v1.78h-5.33v8.43h4.85v1.81h-4.85v8.81h5.42v1.78Z"/>
      <path class="cls-5" d="M370.14,92.6c0,1.19-.39,2.17-1.18,2.94-.79.77-1.77,1.15-2.97,1.15h-5.17v-22.6h5.17c1.2,0,2.2.38,2.98,1.15.78.77,1.17,1.75,1.17,2.94v14.43ZM368.13,92.39v-14.05c0-.74-.23-1.34-.7-1.8s-1.07-.69-1.81-.69h-2.79v19.05h2.67c.78,0,1.41-.22,1.9-.67.49-.45.73-1.06.73-1.84Z"/>
      <path class="cls-5" d="M376.02,96.68h-2.01v-22.6h2.01v22.6Z"/>
      <path class="cls-5" d="M389.08,95.08c0,.47-.15.86-.46,1.16-.31.3-.7.45-1.17.45h-5.82c-.47,0-.86-.15-1.16-.45s-.45-.68-.45-1.16v-19.4c0-.47.15-.86.45-1.16.3-.3.68-.45,1.16-.45h5.82c.47,0,.86.15,1.17.45.31.3.46.68.46,1.16v5.26h-2.02v-5.08h-5.03v19.05h5.03v-5.56h2.02v5.73Z"/>
      <path class="cls-5" d="M394.95,96.68h-2.01v-22.6h2.01v22.6Z"/>
      <path class="cls-5" d="M408.28,96.68h-1.39l-6.04-16.62v16.62h-1.89v-22.6h1.5l5.92,16.34v-16.34h1.89v22.6Z"/>
      <path class="cls-5" d="M421.24,96.68h-1.99l-.79-5.03h-4.49l-.79,5.03h-1.94v-.06l4.03-22.6h1.98l4,22.66ZM418.19,89.88l-1.98-12.25-1.99,12.25h3.97Z"/>
      <path class="cls-5" d="M439.27,95.08c0,.47-.15.86-.46,1.16-.31.3-.7.45-1.17.45h-5.82c-.47,0-.86-.15-1.16-.45s-.45-.68-.45-1.16v-19.4c0-.47.15-.86.45-1.16.3-.3.68-.45,1.16-.45h5.82c.47,0,.86.15,1.17.45.31.3.46.68.46,1.16v5.26h-2.02v-5.08h-5.03v19.05h5.03v-5.56h2.02v5.73Z"/>
      <path class="cls-5" d="M452.64,96.68h-2.11l-4.2-12.1.27-.4h3.58v-8.32h-5.16v20.83h-2.01v-22.6h7.57c.47,0,.86.15,1.16.45.3.3.45.68.45,1.16v8.58c0,1.09-.73,1.63-2.2,1.63-.14,0-.36,0-.64-.02-.28-.01-.48-.02-.61-.02,1.3,3.6,2.6,7.21,3.89,10.83Z"/>
      <path class="cls-5" d="M460.31,69.47l-3.54,3.34h-1.34v-.09l2.17-3.31h2.72v.06ZM458,96.68h-2.01v-22.6h2.01v22.6Z"/>
      <path class="cls-5" d="M469.8,75.86h-3.5v20.83h-2.01v-20.83h-3.52v-1.78h9.03v1.78Z"/>
      <path class="cls-5" d="M474.51,96.68h-2.01v-22.6h2.01v22.6Z"/>
      <path class="cls-5" d="M487.57,95.08c0,.47-.15.86-.46,1.16-.31.3-.7.45-1.17.45h-5.82c-.47,0-.86-.15-1.16-.45s-.45-.68-.45-1.16v-19.4c0-.47.15-.86.45-1.16.3-.3.68-.45,1.16-.45h5.82c.47,0,.86.15,1.17.45.31.3.46.68.46,1.16v5.26h-2.02v-5.08h-5.03v19.05h5.03v-5.56h2.02v5.73Z"/>
      <path class="cls-5" d="M500.43,96.68h-1.99l-.79-5.03h-4.49l-.79,5.03h-1.94v-.06l4.03-22.6h1.98l4,22.66ZM497.39,89.88l-1.98-12.25-1.99,12.25h3.97Z"/>
    </g>
  </g>
  <g>
    <path class="cls-1" d="M34.82,19.66c-18.16,12.39-27.43,35.31-21.43,57.75,7.59,28.41,36.78,45.29,65.19,37.69,23.22-6.21,38.72-26.82,39.48-49.66-3.22,18.74-16.99,34.83-36.56,40.06-26.81,7.17-54.36-8.76-61.53-35.57-5.03-18.83,1.32-38.03,14.85-50.27h0Z"/>
    <path class="cls-2" d="M94.29,93.15c15.33-10.45,23.15-29.79,18.09-48.73-6.41-23.97-31.04-38.21-55.01-31.8-19.59,5.24-32.68,22.64-33.31,41.9,2.72-15.81,14.34-29.39,30.85-33.8,22.63-6.05,45.87,7.39,51.92,30.02,4.25,15.89-1.12,32.09-12.53,42.42h0Z"/>
    <g>
      <path class="cls-3" d="M64.83,32.74h0c-6.3,0-12.61,0-18.91,0-.32,0-.65,0-.97.06-1.33.24-2.06,1.16-2.04,2.55.02,1.31.77,2.22,2.07,2.39.47.06.64.21.73.68.14.8.62,1.43,1.41,1.67,1.05,0,3.37.18,3.53.18.72,0,1.03.15,1.06.95.08,2.64.53,5.22,1.33,7.75.94,2.95,2.54,5.46,4.79,7.57.78.73,1.59,1.44,2.34,2.21,1.99,2.04,2.72,4.61,2.21,7.04.14.81.14,2.05.14,2.67.32-.57.56-1.2.71-1.89.74-3.52-.05-6.55-2.8-9-1.67-1.49-3.34-3-4.56-4.91-1.79-2.8-2.57-5.93-2.98-9.18-.09-.74-.11-1.49-.21-2.23-.09-.69.08-.97.86-.96,5.63.02,11.26.02,16.89.01,0-.49.06-3.35.07-3.63.63-1.19,2.16-3.09,3.77-3.93-3.15,0-6.3,0-9.45,0Z"/>
      <g>
        <path class="cls-3" d="M86.71,93.24s0-.02,0-.03c-.02-1.31-.77-2.22-2.07-2.39-.17-.02-.29-.06-.4-.11-.06-.04-.12-.09-.16-.15-.02-.02-.03-.04-.05-.06-.05-.09-.09-.21-.12-.37-.13-.75-.57-1.35-1.28-1.62-.05-.02-.11-.05-.17-.06-.03-.02-.16-.03-.35-.04-.96,0-3.6,0-4.05,0-.18-.24-.18-.79-.2-1.18-.24-4.26-1.03-8.37-3.4-12.03-1.12-1.74-2.62-3.13-4.14-4.51-1.38-1.26-2.65-2.6-3.03-4.53-.54-2.79-.04-5.28,2.04-7.35.7-.69,2.52-2.33,2.55-2.38,0-.15,0-1.23,0-1.46-.21.17-1.78,1.77-2.2,2.11-1.58,1.28-2.91,2.81-3.36,4.89-.76,3.56.08,6.61,2.87,9.07,2.03,1.79,3.98,3.64,5.22,6.11,1.66,3.29,2.24,6.82,2.46,10.44.09.77-.08.81-.29.8-3.91.02-11.01.02-14.12.02,0,.32.02,3.03,0,4.4-.04.31-.08.59-.15.84-.13.5-.31.94-.57,1.27-.3.38-.7.68-1.2.89,1.4,0,2.8-.05,4.19-.05,1.12,0,2.25,0,3.37.01,0,.02,0,.03,0,.05,4.76,0,9.53,0,14.29,0,.06,0,.13,0,.19,0,.36,0,.71,0,1.07,0,.32,0,.65,0,.97-.06,1.19-.21,1.9-.98,2.02-2.13.02-.13.02-.26.02-.39Z"/>
        <path class="cls-3" d="M62.32,58.16c1.34,1.57,2.09,3.37,2.11,5.42,0,.7-.04,6.9.01,9.29,0,.64,0,1.28,0,1.92-.14,2.11-.9,3.92-2.21,5.5.07.08.15.22.16.26s.08.28.1.63c0,.46,0,6.35,0,6.6,2.11,0,10.76,0,11.26,0-.75-1.51-1.71-2.89-2.95-4.12-1.18-1.16-2.47-2.21-3.55-3.48-1.34-1.57-2.09-3.37-2.11-5.42,0-.47,0-.94,0-1.41.07-2.91.05-5.83-.02-8.74-.08-3.15,1.09-5.67,3.39-7.75,1.18-1.07,2.37-2.13,3.39-3.36,1.63-1.96,2.63-4.21,3.22-6.8-2.31,0-4.55,0-6.79,0-4.32,0-8.65.02-12.97-.02-.82,0-.9.24-.69.93.81,2.69,2.09,5.09,4.11,7.08,1.18,1.16,2.47,2.21,3.55,3.48Z"/>
      </g>
    </g>
    <g>
      <path class="cls-4" d="M62.39,80.53c-.21-.46-.7-.71-1.2-.6-.47.1-.8.52-.8,1.03,0,1.95,0,3.9,0,5.85h0c0,1.9,0,3.8,0,5.69,0,.23-.03.46-.08.68-.1.44-.36.67-.79.67-2.29,0-4.58.01-6.88-.03-1.01-.02-1.94-.38-2.73-1.03-1.03-.85-1.62-1.98-1.99-3.23-.76-2.55-.66-5.13-.28-7.72.42-2.8,1.25-5.49,2.49-8.04,1.14-2.34,2.54-4.5,4.56-6.19,1.37-1.15,2.91-1.93,4.76-2.01.54-.02.74.27.85.64.06.2.07.43.08.64,0,.96,0,1.91,0,2.87,0,.15,0,.3.05.45.07.2.19.36.34.48.02-.01.98-1.1,1.17-1.35s.47-.64.56-.8c.01-.8.02-1.59-.06-2.38-.16-1.46-1.36-2.71-2.87-2.67-1.84.05-3.49.62-5.01,1.61-2.08,1.35-3.66,3.19-4.94,5.29-2.61,4.25-4.05,8.88-4.34,13.86-.13,2.3.08,4.57.89,6.76,1.2,3.22,3.71,4.98,7.15,4.98,2.08,0,4.15,0,6.23,0,.49,0,.96-.09,1.39-.34,1.11-.67,1.54-1.72,1.55-2.96.01-3.85,0-7.69,0-11.54,0-.2-.02-.41-.1-.6Z"/>
      <path class="cls-4" d="M64.02,73.52c.15-.16,1.11-1.94,1.11-2.11,0-.85,0-1.69,0-2.54,0-1.19,0-2.38,0-3.57,0-.21.02-.55-.03-.8-.11-.42-.59-.34-.67-.12,0,.21.03.97.04,1.41.01,1.07,0,1.94-.05,2.66s-.11,1.27-.2,1.71c-.13.56-.9,1.58-.97,1.66-1.42,1.52-2.86,3.02-4.24,4.57-.63.7-1.33,1.23-2.2,1.59-.71.3-1.4.65-2.09.99-.41.21-.57.62-.44,1.02.14.42.51.65.95.6.16-.02.3-.1.44-.16.67-.32,1.35-.64,2.07-.98,0,.15,0,.25,0,.35,0,.72,0,1.44,0,2.16.01.53.4.86.93.83.48-.03.78-.39.79-.95,0-1.06,0-2.11,0-3.17,0-.18.05-.31.17-.45,1.47-1.57,2.94-3.15,4.4-4.73Z"/>
    </g>
    <path class="cls-4" d="M83.79,36.46c-1.46-2.75-3.95-4.47-6.47-4.49h-.05c-1.76,0-4.36.79-6.68,4.53l-.09.15v.18c-.02.72-.04,1.46-.04,2.22v1.47s.44,0,.44,0h.06c.22,0,.43,0,.64,0h.17s0-.97,0-.97c0-.85.02-1.69.03-2.5,1.98-3.1,4.05-3.76,5.46-3.76.02,0,.04,0,.05,0,2.05.02,4.09,1.48,5.33,3.8.47.88,1.45,3.13,1.03,5.91h-3.29l-2.12-3.77c-.1-.18-.29-.28-.5-.28h0c-.21,0-.39.11-.49.29l-2.05,3.77h-4.46c-.34,0-.64,0-.92.37l-.46.61-.21-.44c-.1-.2-.33-.3-.5-.3h-.6c-.37,0-.56.29-.56.58s.19.57.56.57h.23l.45.96c.08.17.22.27.4.29.02,0,.04,0,.06,0,.2,0,.4-.1.53-.26l.94-1.23h4.88c.21,0,.4-.11.5-.29l1.72-3.16,1.78,3.16c.1.17.29.29.5.29h3.37l-.12.43c-.24.7-.57,1.37-.97,2.01-1.9,2.94-9.81,8.02-10.4,8.4,0,.09,0,1.46,0,1.46l.23-.12c5.44-2.75,9.13-5.7,11.28-9.03.47-.72.84-1.5,1.12-2.33l.26-.9v-.03c.59-2.5.23-5.26-1-7.56Z"/>
  </g>
</svg>