<?xml version="1.0" encoding="UTF-8"?>
<svg id="Capa_3" data-name="Capa 3" xmlns="http://www.w3.org/2000/svg" viewBox="0 0 860.11 612">
  <defs>
    <style>
      .cls-1 {
        fill: #fff;
      }
    </style>
  </defs>
  <path class="cls-1" d="M480.98,357.69c-81.62,21.82-165.47-26.66-187.28-108.28-15.33-57.33,4.03-115.76,45.21-153.02-55.29,37.7-83.5,107.48-65.24,175.79,23.12,86.49,111.96,137.85,198.45,114.73,70.67-18.89,117.88-81.65,120.18-151.16-9.81,57.04-51.72,106.01-111.3,121.94Z"/>
  <path class="cls-1" d="M400.02,99.62c68.87-18.41,139.63,22.5,158.04,91.37,12.93,48.38-3.4,97.68-38.15,129.12,46.65-31.81,70.46-90.69,55.05-148.33-19.51-72.98-94.48-116.32-167.45-96.81-59.63,15.94-99.47,68.9-101.41,127.55,8.28-48.13,43.64-89.46,93.92-102.89Z"/>
  <path class="cls-1" d="M68.1,418.06h-17.94v58.85h17.94c3.48,0,6.25-.98,8.31-2.95,2.06-1.97,3.08-4.68,3.08-8.14v-36.59c0-3.46-1.03-6.19-3.08-8.18-2.06-1.99-4.83-2.99-8.31-2.99ZM70.66,464.35c0,3.33-1.79,5-5.38,5h-6.32v-43.74h6.54c3.43,0,5.15,1.64,5.15,4.93v33.81Z"/>
  <path class="cls-1" d="M97.54,444.27v5.3l9.7,27.34h9.18l-9.7-26.66c2.91,0,4.81-.19,5.72-.56,1.68-.73,2.52-2.33,2.52-4.81v-21.4c0-3.61-1.77-5.42-5.3-5.42h-23.35v58.85h8.8v-51.29h11.09v18.65h-8.65Z"/>
  <rect class="cls-1" x="121.12" y="467.81" width="8.46" height="9.1"/>
  <path class="cls-1" d="M159.71,418.06h-18.39c-3.56,0-5.34,1.81-5.34,5.42v48.06c0,3.59,1.74,5.38,5.23,5.38h18.5c3.58,0,5.38-1.79,5.38-5.38v-26.14h-15.38v7.48h6.54v16.47h-11.47v-43.74h11.47v10.42h8.84v-12.56c0-3.61-1.79-5.42-5.38-5.42Z"/>
  <path class="cls-1" d="M193.21,476.91h8.72l-11.32-58.93h-9.25l-11.39,58.78v.15h8.69l1.77-11.17h11.02l1.77,11.17ZM181.59,458.19l4.32-26.55,4.29,26.55h-8.61Z"/>
  <path class="cls-1" d="M233.71,449.2c-.18-.17-1.76-1.18-4.74-3.01,2.88-1.78,4.41-2.75,4.59-2.9,1.25-1.1,1.88-2.66,1.88-4.66v-15.15c0-3.61-1.74-5.42-5.23-5.42h-23.35v58.85h23.5c3.58,0,5.38-1.79,5.38-5.38v-17.49c0-2.06-.68-3.67-2.03-4.85ZM215.66,425.47h11.02v14.25l-4.25,3.01h-6.77v-17.26ZM226.91,469.51h-11.24v-19.63h6.92l4.32,2.86v16.77Z"/>
  <path class="cls-1" d="M253.91,444.27v5.3l9.7,27.34h9.18l-9.7-26.66c2.91,0,4.81-.19,5.72-.56,1.68-.73,2.52-2.33,2.52-4.81v-21.4c0-3.61-1.77-5.42-5.3-5.42h-23.35v58.85h8.8v-51.29h11.09v18.65h-8.65Z"/>
  <rect class="cls-1" x="278.31" y="418.06" width="8.8" height="58.85"/>
  <polygon class="cls-1" points="318.51 425.85 318.51 418.06 294.33 418.06 294.33 476.91 318.74 476.91 318.74 469.13 303.13 469.13 303.13 450.67 316.37 450.67 316.37 443.03 303.13 443.03 303.13 425.85 318.51 425.85"/>
  <polygon class="cls-1" points="324.76 418.06 324.76 476.91 347.88 476.91 347.88 469.05 333.56 469.05 333.56 418.06 324.76 418.06"/>
  <path class="cls-1" d="M398.09,436.04v-12.56c0-3.61-1.79-5.42-5.38-5.42h-18.39c-3.56,0-5.34,1.81-5.34,5.42v48.06c0,3.59,1.74,5.38,5.23,5.38h18.5c3.58,0,5.38-1.79,5.38-5.38v-26.14h-15.38v7.48h6.54v16.47h-11.47v-43.74h11.47v10.42h8.84Z"/>
  <polygon class="cls-1" points="431.56 405.24 420.76 405.24 414.29 415.2 414.29 415.5 420.61 415.5 431.56 405.58 431.56 405.24"/>
  <path class="cls-1" d="M434.79,471.54v-48.06c0-3.61-1.78-5.42-5.34-5.42h-19.1c-3.49,0-5.23,1.81-5.23,5.42v48.06c0,3.59,1.74,5.38,5.23,5.38h19.1c3.56,0,5.34-1.79,5.34-5.38ZM425.99,469.36h-12.07v-43.74h12.07v43.74Z"/>
  <path class="cls-1" d="M468.97,447.88v29.03h8.46v-58.85h-8.31l-9.25,32.53c-.15,1.15-.23,2.04-.23,2.67-.05-1.43-.13-2.32-.23-2.67l-9.25-32.53h-8.31v58.85h8.46v-29.03c0-1.48-.18-3.61-.53-6.39l7.63,30.05h4.48l7.6-30.05c-.35,2.73-.53,4.86-.53,6.39Z"/>
  <polygon class="cls-1" points="508.65 425.85 508.65 418.06 484.47 418.06 484.47 476.91 508.87 476.91 508.87 469.13 493.27 469.13 493.27 450.67 506.5 450.67 506.5 443.03 493.27 443.03 493.27 425.85 508.65 425.85"/>
  <polygon class="cls-1" points="539.78 423.14 539.78 418.06 514.14 418.06 514.14 426 529.29 426 512.82 472.21 512.82 476.91 539.86 476.91 539.86 468.98 523.35 468.98 539.78 423.14"/>
  <path class="cls-1" d="M589.24,450.1v-26.62c0-3.61-1.79-5.42-5.38-5.42h-23.05v58.85h8.8v-21.32h14.25c3.58,0,5.38-1.83,5.38-5.49ZM580.36,448.03h-10.76v-22.41h10.76v22.41Z"/>
  <path class="cls-1" d="M603.79,465.74h11.02l1.77,11.17h8.72l-11.32-58.93h-9.25l-11.39,58.78v.15h8.69l1.77-11.17ZM609.28,431.64l4.29,26.55h-8.61l4.32-26.55Z"/>
  <polygon class="cls-1" points="639.02 418.06 630.23 418.06 630.23 476.91 653.35 476.91 653.35 469.05 639.02 469.05 639.02 418.06"/>
  <path class="cls-1" d="M667.83,417.99l-11.39,58.78v.15h8.69l1.77-11.17h11.02l1.77,11.17h8.72l-11.32-58.93h-9.25ZM668.06,458.19l4.32-26.55,4.29,26.55h-8.61Z"/>
  <path class="cls-1" d="M698.55,476.91h18.35c3.58,0,5.38-1.79,5.38-5.38v-14.55h-8.76v12.37h-11.39v-43.74h11.39v11.62h8.76v-13.76c0-3.61-1.79-5.42-5.38-5.42h-18.35c-3.49,0-5.23,1.81-5.23,5.42v48.06c0,3.59,1.74,5.38,5.23,5.38Z"/>
  <rect class="cls-1" x="729.35" y="418.06" width="8.8" height="58.85"/>
  <path class="cls-1" d="M775.04,471.54v-48.06c0-3.61-1.78-5.42-5.34-5.42h-19.1c-3.49,0-5.23,1.81-5.23,5.42v48.06c0,3.59,1.74,5.38,5.23,5.38h19.1c3.56,0,5.34-1.79,5.34-5.38ZM766.24,469.36h-12.07v-43.74h12.07v43.74Z"/>
  <path class="cls-1" d="M810.32,436.56v-13.16c0-3.56-1.78-5.34-5.34-5.34h-17.71c-3.53,0-5.3,1.81-5.3,5.42v13.09c0,1.91.64,3.47,1.92,4.7l17.64,16.7v11.54h-10.76v-12h-8.8v14.03c0,3.59,1.77,5.38,5.3,5.38h17.71c3.56,0,5.34-1.79,5.34-5.38v-14.03c0-1.98-.64-3.57-1.92-4.78l-17.64-16.62v-10.64h10.76v11.09h8.8Z"/>
  <path class="cls-1" d="M61.58,525.21c-.08.6-.12,1.06-.12,1.36-.04-.74-.08-1.2-.12-1.36l-7.66-30.7h-3.89v47.19h3.95v-29.88c0-.4-.14-1.64-.42-3.71l7.72,29.16h.84l7.72-29.16c-.28,2.05-.42,3.29-.42,3.71v29.88h3.95v-47.19h-3.89l-7.66,30.7Z"/>
  <polygon class="cls-1" points="85.35 519.6 95.48 519.6 95.48 515.83 85.35 515.83 85.35 498.22 96.48 498.22 96.48 494.51 81.16 494.51 81.16 541.71 96.66 541.71 96.66 538 85.35 538 85.35 519.6"/>
  <path class="cls-1" d="M114.49,494.51h-10.8v47.19h10.8c2.49,0,4.56-.8,6.2-2.4,1.64-1.6,2.46-3.64,2.46-6.14v-30.12c0-2.49-.81-4.54-2.44-6.14-1.63-1.6-3.7-2.4-6.21-2.4ZM118.95,532.75c0,1.63-.51,2.91-1.52,3.85-1.02.93-2.34,1.4-3.97,1.4h-5.58v-39.77h5.82c1.55,0,2.81.48,3.78,1.43.97.96,1.46,2.21,1.46,3.75v29.34Z"/>
  <rect class="cls-1" x="131.24" y="494.51" width="4.19" height="47.19"/>
  <path class="cls-1" d="M159.3,494.51h-12.15c-.98,0-1.79.31-2.41.94-.62.62-.93,1.43-.93,2.41v40.5c0,.98.31,1.79.93,2.41.62.62,1.43.94,2.41.94h12.15c.98,0,1.8-.31,2.44-.94.64-.62.97-1.43.97-2.41v-11.97h-4.22v11.61h-10.49v-39.77h10.49v10.61h4.22v-10.98c0-.98-.32-1.79-.97-2.41-.64-.62-1.46-.94-2.44-.94Z"/>
  <rect class="cls-1" x="170.77" y="494.51" width="4.19" height="47.19"/>
  <polygon class="cls-1" points="198.82 528.62 186.46 494.51 183.32 494.51 183.32 541.71 187.27 541.71 187.27 507 199.88 541.71 202.77 541.71 202.77 494.51 198.82 494.51 198.82 528.62"/>
  <path class="cls-1" d="M217.35,494.39l-8.41,47.19v.12h4.04l1.66-10.49h9.38l1.66,10.49h4.16l-8.35-47.31h-4.13ZM215.18,527.5l4.16-25.57,4.13,25.57h-8.29Z"/>
  <rect class="cls-1" x="248.82" y="494.51" width="4.19" height="47.19"/>
  <polygon class="cls-1" points="276.88 528.62 264.51 494.51 261.38 494.51 261.38 541.71 265.33 541.71 265.33 507 277.93 541.71 280.83 541.71 280.83 494.51 276.88 494.51 276.88 528.62"/>
  <polygon class="cls-1" points="286.27 498.22 293.62 498.22 293.62 541.71 297.82 541.71 297.82 498.22 305.11 498.22 305.11 494.51 286.27 494.51 286.27 498.22"/>
  <polygon class="cls-1" points="314.71 519.6 324.85 519.6 324.85 515.83 314.71 515.83 314.71 498.22 325.84 498.22 325.84 494.51 310.52 494.51 310.52 541.71 326.02 541.71 326.02 538 314.71 538 314.71 519.6"/>
  <path class="cls-1" d="M346.3,519.13c.58.03,1.03.04,1.33.04,3.06,0,4.58-1.14,4.58-3.41v-17.91c0-.98-.31-1.79-.93-2.41-.62-.62-1.43-.94-2.41-.94h-15.8v47.19h4.19v-43.48h10.77v17.37h-7.48l-.57.84,8.77,25.27h4.4c-2.69-7.56-5.4-15.1-8.11-22.62.26,0,.68.01,1.27.05Z"/>
  <polygon class="cls-1" points="375.41 528.62 363.04 494.51 359.91 494.51 359.91 541.71 363.86 541.71 363.86 507 376.46 541.71 379.36 541.71 379.36 494.51 375.41 494.51 375.41 528.62"/>
  <path class="cls-1" d="M393.93,494.39l-8.41,47.19v.12h4.04l1.66-10.49h9.38l1.66,10.49h4.16l-8.35-47.31h-4.13ZM391.76,527.5l4.16-25.57,4.13,25.57h-8.29Z"/>
  <polygon class="cls-1" points="422.75 541.46 422.75 541.71 426.77 541.71 446.73 494.78 446.73 494.51 442.72 494.51 422.75 541.46"/>
  <path class="cls-1" d="M476.72,525.21c-.08.6-.12,1.06-.12,1.36-.04-.74-.08-1.2-.12-1.36l-7.66-30.7h-3.89v47.19h3.95v-29.88c0-.4-.14-1.64-.42-3.71l7.72,29.16h.84l7.72-29.16c-.28,2.05-.42,3.29-.42,3.71v29.88h3.95v-47.19h-3.89l-7.66,30.7Z"/>
  <polygon class="cls-1" points="500.5 519.6 510.63 519.6 510.63 515.83 500.5 515.83 500.5 498.22 511.63 498.22 511.63 494.51 496.31 494.51 496.31 541.71 511.81 541.71 511.81 538 500.5 538 500.5 519.6"/>
  <path class="cls-1" d="M529.64,494.51h-10.79v47.19h10.79c2.49,0,4.56-.8,6.2-2.4,1.64-1.6,2.46-3.64,2.46-6.14v-30.12c0-2.49-.81-4.54-2.44-6.14-1.63-1.6-3.7-2.4-6.21-2.4ZM534.1,532.75c0,1.63-.51,2.91-1.52,3.85-1.02.93-2.34,1.4-3.97,1.4h-5.58v-39.77h5.82c1.55,0,2.81.48,3.78,1.43s1.46,2.21,1.46,3.75v29.34Z"/>
  <rect class="cls-1" x="546.39" y="494.51" width="4.19" height="47.19"/>
  <path class="cls-1" d="M574.44,494.51h-12.15c-.99,0-1.79.31-2.41.94-.62.62-.93,1.43-.93,2.41v40.5c0,.98.31,1.79.93,2.41.62.62,1.43.94,2.41.94h12.15c.98,0,1.8-.31,2.44-.94.64-.62.97-1.43.97-2.41v-11.97h-4.22v11.61h-10.49v-39.77h10.49v10.61h4.22v-10.98c0-.98-.32-1.79-.97-2.41-.64-.62-1.46-.94-2.44-.94Z"/>
  <rect class="cls-1" x="585.91" y="494.51" width="4.19" height="47.19"/>
  <polygon class="cls-1" points="613.97 528.62 601.6 494.51 598.47 494.51 598.47 541.71 602.42 541.71 602.42 507 615.02 541.71 617.92 541.71 617.92 494.51 613.97 494.51 613.97 528.62"/>
  <path class="cls-1" d="M632.49,494.39l-8.41,47.19v.12h4.04l1.66-10.49h9.38l1.66,10.49h4.16l-8.35-47.31h-4.13ZM630.32,527.5l4.16-25.57,4.13,25.57h-8.29Z"/>
  <path class="cls-1" d="M679.23,494.51h-12.15c-.99,0-1.79.31-2.41.94-.62.62-.93,1.43-.93,2.41v40.5c0,.98.31,1.79.93,2.41.62.62,1.43.94,2.41.94h12.15c.98,0,1.8-.31,2.44-.94.64-.62.97-1.43.97-2.41v-11.97h-4.22v11.61h-10.49v-39.77h10.49v10.61h4.22v-10.98c0-.98-.32-1.79-.97-2.41-.64-.62-1.46-.94-2.44-.94Z"/>
  <path class="cls-1" d="M703.69,519.13c.58.03,1.02.04,1.33.04,3.06,0,4.58-1.14,4.58-3.41v-17.91c0-.98-.31-1.79-.94-2.41-.62-.62-1.43-.94-2.41-.94h-15.8v47.19h4.19v-43.48h10.77v17.37h-7.48l-.57.84,8.77,25.27h4.4c-2.69-7.56-5.4-15.1-8.11-22.62.26,0,.68.01,1.27.05Z"/>
  <polygon class="cls-1" points="716.37 491.68 716.37 491.86 719.17 491.86 726.56 484.89 726.56 484.77 720.89 484.77 716.37 491.68"/>
  <rect class="cls-1" x="717.55" y="494.51" width="4.19" height="47.19"/>
  <polygon class="cls-1" points="727.51 498.22 734.87 498.22 734.87 541.71 739.06 541.71 739.06 498.22 746.35 498.22 746.35 494.51 727.51 494.51 727.51 498.22"/>
  <rect class="cls-1" x="752" y="494.51" width="4.19" height="47.19"/>
  <path class="cls-1" d="M780.06,494.51h-12.15c-.99,0-1.79.31-2.41.94-.62.62-.93,1.43-.93,2.41v40.5c0,.98.31,1.79.93,2.41.62.62,1.43.94,2.41.94h12.15c.98,0,1.8-.31,2.44-.94.64-.62.97-1.43.97-2.41v-11.97h-4.22v11.61h-10.49v-39.77h10.49v10.61h4.22v-10.98c0-.98-.32-1.79-.97-2.41-.64-.62-1.46-.94-2.44-.94Z"/>
  <path class="cls-1" d="M797.83,494.39l-8.41,47.19v.12h4.04l1.66-10.49h9.38l1.66,10.49h4.16l-8.35-47.31h-4.13ZM795.66,527.5l4.16-25.57,4.13,25.57h-8.29Z"/>
  <path class="cls-1" d="M483.85,328.22c.2,0,.39,0,.59,0,1.09,0,2.18,0,3.26,0,.98,0,1.98,0,2.95-.17,3.63-.65,5.77-2.99,6.14-6.5.05-.39.07-.78.06-1.18,0-.03,0-.05,0-.08-.06-4-2.33-6.75-6.3-7.29-.51-.07-.9-.17-1.2-.33-.18-.13-.35-.27-.5-.44-.05-.06-.09-.12-.14-.18-.16-.29-.28-.64-.37-1.12-.41-2.29-1.73-4.12-3.9-4.92-.16-.07-.33-.14-.5-.2-.11-.05-.48-.09-1.05-.11-2.93-.03-10.96-.03-12.33-.02-.56-.73-.55-2.4-.62-3.58-.74-12.97-3.13-25.48-10.35-36.63-3.42-5.29-7.99-9.52-12.59-13.72-4.2-3.84-8.08-7.9-9.22-13.78-1.65-8.49-.13-16.07,6.22-22.37,2.12-2.1,7.69-7.1,7.78-7.25,0-.14,0-.55,0-1.06,0,.61,0,1.06,0,1.06l.7-.35c16.56-8.36,27.79-17.35,34.34-27.5,1.42-2.2,2.57-4.57,3.42-7.08l.79-2.75.03-.1c1.78-7.62.66-16.01-3.08-23.02-4.46-8.36-12.01-13.6-19.71-13.68h-.16c-2.64,0-5.88.58-9.34,2.52.09-.05.18-.1.27-.15-9.59,0-19.17,0-28.76,0h0c-19.19,0-38.38,0-57.57.02-.98,0-1.98,0-2.95.17-4.05.73-6.27,3.54-6.2,7.75.06,4,2.33,6.75,6.3,7.29,1.43.19,1.95.63,2.21,2.08.43,2.43,1.89,4.36,4.3,5.07,3.2-.03,10.25.56,10.74.56,2.18.03,3.15.47,3.23,2.89.26,8.03,1.6,15.9,4.04,23.58,2.85,8.97,7.73,16.62,14.58,23.04,2.38,2.23,4.84,4.39,7.12,6.72,6.07,6.2,8.29,14.02,6.72,21.42,0,.02,0,.05.01.08-.88-4-4.33-7.22-8.56-7.11-5.59.15-10.62,1.89-15.25,4.9-6.33,4.12-11.13,9.72-15.03,16.09-7.93,12.94-12.33,27.02-13.2,42.18-.4,7.01.24,13.91,2.72,20.56,3.65,9.79,11.31,15.15,21.76,15.16,6.32,0,12.64,0,18.96,0,1.11,0,2.17-.14,3.17-.53-.02,0-.03.02-.05.02,4.26-.02,8.51-.14,12.77-.15,3.42,0,6.85.02,10.27.04,0,.05,0,.09,0,.14,14.5,0,29,0,43.51,0ZM458.46,136.55c-.74.43-1.49.93-2.24,1.49.73-.56,1.48-1.06,2.24-1.49ZM418.31,327.71s.06-.02.08-.04c-.03.01-.06.03-.08.04ZM418.45,327.63c.81-.49,1.5-1.05,2.07-1.67-.59.64-1.27,1.2-2.07,1.67ZM420.63,325.85c.21-.23.39-.46.56-.7-.08.11-.15.23-.23.34-.1.13-.22.24-.33.37ZM422.62,281.36c.05.08.09.16.12.22-.04-.08-.08-.15-.12-.22ZM423.15,319.08c-.02.21-.06.39-.09.59.02-.34.05-.68.05-1.03.01-4.13.01-8.26.01-12.39,0,2.15.05,9.09.02,12.82ZM423.13,305.68c0-.92,0-1.84,0-2.76,0,.42,0,.7,0,.78,6.43,0,32.74,0,34.27,0-2.27-4.6-5.2-8.81-8.99-12.54-3.59-3.54-7.51-6.73-10.8-10.58-4.07-4.77-6.38-10.24-6.43-16.5-.01-1.43-.01-2.87-.02-4.31.18-7.59.15-15.18,0-22.77,0-.57,0-1.13,0-1.7,0-.63.05-1.62-.08-2.4-.17-9.46,3.4-17.06,10.33-23.32,3.59-3.25,7.2-6.48,10.31-10.23,4.96-5.97,8-12.82,9.79-20.7-7.04,0-13.85,0-20.66,0-13.16,0-26.32.07-39.47-.05-2.5-.02-2.73.74-2.1,2.84,2.48,8.18,6.36,15.49,12.51,21.55,3.59,3.54,7.51,6.73,10.8,10.58,4.07,4.77,6.38,10.24,6.43,16.5,0,1.23-.03,7.94-.04,14.82,0,0,0,.01,0,.02-.14,2.17-.35,3.88-.6,5.21-.39,1.7-2.73,4.8-2.96,5.04-4.33,4.62-8.71,9.19-12.92,13.92-1.91,2.14-4.05,3.75-6.69,4.85-2.17.9-4.26,1.97-6.36,3.02-1.25.63-1.74,1.89-1.34,3.12.42,1.27,1.55,1.99,2.88,1.83.48-.06.9-.29,1.33-.5,2.05-.97,4.11-1.95,6.3-2.99,0,.46,0,.77,0,1.07,0,2.2-.02,4.39.02,6.58.03,1.6,1.23,2.63,2.82,2.53,1.45-.09,2.39-1.18,2.4-2.89.03-3.21.02-6.43,0-9.64,0-.54.14-.95.52-1.36,4.48-4.78,8.95-9.57,13.39-14.39.17-.18.69-1.06,1.27-2.12,0,.05,0,.1,0,.14,0,1.94,0,3.89-.02,5.83-.44,6.42-2.73,11.93-6.74,16.73.05.06.11.13.16.21-.74-1.02-2.03-1.54-3.32-1.26-1.42.31-2.44,1.57-2.44,3.13-.02,5.93,0,11.86,0,17.79h0c0,5.78,0,11.55,0,17.33,0,.71-.08,1.39-.23,2.07-.3,1.35-1.1,2.04-2.4,2.04-6.98,0-13.96.03-20.93-.09-3.09-.05-5.9-1.17-8.32-3.14-3.15-2.58-4.93-6.02-6.06-9.83-2.3-7.75-2.02-15.63-.84-23.49,1.28-8.53,3.82-16.72,7.59-24.49,3.46-7.13,7.74-13.69,13.88-18.85,4.18-3.51,8.87-5.88,14.48-6.11,1.63-.07,2.26.83,2.58,1.95.18.62.23,1.3.23,1.95.02,2.91,0,5.82.01,8.72,0,.46-.02.92.15,1.38.22.61.59,1.1,1.04,1.47.06-.03,2.99-3.35,3.55-4.12.56-.77,1.42-1.94,1.71-2.43.03-1.46.03-2.92-.01-4.38.07,1.6.07,3.16.07,4.16.97-1.75,1.72-3.65,2.16-5.76,2.26-10.7-.15-19.92-8.52-27.39-5.09-4.54-10.16-9.12-13.87-14.96-5.43-8.54-7.83-18.05-9.06-27.94-.28-2.25-.33-4.54-.63-6.79-.28-2.11.25-2.94,2.63-2.93,17.14.07,34.27.06,51.41.04v.64s1.35.01,1.35.01h.18c.66-.02,1.31-.02,1.96-.01h.5s0-2.96,0-2.96c.01-2.6.05-5.16.11-7.61,6.02-9.43,12.32-11.45,16.62-11.45.06,0,.11,0,.17,0,6.23.06,12.45,4.5,16.22,11.56,1.43,2.69,4.4,9.54,3.14,18h-10.01l-6.47-11.49c-.3-.53-.88-.86-1.52-.86h-.01c-.64,0-1.2.33-1.5.87l-6.24,11.48h-13.58c-1.05,0-1.94,0-2.81,1.12l-1.41,1.85-.63-1.34c-.29-.62-1-.91-1.53-.91h-1.82c-1.12,0-1.71.88-1.71,1.75s.59,1.75,1.71,1.75h.71l1.38,2.93c.24.51.67.83,1.22.89.06,0,.12,0,.18,0,.6,0,1.23-.31,1.61-.81l2.86-3.74h14.87c.63,0,1.23-.35,1.52-.88l5.23-9.62,5.42,9.62c.3.53.89.87,1.52.87h10.25l-.37,1.29c-.73,2.13-1.72,4.18-2.96,6.11-5.78,8.95-29.85,24.41-31.67,25.57,0,.03,0,.13,0,.27v-.26c-.64.51-5.42,5.39-6.68,6.41-4.8,3.91-8.87,8.56-10.23,14.89-2.33,10.83.25,20.13,8.73,27.61,6.17,5.44,12.11,11.09,15.9,18.6,5.05,10,6.83,20.75,7.49,31.77.27,2.33-.26,2.46-.89,2.45-11.9.05-33.52.05-42.97.05Z"/>
</svg>