<svg id="line" height="512" viewBox="0 0 64 64" width="512" xmlns="http://www.w3.org/2000/svg"><path d="m53.55 30.543c7.0213-4.34982 4.00219-15.33807-4.38119-15.38376a8.33052 8.33052 0 0 0 -8.25913 7.34842 3.03511 3.03511 0 0 0 -3.3735 2.99924v4.22329l-.043-.028a5.09111 5.09111 0 0 1 -2.31445-4.27149v-15.7627a1.00012 1.00012 0 0 0 -2 .00006v15.7626a7.59609 7.59609 0 0 0 4.35754 6.68521l-.00012 2.1746-4.69922-3.39594a1.00189 1.00189 0 0 0 -1.14843-.0166l-5.22461 3.55572v-2.31738a7.59391 7.59391 0 0 0 4.35732-6.68569l.00008-15.76258a1.00012 1.00012 0 0 0 -2 .00006v15.7626a5.09241 5.09241 0 0 1 -2.31152 4.27051c-.124.22256-.00692-4.24014-.046-4.19628a3.02379 3.02379 0 0 0 -1.32609-2.501 2.98683 2.98683 0 0 0 -2.7754-.31446c-12.91013 5.09377-19.06736 14.49123-18.29979 27.93069.30637 5.49175 8.13433 6.12006 10.95114 2.20981a1.84749 1.84749 0 0 1 1.7227-.659c5.515.82963 9.12587-1.05807 9.72756-5.18749v-10.12983l5.76953-3.92682 5.30273 3.83166v10.22983c.60212 4.13472 4.20838 6.02378 9.73436 5.18262a1.84651 1.84651 0 0 1 1.72072.6543 6.56792 6.56792 0 0 0 5.29877 2.5078 5.16127 5.16127 0 0 0 5.64737-4.715c.46424-8.14632-1.68437-14.89248-6.38737-20.075zm-36.51582 19.64938a3.87506 3.87506 0 0 0 -3.57227 1.376c-1.59649 2.39533-7.12524 2.64992-7.40341-1.0616-.71182-12.48235 5.0206-21.21477 17.03818-25.956a1.01869 1.01869 0 0 1 1.36717.95412v8.15135c-1.27118.6012-2.55011 1.24261-3.80786 1.97955-.22022-.10138-.45148-.21765-.70972-.35455a10.93753 10.93753 0 0 0 -5.07027-1.48633 1 1 0 0 0 -.08985 1.998 8.61326 8.61326 0 0 1 3.91156 1.09143c-.53845.374-1.07043.76977-1.59186 1.19629a22.94908 22.94908 0 0 0 -3.82214 3.99188c-.38471-.02058-5.77471-.29189-5.11971 1.82779a1.00265 1.00265 0 0 0 1.27935.60359 8.45052 8.45052 0 0 1 2.51752-.45568 1.06369 1.06369 0 0 0 .19151 1.63733 1.00084 1.00084 0 0 0 1.36812-.3584 20.57523 20.57523 0 0 1 3.49316-4.46259 11.4 11.4 0 0 1 -.1084 2.30634.99976.99976 0 1 0 1.97852.28906 11.38556 11.38556 0 0 0 -.08807-4.15289 33.16667 33.16667 0 0 1 5.66816-3.42107v11.00463c-.69336 3.54687-4.41602 3.75683-7.42969 3.30175zm32.13482-33.0332a6.32915 6.32915 0 0 1 6.32226 6.32227c-.25729 8.1613-11.94859 8.42328-12.62493.36662a6.31988 6.31988 0 0 1 6.30267-6.68889zm8.77246 33.34766c-.27735 3.70907-5.80351 3.46641-7.40028 1.0546a3.8812 3.8812 0 0 0 -3.5714-1.3671c-3.01758.459-6.74121.252-7.4336-3.29883v-11.13141a33.70161 33.70161 0 0 1 5.679 3.49228 11.31992 11.31992 0 0 0 -.0989 4.20358.99976.99976 0 0 0 1.97852-.28906 11.33422 11.33422 0 0 1 -.10645-2.34747 21.323 21.323 0 0 1 3.49121 4.50372 1.01659 1.01659 0 1 0 1.561-1.27863 8.4351 8.4351 0 0 1 2.51717.45539 1.00263 1.00263 0 0 0 1.27929-.60352c.64962-2.12429-4.73702-1.84739-5.11534-1.82863a23.26891 23.26891 0 0 0 -5.36868-5.21376 8.58617 8.58617 0 0 1 3.86084-1.065 1 1 0 0 0 .95416-1.044c-.19929-2.36538-5.89794.334-6.11519.53317-.22588.11948-.433.22684-.62932.32059-1.22229-.73352-2.51776-1.40973-3.88733-2.06231v-8.03361a1.0158 1.0158 0 0 1 .45313-.85254.98064.98064 0 0 1 .93664-.09333 8.315 8.315 0 0 0 10.70607 6.86933c4.62789 4.83215 6.75545 11.24292 6.30941 19.07654z"/><path d="m49.169 24.44727a.99943.99943 0 0 0 1-1v-3.74219a1 1 0 0 0 -2 0v3.74219a.99942.99942 0 0 0 1 1z"/><path d="m49.16919 25.35229a.95269.95269 0 0 0 .00006 1.905.95269.95269 0 0 0 -.00006-1.905z"/></svg>