<svg id="Layer_1" enable-background="new 0 0 512.098 512.098" height="512" viewBox="0 0 512.098 512.098" width="512" xmlns="http://www.w3.org/2000/svg"><g><path d="m385.721 454.063-66.794-28.108c-6.946-2.923-11.435-9.667-11.435-17.183v-35.876l.851-.514h71.264c20.935 0 37.967-17.032 37.967-37.967v-122.235c0-41.772-15.648-80.991-44.2-111.148l24.472-32.692c2.939-6.471.938-10.469-6.004-11.995h-26.992l10.604-46.479c1.757-7.708-8.578-12.495-13.316-6.163l-44.185 59.029c-42.839-18.198-94.743-16.203-135.909 5.251l-29.257-50.646c-2.072-3.587-6.661-4.814-10.246-2.743-3.586 2.072-4.814 6.659-2.742 10.246l29.23 50.599c-3.355 2.134-6.649 4.393-9.87 6.788-3.323 2.472-4.015 7.17-1.543 10.494 3.286 3.428 6.784 3.942 10.494 1.543 2.754-2.048 5.568-3.985 8.43-5.822l10.298 17.827c3.038 3.796 6.453 4.71 10.246 2.743 3.586-2.072 4.814-6.659 2.742-10.246l-10.266-17.772c36.034-18.516 81.231-20.749 119.092-5.836l-6.608 8.829c-2.939 6.471-.937 10.469 6.004 11.994h26.991l-10.604 46.479c-1.699 7.453 8.335 12.82 13.316 6.163l26.489-35.387c24.783 27.099 38.336 61.916 38.336 98.944v122.234c0 12.664-10.303 22.967-22.967 22.967h-46.439c17.938-9.275 30.371-27.619 30.371-48.125v-17.366c0-4.142-3.357-7.5-7.5-7.5s-7.5 3.358-7.5 7.5v17.367c0 13.145-7.003 25.543-18.277 32.355l-54.112 32.697c-15.756 9.521-35.33 9.521-51.086 0l-54.113-32.696c-11.273-6.812-18.277-19.21-18.277-32.355v-39.494c68.917-24.13 26.691-80.797 70.708-94.387 19.831-6.192 45.481-18.53 59.299-42.574 8.769 29.78 36.123 59.376 65.859 66.725v52.576c0 4.142 3.357 7.5 7.5 7.5s7.5-3.358 7.5-7.5v-58.67c0-3.814-2.909-7.026-6.698-7.457-27.166-4.249-54.397-32.733-61.632-63.585-2.963-10.953-18.426-12.085-23.098-1.809-5.771 12.689-19.686 30.012-53.199 40.477-28.208 8.808-31.644 29.164-34.674 47.123-3.346 19.824-6.506 38.549-41.217 48.949-3.174.951-5.348 3.872-5.348 7.185v44.943c0 20.505 12.433 38.85 30.371 48.125h-36.28c-12.664 0-22.967-10.303-22.967-22.967v-122.238c0-32.718 10.525-63.676 30.438-89.526 2.528-3.281 1.917-7.991-1.364-10.518-3.283-2.529-7.992-1.917-10.519 1.365-21.952 28.497-33.555 62.62-33.555 98.679v122.234c0 20.935 17.032 37.967 37.967 37.967h61.105l3.21 1.94v34.052c0 7.521-4.492 14.268-11.446 17.188l-67.84 28.501c-22.689 8.328-41.597 24.984-53.255 46.917-4.327 8.143 8.36 16.226 13.246 7.04 10.051-18.91 26.18-31.873 45.657-40.061l68.001-28.569c12.536-5.266 20.637-17.44 20.637-31.017v-24.989c26.671 18.333 55.184 16.499 81.413-1.425v26.812c0 13.567 8.093 25.739 20.616 31.009l66.958 28.177c19.564 8.238 35.884 20.665 45.905 39.87 4.822 9.241 17.559 1.225 13.299-6.939-11.315-21.677-30.327-38.301-53.552-46.824zm-35.415-370.258c-1.423-1.785-3.581-2.824-5.863-2.824h-21.413l29.939-39.998-4.836 21.193c-.505 5.403 1.932 8.459 7.312 9.168h21.414l-29.94 39.998 4.836-21.193c.507-2.225-.025-4.56-1.449-6.344z"/><path d="m282.977 317.703c-8.275-4.563-17.697-4.564-25.972 0-3.829 2.2-7.657 2.199-11.486-.001-8.278-4.563-17.702-4.563-25.979 0-1.993 1.099-2.993 1.65-5.747 1.65-4.143 0-7.5 3.358-7.5 7.5.738 11.692 16.029 6.94 20.489 3.986 3.832-2.201 7.663-2.201 11.495 0 8.276 4.562 17.699 4.564 25.975-.001 3.827-2.199 7.654-2.199 11.481 0 4.469 2.959 19.747 7.703 20.486-3.986 0-4.142-3.357-7.5-7.5-7.5-2.751.002-3.751-.549-5.742-1.648z"/><path d="m255.686 40.382c4.143 0 7.5-3.358 7.5-7.5v-25.382c0-4.142-3.357-7.5-7.5-7.5s-7.5 3.358-7.5 7.5v25.382c0 4.142 3.357 7.5 7.5 7.5z"/><path d="m101.539 128.902c7.719 0 9.764-10.53 3.755-13.998l-45.52-26.265c-8.725-4.688-15.937 7.766-7.496 12.992 0 0 45.519 26.265 45.519 26.265 1.182.682 2.471 1.006 3.742 1.006z"/><path d="m462.574 91.387c-2.069-3.588-6.659-4.818-10.244-2.748l-46.618 26.899c-3.588 2.07-4.818 6.657-2.748 10.245 3.037 3.797 6.451 4.713 10.244 2.748l46.618-26.899c3.587-2.071 4.818-6.657 2.748-10.245z"/></g></svg>