<svg id="Capa_1" enable-background="new 0 0 512 512" height="512" viewBox="0 0 512 512" width="512" xmlns="http://www.w3.org/2000/svg"><g id="XMLID_273_"><path id="XMLID_280_" d="m256 220.898c-38.733 0-70.245 31.512-70.245 70.244 0 38.733 31.512 70.245 70.245 70.245s70.245-31.512 70.245-70.245c0-38.732-31.512-70.244-70.245-70.244zm0 120.49c-27.705 0-50.245-22.54-50.245-50.245s22.54-50.244 50.245-50.244 50.245 22.539 50.245 50.244-22.54 50.245-50.245 50.245z"/><path id="XMLID_557_" d="m256 261.061c-16.587 0-30.082 13.494-30.082 30.081s13.495 30.082 30.082 30.082 30.082-13.495 30.082-30.082c0-16.586-13.495-30.081-30.082-30.081zm0 40.164c-5.56 0-10.082-4.523-10.082-10.082s4.522-10.081 10.082-10.081 10.082 4.523 10.082 10.081c0 5.559-4.522 10.082-10.082 10.082z"/><path id="XMLID_627_" d="m371.918 100.408h-40.652v-90.408c0-5.523-4.478-10-10-10h-130.532c-5.523 0-10 4.477-10 10v90.408h-40.652c-66.168 0-120 53.832-120 120v281.592c0 5.522 4.478 10 10 10h451.836c5.522 0 10-4.478 10-10v-281.592c0-66.168-53.832-120-120-120zm-171.184-80.408h110.531v86.03l-55.265 51.014-55.266-51.014zm-100.326 472h-60.326v-170.775h60.326zm371.51 0h-60.326v-170.775h60.326zm0-190.775h-60.326v-40.204c0-5.523-4.478-10-10-10s-10 4.478-10 10v230.979h-271.184v-230.979c0-5.523-4.478-10-10-10-5.523 0-10 4.478-10 10v40.204h-60.326v-80.816c0-55.141 44.859-100 100-100h46.742l62.392 57.593c3.831 3.536 9.734 3.537 13.566 0l62.392-57.593h46.742c55.141 0 100 44.859 100 100v80.816z"/></g></svg>