<svg id="Capa_1" enable-background="new 0 0 512 512" height="512" viewBox="0 0 512 512" width="512" xmlns="http://www.w3.org/2000/svg"><g><g><path d="m371.122 100.885c-2.93-2.929-7.678-2.929-10.607 0l-65.38 65.38c-2.929 2.929-2.929 7.678 0 10.606 2.93 2.929 7.678 2.929 10.607 0l60.076-60.077 29.394 29.394-135.053 135.055-29.394-29.394 50.227-50.227c2.929-2.929 2.929-7.678 0-10.606-2.93-2.929-7.678-2.929-10.607 0l-55.53 55.531c-1.407 1.406-2.197 3.314-2.197 5.303s.79 3.897 2.197 5.303l40.001 40c1.464 1.464 3.384 2.197 5.303 2.197s3.839-.732 5.304-2.197l145.66-145.661c2.929-2.929 2.929-7.678 0-10.606z"/><path d="m236.827 322.677c1.919 0 3.839-.732 5.303-2.197 2.929-2.929 2.929-7.678 0-10.607l-39.998-39.998c-2.929-2.929-7.678-2.929-10.606 0-2.929 2.929-2.929 7.678 0 10.607l39.998 39.998c1.465 1.465 3.384 2.197 5.303 2.197z"/><path d="m396.085 191.025-185.62 185.621c-7.924 7.924-17.959 13.063-29.023 14.861l-22.827 3.719c-14.173 2.304-27.043 8.894-37.221 19.06l-40.147 40.155-23.683-23.683 11.897-11.897c2.929-2.929 2.929-7.678 0-10.606-2.929-2.929-7.678-2.929-10.606 0l-49.55 49.556c-5.996 5.995-9.297 13.966-9.297 22.445s3.302 16.45 9.297 22.445c5.995 5.997 13.966 9.299 22.444 9.299 8.479 0 16.45-3.302 22.445-9.297l77.803-77.807c7.937-7.927 17.973-13.067 29.026-14.864l22.827-3.719c14.187-2.306 27.057-8.897 37.22-19.06l185.622-185.621c2.929-2.929 2.929-7.678 0-10.606-2.929-2.929-7.677-2.929-10.607-.001zm-352.497 301.071c-3.162 3.162-7.367 4.904-11.839 4.904s-8.676-1.742-11.838-4.904-4.904-7.366-4.904-11.838 1.742-8.677 4.904-11.839l27.05-27.05 23.677 23.677z"/><path d="m503.893 65.255-57.141-57.141c-5.232-5.233-12.189-8.114-19.588-8.114s-14.357 2.882-19.589 8.114l-282.821 282.822c-10.163 10.163-16.753 23.033-19.059 37.217l-3.72 22.833c-1.796 11.05-6.936 21.087-14.86 29.02l-3.51 3.51c-2.929 2.929-2.93 7.677-.001 10.607 1.464 1.465 3.384 2.197 5.304 2.197 1.919 0 3.838-.732 5.303-2.196l3.514-3.513c10.163-10.175 16.753-23.044 19.056-37.215l3.72-22.833c1.798-11.062 6.937-21.096 14.86-29.02l244.471-244.47 75.103 75.103-34.11 34.11c-2.929 2.929-2.929 7.678 0 10.606 2.93 2.928 7.678 2.93 10.607 0l72.46-72.46c10.801-10.802 10.801-28.376.001-39.177zm-10.607 28.57-27.744 27.744-75.103-75.103 27.744-27.744c2.399-2.399 5.589-3.721 8.982-3.721s6.582 1.321 8.981 3.721l57.14 57.14c4.952 4.952 4.953 13.01 0 17.963z"/><path d="m172.94 298.158c-2.929 2.929-2.929 7.678 0 10.606l30.303 30.303c1.464 1.464 3.384 2.197 5.303 2.197s3.839-.732 5.303-2.197c2.929-2.929 2.929-7.678 0-10.607l-30.303-30.303c-2.928-2.928-7.677-2.928-10.606.001z"/></g></g></svg>