<svg id="Line" height="512" viewBox="0 0 64 64" width="512" xmlns="http://www.w3.org/2000/svg"><g fill="rgb(0,0,0)"><path d="m60.92627 24.95605c.3735-.9566-.339-3.77481-1.9233-2.97862a.99975.99975 0 0 0 -.312 1.379 1.52354 1.52354 0 0 1 .30469 1.07812c-.1684.62256-1.37983 1.24738-3.71845 1.52277a15.52764 15.52764 0 0 0 -5.44564-8.65361c-4.052-3.23787-11.85532-7.884-21.50278-5.87166-.68512-1.94544-.72468-3.3407-.12854-3.93695.80908-.80762 3.51171-.67285 8.47216 2.36035a1.00042 1.00042 0 0 0 1.04291-1.70705c-5.20062-3.17967-9.08246-3.914-10.92914-2.06737-1.244 1.24457-1.252 3.32349-.3999 5.83948a17.03826 17.03826 0 0 0 -7.15531 3.94309c-3.78611-3.18532-1.18-4.08021 4.37155-4.32275a1.00009 1.00009 0 0 0 -.02152-1.99985c-7.3028-.10006-10.83878 3.17036-5.73064 7.75707a26.25475 26.25475 0 0 0 -4.77371 8.51148 6.20088 6.20088 0 0 1 -3.24853 3.64258c-1.47776.71951-3.83624 1.54194-4.101 3.38093-.521 1.77416 1.464 3.38291 2.41059 4.61517-.42542 1.35143-1.74326 3.51322-.76265 4.913a2.80866 2.80866 0 0 0 1.94718 1.38187l4.37646.792a.52586.52586 0 0 1 -.09328 1.041h-3.34861a2.64647 2.64647 0 0 0 -2.54881 3.35554l1.18457 4.25488a4.46507 4.46507 0 0 0 4.28711 3.25684h6.44043a1.001 1.001 0 0 1 1 1v.63086a3.00328 3.00328 0 0 0 3 3h15.19727a2.98635 2.98635 0 0 0 2.97662-2.62891 16.25236 16.25236 0 0 1 6.7622-11.68164 15.72869 15.72869 0 0 0 5.75962-7.26851c5.41773 1.60133 8.25463-1.37933 4.85325-8.57711a1.00047 1.00047 0 0 0 -1.80572.8613c1.94408 4.3328 2.19671 7.144-2.372 5.85214a20.95828 20.95828 0 0 0 .69053-9.708c3.04493-.37918 4.81226-1.36899 5.24439-2.96744zm-12.34375-6.08984a13.313 13.313 0 0 1 4.39355 6.32031c.17978.69479.53476 1.018-.44538.91689a63.76732 63.76732 0 0 1 -16.28246-2.59956 46.04582 46.04582 0 0 1 -7.12744-10.18293c8.69665-1.63904 15.76184 2.58789 19.46173 5.54529zm-23.51709-4.37988c.69934-.27374 1.38934-.50128 2.0719-.697a43.55243 43.55243 0 0 0 5.60547 8.65467 51.45014 51.45014 0 0 1 -11.86926-5.38116 14.10671 14.10671 0 0 1 4.19189-2.57651zm26.75732 25.64746a13.438 13.438 0 0 1 -4.39648 4.97949 18.2297 18.2297 0 0 0 -7.61865 13.09961.98717.98717 0 0 1 -.99024.86133h-15.19726a1.001 1.001 0 0 1 -1-1v-.63086a3.00328 3.00328 0 0 0 -3-3h-6.44043a2.45757 2.45757 0 0 1 -2.36035-1.79395l-1.18457-4.2539a.64627.64627 0 0 1 .62207-.81934h3.34863a2.52829 2.52829 0 0 0 .44961-5.00977l-4.37637-.792a.81563.81563 0 0 1 -.61865-1.08886l1.15576-3.082a1.00114 1.00114 0 0 0 -.1709-.99512l-2.15674-2.56642c-.52584-.657-.07179-1.40538.6831-1.76268l2.126-1.02638a8.20436 8.20436 0 0 0 4.28563-4.83794 24.02631 24.02631 0 0 1 3.79834-7.08691q.31512-.41841.6543-.81055c3.71228 2.56506 9.58 5.00128 15.72546 6.76318.83276.92566 1.69281 1.83527 2.5719 2.71436 4.69269 4.69269 10.22156 8.881 14.70471 10.81061-.19862.47269-.40576.91605-.61487 1.3281zm1.29035-3.20239c-3.55628-1.51875-9.03681-5.30157-14.29711-10.692a61.626 61.626 0 0 0 13.663 1.86415c.41765.00162.809-.01768 1.19928-.03217a19.02835 19.02835 0 0 1 -.56517 8.86002z"/><path d="m57.5498 19.62793a3.10321 3.10321 0 0 0 -.00009-6.206 3.10321 3.10321 0 0 0 .00009 6.206zm0-4.206a1.10313 1.10313 0 0 1 0 2.206 1.10313 1.10313 0 0 1 0-2.20605z"/><path d="m45.897 11.77344a3.10322 3.10322 0 0 0 -.00009-6.20606 3.10322 3.10322 0 0 0 .00009 6.20606zm0-4.20606a1.10315 1.10315 0 0 1 0 2.20606 1.10315 1.10315 0 0 1 0-2.20606z"/></g></svg>