<svg height="512" viewBox="0 0 58 60" width="512" xmlns="http://www.w3.org/2000/svg"><g id="Page-1" fill="none" fill-rule="evenodd"><g id="028---Heart-Murmur" fill="rgb(0,0,0)" fill-rule="nonzero" transform="translate(-1)"><path id="Shape" d="m19.607 20.416c-3.734 1.248-6.187 5.159-6.562 10.462-.0189717.2647186.0680652.5261214.2419392.7266299.1738741.2005085.4203225.323675.6850608.3423701h.071c.5257052.0013266.9626765-.4046197 1-.929.316-4.47 2.261-7.725 5.2-8.707.3394023-.1130746.5926984-.3986287.6644741-.749097s-.0488734-.7126063-.3165-.95c-.2676266-.2373938-.6415718-.3139776-.9809741-.200903z"/><path id="Shape" d="m30 6.41v-3.34c0-2.016-3.02-3.07-6-3.07s-6 1.055-6 3.071c0 .717.01 1.386.02 2 .016 1.071.03 2-.018 2.722-.06.892-.382 3.89-2.03 5.014-3.2641859 2.2055536-5.0759641 6.0074934-4.733 9.932-1.2863336 2.4321904-2.03136796 5.1138365-2.184 7.861-.57391226 10.9095778 5.5015994 21.0844203 15.378 25.754 2.4244889 1.2637808 4.9791571 2.2602993 7.619 2.972 1.4717227.3909824 2.9863277.5975653 4.509.615 1.8875132.04377 3.752244-.4193049 5.4-1.341 2.239-1.3 3.953-3.534 5.239-6.822 1.417336-3.6035657 2.3358251-7.3838378 2.73-11.236.652-6.5-.36-12.388-2.928-17.019-1.0402711-2.0516686-2.6123324-3.7863927-4.552-5.023 2.202502-.0982648 4.4041862.2116119 6.494.914.2501943.0778393.5092733.1235393.771.136 1.426 0 2.938-1.316 3.684-3.336.3806909-.9799418.4995935-2.0421383.345-3.082-.1094439-.9209282-.6677827-1.7279169-1.491-2.155-1.1059044-.5870978-2.2613687-1.07565206-3.453-1.46-9.085-2.983-15.637 1.036-19.3 4.517.3678013-2.5241352.5349913-5.0734487.5-7.624zm-6-4.41c2.414 0 3.8.748 3.989 1.071-.189.329-1.575 1.072-3.989 1.072-2.481 0-3.876-.79-4-1.036v-.007c.124-.31 1.519-1.1 4-1.1zm-6.9 12.463c2.329-1.588 2.8-5.1 2.9-6.533.047-.713.04-1.555.027-2.508 1.2647452.49676434 2.6143509.74168398 3.973.721 1.3684027.02140478 2.7276166-.22699156 4-.731v1c.1177888 3.40720904-.2526328 6.8137407-1.1 10.116-.9017569-.3336157-1.8429135-.5490734-2.8-.641-1.9461579-.1637727-3.9049211.0870799-5.747.736-1.8325233.6163143-3.4910138 1.6620857-4.837 3.05.4742381-2.1355502 1.7592161-4.0035009 3.584-5.21zm34.423 1.058c-.545 1.479-1.523 2.144-1.886 2.016s-.671-1.278-.124-2.759c.2253192-.6588913.6153321-1.2492463 1.133-1.715.181329-.1707406.4112919-.2808292.658-.315.0323239-.0009514.0645417.0041356.095.015.162.06.309.341.376.717.0904402.6907789.0033676 1.3932109-.253 2.041zm-3.34-4.1c.312.1.625.23.937.349-.6615255.6527673-1.1682863 1.4455422-1.483 2.32-.343981.8931985-.4744507 1.854428-.381 2.807-4.546-.982-7.43-.151-9.109.815-.6296249.3346948-1.1888272.7876249-1.647 1.334-.2208035.302926-.253646.7038999-.0850781 1.038718.168568.3348182.5102327.5472423.8850781.550282.3089705.0002143.6010777-.1408665.793-.383.248715-.2649747.5327126-.4944609.844-.682 3.132-.143 5.446 3.368 6.307 4.923 2.369 4.273 3.3 9.754 2.687 15.85-.3756178 3.6703245-1.2503549 7.2722224-2.6 10.706-1.114 2.851-2.548 4.756-4.382 5.823-2.108 1.225-4.936 1.4-8.407.516-2.5009368-.6774242-4.9210728-1.6239529-7.218-2.823-9.1526369-4.3100176-14.79239-13.72462-14.274-23.828.1326154-2.4303102.7827852-4.8042653 1.907-6.963.115687-.1171691.1999526-.2616244.245-.42 1.269294-2.26338 3.3237184-3.9834046 5.775-4.835 1.5755063-.5608114 3.2522235-.7803287 4.919-.644 1.0892991.1032356 2.1515299.3995225 3.137.875 5.19 2.517 7.215 9.386 7.236 9.456.1639459.5154609.7080459.8071275 1.2280777.658315.5200317-.1488124.8274741-.6841565.6939223-1.208315-.085-.3-2.02-6.9-7.221-10.119 2.566-3.145 9.185-9.41 19.212-6.12z"/><path id="Shape" d="m51.474 58.851c.4774952.2766341 1.088823.1141802 1.366-.363.6999084-1.2164374 1.3053556-2.4848341 1.811-3.794 1.6830628-4.2823233 2.7711905-8.7751402 3.234-13.353.4087435-3.8363426.2876071-7.7106856-.36-11.514-.4903922-2.8579158-1.3513151-5.6396955-2.561-8.275-.232788-.5011984-.8278016-.718788-1.329-.486s-.718788.8278016-.486 1.329c1.1373751 2.4767965 1.9462226 5.0915995 2.406 7.778.615481 3.6234744.7298854 7.3143629.34 10.969-.4448676 4.3965482-1.4902636 8.7113723-3.107 12.824-.4683272 1.2134555-1.028969 2.3892321-1.677 3.517-.1334872.2294946-.1702343.5026521-.102142.7592646.0680924.2566126.2354346.4756148.465142.6087354z"/><path id="Shape" d="m2.473 26.905c-.26203721-.0411318-.52968093.0235268-.74404057.1797487-.21435963.1562218-.35787195.3912071-.39895943.6532513-1.521 9.719 2.07 23.401 13.527 32.062.2858125.2152525.6647499.2616749.9940703.1217803s.5589922-.4448528.6025001-.8c.0435079-.3551471-.1057579-.7065278-.3915704-.9217803-10.795-8.158-14.185-21.023-12.755-30.152.04111367-.2621862-.02367974-.5299625-.18010912-.7443495-.15642939-.214387-.39166357-.3577997-.65389088-.3986505z"/><path id="Shape" d="m49.059 52.506c-.1300447.3327929-.072668.7096842.1505167.9887027.2231848.2790184.5782706.4177745.9315001.364.3532294-.0537745.6509385-.2919098.7809832-.6247027 1.5484602-3.9430341 2.5520376-8.0787957 2.983-12.293.4086435-3.7134071.2555931-7.467186-.454-11.135-.3578709-1.8281662-.8885877-3.6182057-1.585-5.346-.1306878-.3363154-.4324152-.5761494-.789545-.6275852-.3571299-.0514359-.7142746.0935036-.9345581.3792702-.2202835.2857665-.2695419.6680405-.1288969 1.000315.6489269 1.6121461 1.1431494 3.2823237 1.476 4.988.6711547 3.4722656.8147699 7.025899.426 10.541-.4129054 4.0332361-1.3737533 7.9913507-2.856 11.765z"/><path id="Shape" d="m17.712 55.709c.349765-.4272247.2870933-1.0570746-.14-1.407-7.1077796-5.8168369-11.01339662-14.6760826-10.513-23.847.03614119-.5492047-.37831791-1.024373-.92734094-1.0631761-.54902302-.0388031-1.0261949.3733476-1.06765906.9221761-.5404935 9.8174264 3.63550169 19.3035964 11.241 25.535.4272247.349765 1.0570746.2870933 1.407-.14z"/></g></g></svg>