<svg id="credit_card" viewBox="0 0 64 64" xmlns="http://www.w3.org/2000/svg" data-name="credit card"><path d="m56 13h-48c-2.206 0-4 1.794-4 4v12 18c0 2.206 1.794 4 4 4h48c2.206 0 4-1.794 4-4 0-7.712 0-22.455 0-30 0-2.206-1.794-4-4-4zm-48 2h48c1.103 0 2 .897 2 2v4h-52v-4c0-1.103.897-2 2-2zm48 34h-48c-1.103 0-2-.897-2-2v-17h52v17c0 1.103-.897 2-2 2zm-27-4h-18c-.552 0-1-.447-1-1s.448-1 1-1h18c1.319.022 1.309 1.98 0 2zm-18-6s12 0 12 0c1.317.022 1.311 1.979 0 2h-12c-1.317-.022-1.311-1.979 0-2zm41 2v3c0 1.103-.897 2-2 2h-7c-1.103 0-2-.897-2-2v-3c0-1.103.897-2 2-2h7c1.103 0 2 .897 2 2z"/></svg>