<svg id="&#xB808;&#xC774;&#xC5B4;_1" enable-background="new 0 0 100 100" viewBox="0 0 100 100" xmlns="http://www.w3.org/2000/svg"><path d="m91.45 1.7h-45.55c-3.69 0-6.69 3-6.69 6.69v2.73l-8.62-7.33c-.45-.38-1.07-.46-1.6-.22-.53.25-.87.78-.87 1.36v5.76h-19c-.83 0-1.5.67-1.5 1.5v13.22c0 .83.67 1.5 1.5 1.5h19v5.76c0 .58.34 1.12.87 1.36.2.09.42.14.63.14.35 0 .7-.12.97-.36l8.62-7.33v8c-2.59 2.21-4.62 5.09-5.86 8.43-2.09-.53-4.39.02-6.02 1.65l-8.49 8.49v-.26c0-3.49-2.75-6.42-6.13-6.52-1.72-.05-3.36.58-4.59 1.78-1.24 1.2-1.92 2.81-1.92 4.54v.2c0 5.31-1.16 10.82-3.44 16.38-3.32 8.08-1.47 17.3 4.71 23.48 4.08 4.08 9.5 6.33 15.27 6.33 5.77 0 11.19-2.25 15.27-6.33l1.19-1.19v.15c0 3.69 3 6.69 6.69 6.69h45.54c3.69 0 6.69-3 6.69-6.69v-83.22c.02-3.69-2.98-6.69-6.67-6.69zm-60.33 27.74v-4.02c0-.83-.67-1.5-1.5-1.5h-19v-10.23h19c.83 0 1.5-.67 1.5-1.5v-4.01l12.5 10.63zm5.15 15.12c-.08-.08-.16-.15-.25-.22 1.09-3.17 3.03-5.86 5.51-7.86.04-.03.08-.06.11-.09 3-2.38 6.76-3.76 10.8-3.76 6.05 0 11.52 3.05 14.73 8.19v18.38c-2.13 3.41-5.36 5.98-9.15 7.27-1.79.61-3.67.92-5.58.92-8.08 0-14.97-5.48-16.86-13.19l.69-.69c1.19-1.19 1.85-2.78 1.85-4.47 0-1.7-.65-3.29-1.85-4.48zm-2.79 16.42c-.86-.86-1.91-1.42-3.02-1.68l2.7-2.7c1.2 3.53 3.3 6.59 6.04 8.92v1.41c-1-.64-2.16-.98-3.38-.98-.17 0-.35.01-.52.02.16-1.79-.45-3.62-1.82-4.99zm2.42 29.54c-3.51 3.51-8.18 5.45-13.15 5.45s-9.64-1.94-13.15-5.45c-5.32-5.32-6.91-13.25-4.06-20.21 2.43-5.93 3.66-11.82 3.66-17.52v-.2c0-.91.36-1.75 1.01-2.38.62-.61 1.44-.94 2.31-.94h.1c1.77.05 3.22 1.63 3.22 3.52v3.88c0 .61.37 1.15.93 1.39.56.23 1.21.1 1.63-.33l11.05-11.05c1.25-1.25 3.44-1.25 4.7 0 .63.63.97 1.46.97 2.35s-.35 1.72-.97 2.35l-9.61 9.61-1.5 1.5-2.86 2.86c-.59.59-.59 1.54 0 2.12.29.29.68.44 1.06.44s.77-.15 1.06-.44l1.61-1.61 1.25-1.25 1.5-1.5c1.29-1.29 3.4-1.29 4.69 0s1.29 3.4 0 4.7l-4.35 4.35c-.59.59-.59 1.54 0 2.12.29.29.68.44 1.06.44s.77-.15 1.06-.44l4.35-4.35c1.25-1.25 3.44-1.25 4.7 0 1.29 1.29 1.29 3.4 0 4.69l-4.35 4.35c-.59.59-.59 1.54 0 2.12.29.29.68.44 1.06.44s.77-.15 1.06-.44l4.35-4.35c.64-.64 1.49-.98 2.4-.97s1.75.39 2.37 1.05c1.22 1.29 1.12 3.43-.21 4.76zm59.24 1.09c0 2.04-1.66 3.69-3.69 3.69h-45.55c-2.04 0-3.69-1.66-3.69-3.69v-2.66c0-.15-.03-.29-.07-.43l4.83-4.83c2.47-2.47 2.59-6.48.28-8.94-1.18-1.26-2.78-1.96-4.51-1.99-.18 0-.35.01-.53.02v-5.14c3.02 1.75 6.52 2.74 10.24 2.74 2.24 0 4.44-.36 6.54-1.08 3.13-1.06 5.92-2.89 8.18-5.27v.36c0 .83.67 1.5 1.5 1.5s1.5-.67 1.5-1.5v-4.37-20.04-4.37c0-.83-.67-1.5-1.5-1.5s-1.5.67-1.5 1.5v.36c-3.81-3.98-9.13-6.34-14.73-6.34-3.7 0-7.2 1-10.24 2.76v-7.99c0-.14-.02-.27-.06-.4l4.75-4.04c.33-.29.53-.7.53-1.14s-.19-.86-.53-1.14l-4.74-4.03c.03-.11.05-.23.05-.35v-4.91c0-2.04 1.66-3.69 3.69-3.69h45.54c2.04 0 3.69 1.66 3.69 3.69v83.22z"/><path d="m72.52 11.75c0-2.12-1.72-3.84-3.84-3.84s-3.84 1.72-3.84 3.84 1.72 3.84 3.84 3.84 3.84-1.72 3.84-3.84zm-3.84.84c-.46 0-.84-.38-.84-.84s.38-.84.84-.84.84.38.84.84-.38.84-.84.84z"/><path d="m72.3 84.41h-7.25c-2.05 0-3.71 1.67-3.71 3.71 0 2.05 1.67 3.71 3.71 3.71h7.25c2.05 0 3.71-1.67 3.71-3.71 0-2.05-1.66-3.71-3.71-3.71zm0 4.42h-7.25c-.39 0-.71-.32-.71-.71s.32-.71.71-.71h7.25c.39 0 .71.32.71.71s-.32.71-.71.71z"/><path d="m49.29 57.22c.53.21 1.1.36 1.7.47v1.5c0 .83.67 1.5 1.5 1.5s1.5-.67 1.5-1.5v-1.39c1.26-.12 2.29-.44 3.06-.99 1-.71 1.5-1.71 1.5-2.97 0-.85-.18-1.56-.52-2.12-.34-.55-.89-1.04-1.62-1.45-.71-.4-1.72-.84-3.03-1.31-1.03-.37-1.76-.65-2.19-.85-.4-.18-.72-.4-.95-.65-.21-.23-.32-.52-.32-.89 0-.47.2-.83.6-1.1.43-.29 1.08-.44 1.95-.44.72 0 1.38.1 1.99.28.44.14.9.34 1.36.61.2.12.44.15.66.08.23-.06.42-.22.54-.43l.36-.67c.22-.41.09-.91-.3-1.15-.53-.32-1.12-.59-1.77-.81-.42-.14-.86-.25-1.32-.32v-1.45c0-.83-.67-1.5-1.5-1.5s-1.5.67-1.5 1.5v1.45c-1.03.16-1.89.47-2.55.96-.99.73-1.48 1.74-1.48 3 0 1.19.42 2.15 1.24 2.84.79.67 2.12 1.32 3.97 1.96 1.04.35 1.81.65 2.29.9.45.24.76.47.91.69.15.21.22.5.22.86 0 .5-.2.86-.61 1.11-.43.26-1.07.4-1.89.41-.8.01-1.57-.11-2.31-.36-.78-.27-1.46-.65-2.02-1.12-.34-.29-.87-.25-1.19.09l-.65.7c-.16.18-.25.42-.23.66.01.23.12.44.29.59.66.51 1.44.97 2.31 1.31z"/></svg>