<?xml version="1.0" encoding="UTF-8"?>
<svg id="Capa_1" data-name="Capa 1" xmlns="http://www.w3.org/2000/svg" viewBox="0 0 860.11 612">
  <defs>
    <style>
      .cls-1, .cls-2 {
        fill: #45b8b0;
      }

      .cls-2, .cls-3 {
        fill-rule: evenodd;
      }

      .cls-4 {
        fill: #116569;
      }

      .cls-5 {
        fill: #575756;
      }

      .cls-3, .cls-6 {
        fill: #506567;
      }
    </style>
  </defs>
  <g>
    <path class="cls-3" d="M338.9,96.39c-55.29,37.7-83.5,107.48-65.24,175.79,23.12,86.49,111.96,137.85,198.45,114.73,70.67-18.89,117.88-81.65,120.18-151.16-9.81,57.04-51.72,106.01-111.3,121.94-81.62,21.82-165.47-26.66-187.28-108.28-15.33-57.33,4.03-115.76,45.21-153.02h0Z"/>
    <path class="cls-2" d="M519.91,320.12c46.65-31.81,70.46-90.69,55.05-148.33-19.51-72.98-94.48-116.32-167.45-96.81-59.63,15.94-99.47,68.9-101.41,127.55,8.28-48.13,43.64-89.46,93.92-102.89,68.87-18.41,139.63,22.5,158.04,91.37,12.93,48.38-3.4,97.68-38.15,129.12h0Z"/>
  </g>
  <g>
    <path class="cls-4" d="M79.49,465.82c0,3.46-1.03,6.17-3.08,8.14-2.06,1.97-4.83,2.95-8.31,2.95h-17.94v-58.85h17.94c3.48,0,6.25,1,8.31,2.99,2.06,1.99,3.08,4.72,3.08,8.18v36.59ZM70.66,464.35v-33.81c0-3.28-1.72-4.93-5.15-4.93h-6.54v43.74h6.32c3.58,0,5.38-1.67,5.38-5Z"/>
    <path class="cls-4" d="M116.42,476.91h-9.18l-9.7-27.34v-5.3h8.65v-18.65h-11.09v51.29h-8.8v-58.85h23.35c3.53,0,5.3,1.81,5.3,5.42v21.4c0,2.48-.84,4.09-2.52,4.81-.9.38-2.81.56-5.72.56l9.7,26.66Z"/>
    <path class="cls-4" d="M129.58,476.91h-8.46v-9.1h8.46v9.1Z"/>
    <path class="cls-4" d="M165.08,471.54c0,3.59-1.79,5.38-5.38,5.38h-18.5c-3.49,0-5.23-1.79-5.23-5.38v-48.06c0-3.61,1.78-5.42,5.34-5.42h18.39c3.58,0,5.38,1.81,5.38,5.42v12.56h-8.84v-10.42h-11.47v43.74h11.47v-16.47h-6.54v-7.48h15.38v26.14Z"/>
    <path class="cls-4" d="M201.94,476.91h-8.72l-1.77-11.17h-11.02l-1.77,11.17h-8.69v-.15l11.39-58.78h9.25l11.32,58.93ZM190.2,458.19l-4.29-26.55-4.32,26.55h8.61Z"/>
    <path class="cls-4" d="M235.74,471.54c0,3.59-1.79,5.38-5.38,5.38h-23.5v-58.85h23.35c3.48,0,5.23,1.81,5.23,5.42v15.15c0,2.01-.63,3.56-1.88,4.66-.18.15-1.71,1.12-4.59,2.9,2.98,1.83,4.56,2.83,4.74,3.01,1.35,1.18,2.03,2.8,2.03,4.85v17.49ZM226.68,439.72v-14.25h-11.02v17.26h6.77l4.25-3.01ZM226.91,469.51v-16.77l-4.32-2.86h-6.92v19.63h11.24Z"/>
    <path class="cls-4" d="M272.79,476.91h-9.18l-9.7-27.34v-5.3h8.65v-18.65h-11.09v51.29h-8.8v-58.85h23.35c3.53,0,5.3,1.81,5.3,5.42v21.4c0,2.48-.84,4.09-2.52,4.81-.9.38-2.81.56-5.72.56l9.7,26.66Z"/>
    <path class="cls-4" d="M287.11,476.91h-8.8v-58.85h8.8v58.85Z"/>
    <path class="cls-4" d="M318.74,476.91h-24.41v-58.85h24.18v7.78h-15.38v17.19h13.24v7.63h-13.24v18.46h15.61v7.78Z"/>
    <path class="cls-4" d="M347.88,476.91h-23.13v-58.85h8.8v50.99h14.33v7.86Z"/>
    <path class="cls-4" d="M398.09,471.54c0,3.59-1.79,5.38-5.38,5.38h-18.5c-3.49,0-5.23-1.79-5.23-5.38v-48.06c0-3.61,1.78-5.42,5.34-5.42h18.39c3.58,0,5.38,1.81,5.38,5.42v12.56h-8.84v-10.42h-11.47v43.74h11.47v-16.47h-6.54v-7.48h15.38v26.14Z"/>
    <path class="cls-4" d="M434.79,471.54c0,3.59-1.78,5.38-5.34,5.38h-19.1c-3.49,0-5.23-1.79-5.23-5.38v-48.06c0-3.61,1.74-5.42,5.23-5.42h19.1c3.56,0,5.34,1.81,5.34,5.42v48.06ZM425.99,469.36v-43.74h-12.07v43.74h12.07ZM431.56,405.58l-10.94,9.93h-6.32v-.3l6.47-9.97h10.79v.34Z"/>
    <path class="cls-4" d="M477.43,476.91h-8.46v-29.03c0-1.53.17-3.66.53-6.39l-7.6,30.05h-4.48l-7.63-30.05c.35,2.78.53,4.91.53,6.39v29.03h-8.46v-58.85h8.31l9.25,32.53c.1.35.17,1.24.23,2.67,0-.63.08-1.52.23-2.67l9.25-32.53h8.31v58.85Z"/>
    <path class="cls-4" d="M508.87,476.91h-24.41v-58.85h24.18v7.78h-15.38v17.19h13.24v7.63h-13.24v18.46h15.61v7.78Z"/>
    <path class="cls-4" d="M539.86,476.91h-27.04v-4.7l16.47-46.22h-15.15v-7.93h25.65v5.08l-16.43,45.84h16.51v7.93Z"/>
    <path class="cls-4" d="M589.24,450.1c0,3.66-1.79,5.49-5.38,5.49h-14.25v21.32h-8.8v-58.85h23.05c3.58,0,5.38,1.81,5.38,5.42v26.62ZM580.36,448.03v-22.41h-10.76v22.41h10.76Z"/>
    <path class="cls-4" d="M625.3,476.91h-8.72l-1.77-11.17h-11.02l-1.77,11.17h-8.69v-.15l11.39-58.78h9.25l11.32,58.93ZM613.57,458.19l-4.29-26.55-4.32,26.55h8.61Z"/>
    <path class="cls-4" d="M653.35,476.91h-23.13v-58.85h8.8v50.99h14.33v7.86Z"/>
    <path class="cls-4" d="M688.4,476.91h-8.72l-1.77-11.17h-11.02l-1.77,11.17h-8.69v-.15l11.39-58.78h9.25l11.32,58.93ZM676.67,458.19l-4.29-26.55-4.32,26.55h8.61Z"/>
    <path class="cls-4" d="M722.28,471.54c0,3.59-1.79,5.38-5.38,5.38h-18.35c-3.49,0-5.23-1.79-5.23-5.38v-48.06c0-3.61,1.74-5.42,5.23-5.42h18.35c3.58,0,5.38,1.81,5.38,5.42v13.76h-8.76v-11.62h-11.39v43.74h11.39v-12.37h8.76v14.55Z"/>
    <path class="cls-4" d="M738.15,476.91h-8.8v-58.85h8.8v58.85Z"/>
    <path class="cls-4" d="M775.04,471.54c0,3.59-1.78,5.38-5.34,5.38h-19.1c-3.49,0-5.23-1.79-5.23-5.38v-48.06c0-3.61,1.74-5.42,5.23-5.42h19.1c3.56,0,5.34,1.81,5.34,5.42v48.06ZM766.24,469.36v-43.74h-12.07v43.74h12.07Z"/>
    <path class="cls-4" d="M810.32,471.54c0,3.59-1.78,5.38-5.34,5.38h-17.71c-3.53,0-5.3-1.79-5.3-5.38v-14.03h8.8v12h10.76v-11.54l-17.64-16.7c-1.28-1.23-1.92-2.8-1.92-4.7v-13.09c0-3.61,1.77-5.42,5.3-5.42h17.71c3.56,0,5.34,1.78,5.34,5.34v13.16h-8.8v-11.09h-10.76v10.64l17.64,16.62c1.28,1.2,1.92,2.8,1.92,4.78v14.03Z"/>
  </g>
  <g>
    <path class="cls-5" d="M73.13,541.71h-3.95v-29.88c0-.42.14-1.66.42-3.71l-7.72,29.16h-.84l-7.72-29.16c.28,2.07.42,3.31.42,3.71v29.88h-3.95v-47.19h3.89l7.66,30.7c.04.16.08.61.12,1.36,0-.3.04-.75.12-1.36l7.66-30.7h3.89v47.19Z"/>
    <path class="cls-5" d="M96.66,541.71h-15.5v-47.19h15.32v3.71h-11.13v17.61h10.13v3.77h-10.13v18.39h11.31v3.71Z"/>
    <path class="cls-5" d="M123.15,533.17c0,2.49-.82,4.54-2.46,6.14-1.64,1.6-3.7,2.4-6.2,2.4h-10.8v-47.19h10.8c2.51,0,4.58.8,6.21,2.4,1.63,1.6,2.44,3.64,2.44,6.14v30.12ZM118.95,532.75v-29.34c0-1.55-.49-2.8-1.46-3.75s-2.24-1.43-3.78-1.43h-5.82v39.77h5.58c1.63,0,2.95-.47,3.97-1.4,1.01-.94,1.52-2.22,1.52-3.85Z"/>
    <path class="cls-5" d="M135.43,541.71h-4.19v-47.19h4.19v47.19Z"/>
    <path class="cls-5" d="M162.7,538.36c0,.98-.32,1.79-.97,2.41-.64.62-1.46.94-2.44.94h-12.15c-.98,0-1.79-.31-2.41-.94-.62-.62-.93-1.43-.93-2.41v-40.5c0-.98.31-1.79.93-2.41.62-.62,1.43-.94,2.41-.94h12.15c.98,0,1.8.31,2.44.94.64.62.97,1.43.97,2.41v10.98h-4.22v-10.61h-10.49v39.77h10.49v-11.61h4.22v11.97Z"/>
    <path class="cls-5" d="M174.96,541.71h-4.19v-47.19h4.19v47.19Z"/>
    <path class="cls-5" d="M202.77,541.71h-2.9l-12.6-34.71v34.71h-3.95v-47.19h3.14l12.36,34.11v-34.11h3.95v47.19Z"/>
    <path class="cls-5" d="M229.83,541.71h-4.16l-1.66-10.49h-9.38l-1.66,10.49h-4.04v-.12l8.41-47.19h4.13l8.35,47.31ZM223.47,527.5l-4.13-25.57-4.16,25.57h8.29Z"/>
    <path class="cls-5" d="M253.01,541.71h-4.19v-47.19h4.19v47.19Z"/>
    <path class="cls-5" d="M280.83,541.71h-2.9l-12.6-34.71v34.71h-3.95v-47.19h3.14l12.36,34.11v-34.11h3.95v47.19Z"/>
    <path class="cls-5" d="M305.11,498.22h-7.3v43.48h-4.19v-43.48h-7.36v-3.71h18.85v3.71Z"/>
    <path class="cls-5" d="M326.02,541.71h-15.5v-47.19h15.32v3.71h-11.13v17.61h10.13v3.77h-10.13v18.39h11.31v3.71Z"/>
    <path class="cls-5" d="M353.14,541.71h-4.4l-8.77-25.27.57-.84h7.48v-17.37h-10.77v43.48h-4.19v-47.19h15.8c.98,0,1.79.31,2.41.94.62.62.93,1.43.93,2.41v17.91c0,2.27-1.53,3.41-4.58,3.41-.3,0-.74-.01-1.33-.04-.58-.03-1.01-.05-1.27-.05,2.71,7.52,5.42,15.06,8.11,22.62Z"/>
    <path class="cls-5" d="M379.36,541.71h-2.9l-12.6-34.71v34.71h-3.95v-47.19h3.14l12.36,34.11v-34.11h3.95v47.19Z"/>
    <path class="cls-5" d="M406.42,541.71h-4.16l-1.66-10.49h-9.38l-1.66,10.49h-4.04v-.12l8.41-47.19h4.13l8.35,47.31ZM400.05,527.5l-4.13-25.57-4.16,25.57h8.29Z"/>
    <path class="cls-5" d="M446.73,494.78l-19.96,46.92h-4.01v-.24l19.96-46.95h4.01v.27Z"/>
    <path class="cls-5" d="M488.27,541.71h-3.95v-29.88c0-.42.14-1.66.42-3.71l-7.72,29.16h-.84l-7.72-29.16c.28,2.07.42,3.31.42,3.71v29.88h-3.95v-47.19h3.89l7.66,30.7c.04.16.08.61.12,1.36,0-.3.04-.75.12-1.36l7.66-30.7h3.89v47.19Z"/>
    <path class="cls-5" d="M511.81,541.71h-15.5v-47.19h15.32v3.71h-11.13v17.61h10.13v3.77h-10.13v18.39h11.31v3.71Z"/>
    <path class="cls-5" d="M538.29,533.17c0,2.49-.82,4.54-2.46,6.14-1.64,1.6-3.7,2.4-6.2,2.4h-10.79v-47.19h10.79c2.51,0,4.58.8,6.21,2.4,1.63,1.6,2.44,3.64,2.44,6.14v30.12ZM534.1,532.75v-29.34c0-1.55-.49-2.8-1.46-3.75s-2.24-1.43-3.78-1.43h-5.82v39.77h5.58c1.63,0,2.95-.47,3.97-1.4,1.01-.94,1.52-2.22,1.52-3.85Z"/>
    <path class="cls-5" d="M550.58,541.71h-4.19v-47.19h4.19v47.19Z"/>
    <path class="cls-5" d="M577.85,538.36c0,.98-.32,1.79-.97,2.41-.64.62-1.46.94-2.44.94h-12.15c-.99,0-1.79-.31-2.41-.94s-.93-1.43-.93-2.41v-40.5c0-.98.31-1.79.93-2.41.62-.62,1.43-.94,2.41-.94h12.15c.98,0,1.8.31,2.44.94.64.62.97,1.43.97,2.41v10.98h-4.22v-10.61h-10.49v39.77h10.49v-11.61h4.22v11.97Z"/>
    <path class="cls-5" d="M590.1,541.71h-4.19v-47.19h4.19v47.19Z"/>
    <path class="cls-5" d="M617.92,541.71h-2.89l-12.61-34.71v34.71h-3.95v-47.19h3.14l12.36,34.11v-34.11h3.95v47.19Z"/>
    <path class="cls-5" d="M644.98,541.71h-4.16l-1.66-10.49h-9.38l-1.66,10.49h-4.04v-.12l8.41-47.19h4.13l8.35,47.31ZM638.62,527.5l-4.13-25.57-4.16,25.57h8.29Z"/>
    <path class="cls-5" d="M682.63,538.36c0,.98-.32,1.79-.97,2.41-.64.62-1.46.94-2.44.94h-12.15c-.99,0-1.79-.31-2.41-.94s-.93-1.43-.93-2.41v-40.5c0-.98.31-1.79.93-2.41.62-.62,1.43-.94,2.41-.94h12.15c.98,0,1.8.31,2.44.94.64.62.97,1.43.97,2.41v10.98h-4.22v-10.61h-10.49v39.77h10.49v-11.61h4.22v11.97Z"/>
    <path class="cls-5" d="M710.54,541.71h-4.4l-8.77-25.27.57-.84h7.48v-17.37h-10.77v43.48h-4.19v-47.19h15.8c.98,0,1.79.31,2.41.94.62.62.94,1.43.94,2.41v17.91c0,2.27-1.53,3.41-4.58,3.41-.3,0-.74-.01-1.33-.04-.58-.03-1.01-.05-1.27-.05,2.71,7.52,5.42,15.06,8.11,22.62Z"/>
    <path class="cls-5" d="M726.56,484.89l-7.39,6.97h-2.8v-.18l4.52-6.9h5.67v.12ZM721.74,541.71h-4.19v-47.19h4.19v47.19Z"/>
    <path class="cls-5" d="M746.35,498.22h-7.3v43.48h-4.19v-43.48h-7.36v-3.71h18.85v3.71Z"/>
    <path class="cls-5" d="M756.2,541.71h-4.19v-47.19h4.19v47.19Z"/>
    <path class="cls-5" d="M783.47,538.36c0,.98-.32,1.79-.97,2.41-.64.62-1.46.94-2.44.94h-12.15c-.99,0-1.79-.31-2.41-.94s-.93-1.43-.93-2.41v-40.5c0-.98.31-1.79.93-2.41.62-.62,1.43-.94,2.41-.94h12.15c.98,0,1.8.31,2.44.94.64.62.97,1.43.97,2.41v10.98h-4.22v-10.61h-10.49v39.77h10.49v-11.61h4.22v11.97Z"/>
    <path class="cls-5" d="M810.32,541.71h-4.16l-1.66-10.49h-9.38l-1.66,10.49h-4.04v-.12l8.41-47.19h4.13l8.35,47.31ZM803.96,527.5l-4.13-25.57-4.16,25.57h8.29Z"/>
  </g>
  <g>
    <path class="cls-6" d="M430.27,136.23h0c-19.19,0-38.38,0-57.57.02-.98,0-1.98,0-2.95.17-4.05.73-6.27,3.54-6.2,7.75.06,4,2.33,6.75,6.3,7.29,1.43.19,1.95.63,2.21,2.08.43,2.43,1.89,4.36,4.3,5.07,3.2-.03,10.25.56,10.74.56,2.18.03,3.15.47,3.23,2.89.26,8.03,1.6,15.9,4.04,23.58,2.85,8.97,7.73,16.62,14.58,23.04,2.38,2.23,4.84,4.39,7.12,6.72,6.07,6.2,8.29,14.02,6.72,21.42.44,2.48.44,6.26.44,8.13.97-1.75,1.72-3.65,2.16-5.76,2.26-10.7-.15-19.92-8.52-27.39-5.09-4.54-10.16-9.12-13.87-14.96-5.43-8.54-7.83-18.05-9.06-27.94-.28-2.25-.33-4.54-.63-6.79-.28-2.11.25-2.94,2.63-2.93,17.14.07,34.27.06,51.41.04,0-1.51.18-10.19.2-11.06,1.91-3.63,6.56-9.39,11.49-11.96-9.59,0-19.17,0-28.76,0Z"/>
    <g>
      <path class="cls-6" d="M496.84,320.38s0-.05,0-.08c-.06-4-2.33-6.75-6.3-7.29-.51-.07-.9-.17-1.2-.33-.18-.13-.35-.27-.5-.44-.05-.06-.09-.12-.14-.18-.16-.29-.28-.64-.37-1.12-.41-2.29-1.73-4.12-3.9-4.92-.16-.07-.33-.14-.5-.2-.11-.05-.48-.09-1.05-.11-2.93-.03-10.96-.03-12.33-.02-.56-.73-.55-2.4-.62-3.58-.74-12.97-3.13-25.48-10.35-36.63-3.42-5.29-7.99-9.52-12.59-13.72-4.2-3.84-8.08-7.9-9.22-13.78-1.65-8.49-.13-16.07,6.22-22.37,2.12-2.1,7.69-7.1,7.78-7.25,0-.47,0-3.74,0-4.44-.64.51-5.42,5.39-6.68,6.41-4.8,3.91-8.87,8.56-10.23,14.89-2.33,10.83.25,20.13,8.73,27.61,6.17,5.44,12.11,11.09,15.9,18.6,5.05,10,6.83,20.75,7.49,31.77.27,2.33-.26,2.46-.89,2.45-11.9.05-33.53.05-42.97.05,0,.98.06,9.21.02,13.4-.11.93-.26,1.8-.45,2.55-.39,1.52-.95,2.86-1.74,3.85-.93,1.14-2.12,2.08-3.66,2.71,4.26-.02,8.51-.14,12.77-.15,3.42,0,6.85.02,10.27.04,0,.05,0,.09,0,.14,14.5,0,29,0,43.51,0,.2,0,.39,0,.59,0,1.09,0,2.18,0,3.26,0,.98,0,1.98,0,2.95-.17,3.63-.65,5.77-2.99,6.14-6.5.05-.39.07-.78.06-1.18Z"/>
      <path class="cls-6" d="M422.6,213.58c4.07,4.77,6.38,10.24,6.43,16.5.02,2.15-.12,21,.04,28.28,0,1.94,0,3.89-.02,5.83-.44,6.42-2.73,11.93-6.74,16.73.21.23.46.68.49.78s.26.86.31,1.93c.01,1.41.01,19.32.02,20.08,6.43,0,32.74,0,34.27,0-2.27-4.6-5.2-8.81-8.99-12.54-3.59-3.54-7.51-6.73-10.8-10.58-4.07-4.77-6.38-10.24-6.43-16.5-.01-1.43-.01-2.87-.02-4.31.21-8.86.15-17.73-.08-26.59-.24-9.59,3.33-17.27,10.33-23.6,3.59-3.25,7.2-6.48,10.31-10.23,4.96-5.97,8-12.82,9.79-20.7-7.04,0-13.85,0-20.66,0-13.16,0-26.32.07-39.47-.05-2.5-.02-2.73.74-2.1,2.84,2.48,8.18,6.36,15.49,12.51,21.55,3.59,3.54,7.51,6.73,10.8,10.58Z"/>
    </g>
  </g>
  <g>
    <path class="cls-1" d="M422.81,281.7c-.63-1.4-2.14-2.15-3.65-1.82-1.42.31-2.44,1.57-2.44,3.13-.02,5.93,0,11.86,0,17.79h0c0,5.78,0,11.55,0,17.33,0,.71-.08,1.39-.23,2.07-.3,1.35-1.1,2.04-2.4,2.04-6.98,0-13.96.03-20.93-.09-3.09-.05-5.9-1.17-8.32-3.14-3.15-2.58-4.93-6.02-6.06-9.83-2.3-7.75-2.02-15.63-.84-23.49,1.28-8.53,3.82-16.72,7.59-24.49,3.46-7.13,7.74-13.69,13.88-18.85,4.18-3.51,8.87-5.88,14.48-6.11,1.63-.07,2.26.83,2.58,1.95.18.62.23,1.3.23,1.95.02,2.91,0,5.82.01,8.72,0,.46-.02.92.15,1.38.22.61.59,1.1,1.04,1.47.06-.03,2.99-3.35,3.55-4.12s1.42-1.94,1.71-2.43c.04-2.42.06-4.84-.2-7.25-.47-4.46-4.15-8.26-8.74-8.14-5.59.15-10.62,1.89-15.25,4.9-6.33,4.12-11.13,9.72-15.03,16.09-7.93,12.94-12.33,27.02-13.2,42.18-.4,7.01.24,13.91,2.72,20.56,3.65,9.79,11.31,15.15,21.76,15.16,6.32,0,12.64,0,18.96,0,1.5,0,2.93-.26,4.23-1.04,3.39-2.05,4.7-5.23,4.71-9.02.03-11.71.01-23.42,0-35.12,0-.62-.05-1.24-.31-1.82Z"/>
    <path class="cls-1" d="M427.79,260.33c.45-.49,3.37-5.91,3.38-6.41.02-2.58,0-5.15,0-7.73,0-3.63.01-7.25,0-10.88,0-.64.05-1.66-.08-2.44-.35-1.28-1.79-1.04-2.05-.36.02.63.09,2.96.11,4.3.04,3.25-.02,5.92-.16,8.11s-.35,3.88-.6,5.21c-.39,1.7-2.73,4.8-2.96,5.04-4.33,4.62-8.71,9.19-12.92,13.92-1.91,2.14-4.05,3.75-6.69,4.85-2.17.9-4.26,1.97-6.36,3.02-1.25.63-1.74,1.89-1.34,3.12.42,1.27,1.55,1.99,2.88,1.83.48-.06.9-.29,1.33-.5,2.05-.97,4.11-1.95,6.3-2.99,0,.46,0,.77,0,1.07,0,2.19-.02,4.39.02,6.58.03,1.6,1.23,2.63,2.82,2.53,1.45-.09,2.39-1.18,2.4-2.89.03-3.21.02-6.43,0-9.64,0-.54.14-.95.52-1.36,4.48-4.78,8.95-9.57,13.39-14.39Z"/>
  </g>
  <path class="cls-1" d="M487.96,147.54c-4.46-8.36-12.01-13.6-19.71-13.68h-.16c-5.37,0-13.26,2.39-20.35,13.79l-.29.46v.54c-.07,2.18-.11,4.44-.13,6.75v4.47s1.34.01,1.34.01h.18c.66-.02,1.31-.02,1.96-.01h.5s0-2.96,0-2.96c.01-2.6.05-5.16.11-7.61,6.02-9.43,12.32-11.45,16.62-11.45.06,0,.11,0,.17,0,6.23.06,12.45,4.5,16.22,11.56,1.43,2.69,4.4,9.54,3.14,18h-10.01l-6.47-11.49c-.3-.53-.88-.86-1.52-.86h-.01c-.64,0-1.2.33-1.5.87l-6.24,11.48h-13.58c-1.05,0-1.94,0-2.81,1.12l-1.41,1.85-.63-1.34c-.29-.62-1-.91-1.53-.91h-1.82c-1.12,0-1.71.88-1.71,1.75s.59,1.75,1.71,1.75h.71l1.38,2.93c.24.51.67.83,1.22.89.06,0,.12,0,.18,0,.6,0,1.23-.31,1.61-.81l2.86-3.74h14.87c.63,0,1.23-.35,1.52-.88l5.23-9.62,5.42,9.62c.3.53.89.87,1.52.87h10.25l-.37,1.29c-.73,2.13-1.72,4.18-2.96,6.11-5.78,8.95-29.85,24.41-31.67,25.57,0,.26,0,4.45,0,4.45l.7-.35c16.56-8.36,27.79-17.35,34.34-27.5,1.42-2.2,2.57-4.57,3.42-7.08l.79-2.75.03-.1c1.78-7.62.66-16.01-3.08-23.02Z"/>
</svg>