<svg id="Capa_1" enable-background="new 0 0 449.249 449.249" height="512" viewBox="0 0 449.249 449.249" width="512" xmlns="http://www.w3.org/2000/svg"><g><path id="path5911" clip-rule="evenodd" d="m257.205.111c-39.347-1.481-77.205 11.828-101 39.813-23.348 27.459-30.752 68.76-13.938 115.562-54.595 21.666-84.391 59.188-97.781 102.938-16.352 53.428-11.7 114.574-12.031 173.5.126 8.838 7.392 15.901 16.23 15.775 8.564-.122 15.514-6.964 15.77-15.525.34-60.475-3.132-119.488 10.625-164.438s41.332-77.386 113.844-92.938h.125c19.259-4.366 33.386-18.053 44.875-29.875s19.625-22.906 19.625-22.906c5.373-7.013 4.044-17.054-2.969-22.427-3.199-2.451-7.206-3.605-11.219-3.229-4.701.416-8.978 2.886-11.688 6.75 0 0-6.87 9.399-16.656 19.469s-23.298 19.6-29.062 20.906h.25c-3.243.695-6.323 1.5-9.438 2.281-14.556-39.345-8.016-66.337 7.906-85.062 16.067-18.895 44.051-29.771 75.344-28.594 61.585 2.32 124.411 56.999 128.75 151.781 2.22 48.5-6.378 102.651-25.031 141.969-9.327 19.659-21.046 35.521-34.375 45.719s-27.907 15.202-46.188 13.938c-41.236-2.853-68.624-15.347-84.938-38.031-15.97-22.207-22.662-57.279-14.844-109.094.472.04.931.009 1.406.062 18.557 2.087 41.289 15.589 61.875 48.438 4.703 7.499 14.595 9.766 22.094 5.062 7.499-4.703 9.766-14.595 5.062-22.094-24.179-38.582-54.755-59.73-85.5-63.188s-59.781 12.097-76.875 39c-.085.113-.168.228-.25.344-17.552 29.626-22.42 74.498-25.031 113.844s-1.531 72.656-1.531 72.656c-.406 8.825 6.42 16.309 15.245 16.714s16.309-6.42 16.714-15.245c.039-.845.011-1.691-.084-2.531 0 0-.965-31.819 1.531-69.438 2.488-37.481 9.9-81.118 20.562-99.344 3.356-5.252 7.11-9.558 11.156-13.125-5.143 49.118 2.008 88.1 22.5 116.594 23.137 32.172 61.708 48.002 108.656 51.25 25.812 1.786 49.239-6.156 67.906-20.438s32.942-34.428 43.844-57.406c21.803-45.956 30.528-104.007 28.094-157.187-4.968-108.578-79.866-179.248-159.56-182.25zm30.469 127.688c-6.395.35-11.965 4.482-14.156 10.5-1.582 4.188-10.659 15.666-19.375 23.875s-16.656 14.156-16.656 14.156c-7.149 5.209-8.721 15.227-3.512 22.376s15.227 8.721 22.376 3.512c.173-.126.343-.255.511-.388 0 0 9.047-6.915 19.125-16.406s21.69-20.651 27.406-35.781c3.241-8.219-.793-17.509-9.012-20.75-2.132-.841-4.419-1.214-6.707-1.094z" fill-rule="evenodd"/></g></svg>