<svg id="Capa_1" enable-background="new 0 0 512 512" height="512" viewBox="0 0 512 512" width="512" xmlns="http://www.w3.org/2000/svg"><g><path d="m397 300h-10v-24.258c25.661-15.949 43.203-43.777 44.869-75.742h5.131c24.813 0 45-20.187 45-45 0-19.555-12.541-36.228-30-42.42v-37.58c0-41.355-33.645-75-75-75h-80c-41.355 0-75 33.645-75 75v37.58c-17.459 6.192-30 22.865-30 42.42 0 24.813 20.187 45 45 45h5.131c1.666 31.965 19.208 59.793 44.869 75.742v24.258h-10c-63.411 0-115 51.589-115 115v15h-27c-24.813 0-45-20.187-45-45v-115h5c8.284 0 15-6.716 15-15s-6.716-15-15-15h-5v-30h15c24.813 0 45-20.187 45-45v-120c0-24.813-20.187-45-45-45h-60c-24.813 0-45 20.187-45 45v120c0 24.813 20.187 45 45 45h15v30h-5c-8.284 0-15 6.716-15 15s6.716 15 15 15h5v115c0 41.355 33.645 75 75 75h27v37c0 8.284 6.716 15 15 15h320c8.284 0 15-6.716 15-15v-82c0-63.411-51.589-115-115-115zm35-160h5c8.271 0 15 6.729 15 15s-6.729 15-15 15h-5zm-190 30h-5c-8.271 0-15-6.729-15-15s6.729-15 15-15h5zm-212-125c0-8.271 6.729-15 15-15h60c8.271 0 15 6.729 15 15v15h-90zm15 135c-8.271 0-15-6.729-15-15v-75h90v75c0 8.271-6.729 15-15 15zm207-70v-35c0-24.853 20.147-45 45-45h80c24.853 0 45 20.147 45 45v35h-.458l-56.221-37.481c-7.507-5.005-17.702-2.297-21.737 5.773-9.717 19.433-29.579 31.708-51.305 31.708zm20 85v-55h20.279c27.587 0 52.867-12.697 69.198-33.988l40.523 27.016v61.972c0 35.841-29.159 65-65 65s-65-29.159-65-65zm85 92.875v27.125c0 11.028-8.972 20-20 20s-20-8.972-20-20v-27.125c6.451 1.388 13.14 2.125 20 2.125s13.549-.737 20-2.125zm125 194.125h-290v-67c0-46.869 38.131-85 85-85h12.302c6.386 20.264 25.352 35 47.698 35s41.312-14.736 47.698-35h12.302c46.869 0 85 38.131 85 85z"/></g></svg>