<svg id="Слой_1" height="512" viewBox="0 0 591.92 591.92" width="512" xmlns="http://www.w3.org/2000/svg" data-name="Слой 1"><g transform="translate(-82.4 -27.74)"><path d="m484.91 245.14a15 15 0 0 1 -15-15v-82.2a15 15 0 0 0 -15-15h-53.25a15 15 0 0 1 0-30h53.25a45 45 0 0 1 45 45v82.2a15 15 0 0 1 -15 15z"/><path d="m351.7 619.66h-224.3a45 45 0 0 1 -45-45v-426.72a45 45 0 0 1 45-45h53.25a15 15 0 1 1 0 30h-53.25a15 15 0 0 0 -15 15v426.72a15 15 0 0 0 15 15h224.3a15 15 0 0 1 0 30z"/><path d="m184.48 295.55a15 15 0 0 1 -10.61-4.4l-28.45-28.45a15 15 0 1 1 21.21-21.22l17.85 17.86 42.52-42.57a15 15 0 0 1 21.25 21.23l-53.17 53.16a15 15 0 0 1 -10.6 4.39z"/><path d="m184.48 419.78a15 15 0 0 1 -10.61-4.39l-28.45-28.46a15 15 0 0 1 21.21-21.21l17.85 17.85 42.52-42.57a15 15 0 0 1 21.21 21.21l-53.17 53.17a14.91 14.91 0 0 1 -10.56 4.4z"/><path d="m184.48 544a15 15 0 0 1 -10.61-4.39l-28.45-28.46a15 15 0 1 1 21.21-21.15l17.85 17.85 42.52-42.6a15 15 0 0 1 21.21 21.21l-53.17 53.17a15 15 0 0 1 -10.56 4.37z"/><path d="m419.79 242.38h-122.14a15 15 0 0 1 0-30h122.14a15 15 0 1 1 0 30z"/><path d="m351.7 304.5h-54.05a15 15 0 0 1 0-30h54.05a15 15 0 1 1 0 30z"/><path d="m401.66 166.74h-221a15 15 0 0 1 -15-15v-67.6a15 15 0 0 1 15-15h56.12a56.42 56.42 0 0 1 108.77 0h56.12a15 15 0 0 1 15 15v67.6a15 15 0 0 1 -15.01 15zm-206-30h191v-37.6h-54.1a15 15 0 0 1 -15-15 26.41 26.41 0 0 0 -52.81 0 15 15 0 0 1 -15 15h-54.1z"/><path d="m501.74 619.66c-95.16 0-172.58-77.42-172.58-172.58s77.42-172.58 172.58-172.58 172.58 77.42 172.58 172.58-77.42 172.58-172.58 172.58zm0-315.16c-78.62 0-142.58 64-142.58 142.58s64 142.58 142.58 142.58 142.58-64 142.58-142.58-63.96-142.58-142.58-142.58z"/><path d="m533.34 545.39h-63.21a15 15 0 0 1 -15-15v-36.71h-36.7a15 15 0 0 1 -15-15v-63.2a15 15 0 0 1 15-15h36.7v-36.71a15 15 0 0 1 15-15h63.21a15 15 0 0 1 15 15v36.71h36.71a15 15 0 0 1 15 15v63.2a15 15 0 0 1 -15 15h-36.71v36.71a15 15 0 0 1 -15 15zm-48.21-30h33.21v-36.71a15 15 0 0 1 15-15h36.71v-33.2h-36.71a15 15 0 0 1 -15-15v-36.71h-33.21v36.71a15 15 0 0 1 -15 15h-36.7v33.2h36.7a15 15 0 0 1 15 15z"/></g></svg>