<svg id="line" height="512" viewBox="0 0 64 64" width="512" xmlns="http://www.w3.org/2000/svg"><path d="m22.64551 27.13867c8.34961 0 15.14258-4.86914 15.14258-10.85351-.78683-14.38793-29.50291-14.38131-30.28518.0001.00002 5.98427 6.79299 10.85341 15.1426 10.85341zm0-19.707c7.24707 0 13.14258 3.97168 13.14258 8.85352-.67059 11.73384-25.61886 11.728-26.28518-.00009.00002-4.88178 5.89553-8.85346 13.1426-8.85346z"/><path d="m16.7666 15.61621c1.75544 1.29661 7.47633 3.12626 11.27441.47634a1.00018 1.00018 0 1 0 -1.05273-1.70095c-4.25488 2.63379-9.082-.42187-9.13183-.45215a1.00013 1.00013 0 0 0 -1.08985 1.67676z"/><path d="m45.19531 22.001a14.35046 14.35046 0 0 0 -7.44331 4.09373c-6.23322 6.02592-5.74661 16.04416 2.76769 16.22278 5.61676.22376 12.498-5.87065 13.31223-11.68 1.11148-5.58009-3.05317-9.75051-8.63661-8.63651zm6.668 8.28418a12.34188 12.34188 0 0 1 -3.53909 6.38182c-3.793 3.794-8.93359 4.82715-11.46 2.30176-4.41388-4.55954 2.38053-14.1806 8.68375-14.99887 4.00947-.88166 7.24474 2.059 6.31531 6.31527z"/><path d="m46.02637 27.94336a1.0033 1.0033 0 0 0 -1.20313.74414c-.833 3.543-4.78906 4.43848-4.957 4.47559a.99993.99993 0 0 0 .41508 1.956c.21871-.04589 5.36129-1.18065 6.48922-5.97265a1.00131 1.00131 0 0 0 -.74417-1.20308z"/><path d="m11.21973 37.30957c-6.84513 7.07074 2.30384 21.08577 12.01581 22.494 11.81523 1.93493 13.9414-11.43627 5.443-19.62577-5.60334-5.60358-13.43538-6.89264-17.45881-2.86823zm18.91308 18.91309c-4.0709 3.773-10.87278.98584-14.63075-2.86714-11.61815-12.69447.5231-22.67564 11.76255-11.76359 4.82426 4.82407 6.11139 11.38756 2.8682 14.63073z"/><path d="m25.56543 49.05762c-4.57227-1.0752-5.751-6.3125-5.76172-6.36524a1.00018 1.00018 0 0 0 -1.957.41407c.05566.26562 1.43848 6.52832 7.25977 7.89843a1.00042 1.00042 0 0 0 .45895-1.94726z"/><path d="m51.34863 5.73926c-2.8831-1.67854-7.59163-2.92026-9.48837.00774-1.58183 3.09969 1.83974 6.56352 4.73731 8.2217 8.60652 5.14839 14.76473-2.02086 4.75106-8.22944zm3.00586 7.22168c-.64844 1.124-3.67676 1.05469-6.75683-.72461-1.966-1.20321-4.64664-3.36421-4.0051-5.48924 2.85929-2.98046 12.21794 3.32935 10.76193 6.21385z"/><path d="m43.74512 49.99805c-8.16069.04362-8.16 7.32.00011 7.36327 8.15922-.04378 8.15854-7.31985-.00011-7.36327zm0 5.36328c-2.5 0-4.15821-1.01172-4.15821-1.68164s1.65821-1.68164 4.15821-1.68164c2.499 0 4.15722 1.01172 4.15722 1.68164s-1.6582 1.68164-4.15722 1.68164z"/></svg>