<svg id="&#x421;&#x43B;&#x43E;&#x439;_1" enable-background="new 0 0 128 128" height="512" viewBox="0 0 128 128" width="512" xmlns="http://www.w3.org/2000/svg"><path d="m92 66v-47c0-1.1-.9-2-2-2h-52c-1.1 0-2 .9-2 2v47c0 1.1.9 2 2 2h52c1.1 0 2-.9 2-2zm-4-2h-48v-43h48z"/><g><path d="m86 0h-44c-12.7 0-23 10.3-23 23v58c0 12.7 10.3 23 23 23h8v22c0 1.1.9 2 2 2h24c1.1 0 2-.9 2-2v-22h8c12.7 0 23-10.3 23-23v-58c0-12.7-10.3-23-23-23zm-12 124h-20v-36h20zm31-43c0 10.5-8.5 19-19 19h-8v-12h4c1.1 0 2-.9 2-2s-.9-2-2-2h-36c-1.1 0-2 .9-2 2s.9 2 2 2h4v12h-8c-10.5 0-19-8.5-19-19v-58c0-10.5 8.5-19 19-19h44c10.5 0 19 8.5 19 19z"/><path d="m64 120c3.3 0 6-2.7 6-6s-2.7-6-6-6-6 2.7-6 6 2.7 6 6 6zm0-8c1.1 0 2 .9 2 2s-.9 2-2 2-2-.9-2-2 .9-2 2-2z"/></g><path d="m64 58c5.9 0 10.8-4.8 10.8-10.7 0-10.9-9.1-19.4-9.4-19.7-.8-.7-2-.7-2.8.1-.4.4-9.4 9.9-9.4 19.6 0 5.9 4.9 10.7 10.8 10.7zm.1-26c2.3 2.7 6.7 8.6 6.7 15.3 0 3.8-3.1 6.8-6.8 6.8-3.8 0-6.8-3-6.8-6.8 0-6.1 4.5-12.5 6.9-15.3z"/></svg>