<svg id="&#x421;&#x43B;&#x43E;&#x439;_1" viewBox="0 0 2072.28 2067" xmlns="http://www.w3.org/2000/svg"><g fill="#fff" stroke="#000" stroke-linecap="round" stroke-linejoin="round" stroke-width="65"><circle cx="950.21" cy="247.52" r="215.02"/><g transform="translate(-713.86 -716.5)"><path d="m1680.8 2418.87c254.23 0 331.33-173.54 354.69-281.25l-14-1.63a121 121 0 0 1 -105.85-103.6 802.3 802.3 0 0 1 -6.41-138.56l-476.17-11.49s9.39 64.18.47 143.71a127.51 127.51 0 0 1 -112.85 112.44c28.32 110.94 112.17 280.38 360.12 280.38z"/><path d=""/><path d="m2059.67 1504.39s11.93-162.57 11.93-206.3c0-228.9-178.95-362-409.64-362s-409.64 133.14-409.64 362c0 90.55 36.5 201.76 36.5 201.76l-11.28 2.9c-16.73-5.73-37.66 12-43.9 30.64s16.27 81.06 21.39 100.13c10.75 40 29 58.54 37.94 63.93s27.75 11.77 36.13 5.39l22.75 58.28c34.83 96 117.84 152.75 197.38 217.46 23.4 19 47 38.23 74 51.94 37 18.82 67.52 18.82 104.47 0 26.92-13.71 50.55-32.9 74-51.94 79.54-64.71 162.55-121.43 197.38-217.46l16.79-58.28c8.37 6.38 27.16 0 36.13-5.39s27.18-23.92 37.94-63.93c5.13-19.07 27.64-81.5 21.39-100.13s-27.17-36.37-43.9-30.64"/><path d="m1837.43 1176.21s155.18 327.46 223.57 343.24c7.06-33.79 19.07-147.74 19.07-176.88 0-302.24-210.67-426-419.31-425.43-261.9.66-412.69 173.05-412.69 426.54 0 36.37 19 128.1 29.8 171.17 134.13 11.83 559.56-338.64 559.56-338.64z"/><path d="m2520.64 2582.9v-66.11c0-175.09-141.94-317-317-317l-168.11-62.13c-23.37 107.71-100.46 281.25-354.69 281.25-247.95 0-331.77-169.44-360.08-280.37l-172.36 61.26c-175.09 0-317 141.94-317 317v66.11"/><path d="m1839.92 1179.21s58.24-143.28 66.13-194.57"/></g><circle cx="1552.63" cy="1624.58" r="409.92"/><path d="m2488.95 2341.84a60 60 0 0 0 -53.19 2.31c-7.12 3.9-15.74-1.49-16.07-9.64a154.87 154.87 0 0 0 -14.59-59.51c-3.47-7.38 1.62-16.2 9.72-16.1a60 60 0 0 0 44-18.33c22.13-22.78 22.65-60.52 1.18-83.93a60.51 60.51 0 0 0 -105 38.36c-.41 8.58-9.12 13.79-16.64 9.73a149.63 149.63 0 0 0 -61.87-17.69c-8.2-.51-13.56-9.26-9.49-16.45a61.09 61.09 0 0 0 3.34-53.38c-10.32-25.46-37.48-41-64.51-37.05a61.05 61.05 0 0 0 -23.38 112.15c7.19 4.47 7.65 14.63.55 19.26a153.54 153.54 0 0 0 -43.47 42.91c-4.54 6.76-14.69 6.79-18.71-.29a60.36 60.36 0 0 0 -44.05-30.09c-27-4-54.16 11.68-64.47 37.14-13.88 34.28 5.09 72.08 39.47 81.9a59.86 59.86 0 0 0 44.7-4.72c7.48-4 16.43.77 16.78 9.27a154.87 154.87 0 0 0 14.58 59.5c3.47 7.38-1.62 16.2-9.73 16.1a60 60 0 0 0 -44 18.33c-22.13 22.78-22.65 60.51-1.18 83.93a60.51 60.51 0 0 0 105-38.33c.41-8.58 9.12-13.79 16.64-9.73a149.62 149.62 0 0 0 61.87 17.69c8.2.51 13.56 9.26 9.49 16.45a61.09 61.09 0 0 0 -3.34 53.38c10.32 25.46 37.48 41 64.51 37.05a61.05 61.05 0 0 0 23.38-112.15c-7.19-4.47-7.65-14.63-.55-19.26a153.53 153.53 0 0 0 43.46-42.91c4.74-7 14.83-6.35 19.12 1a60.42 60.42 0 0 0 111.9-21.16c4.53-27.17-10.4-54.83-35.45-65.74z" transform="translate(-713.86 -716.5)"/><path d="m2346.5 1205.3-58.14 11.94 55.18-30.13a16.62 16.62 0 0 0 8.52-17 174.17 174.17 0 0 1 8.63-85.11 16.71 16.71 0 0 0 -6.47-19.7l-44.69-29.46 53.62 15.74a16.69 16.69 0 0 0 18.37-6.44 174 174 0 0 1 60.6-53.56 16.63 16.63 0 0 0 8-19.6l-17.82-57.65 36.7 54.09a16.64 16.64 0 0 0 17.29 6.94 174 174 0 0 1 94.9 6 16.61 16.61 0 0 0 17.54-4.25l43.32-45.43-24.95 49.79a16.77 16.77 0 0 0 5.48 21.24 173.87 173.87 0 0 1 61.71 78.22l69.31-8.42-50.43 22.41a16.71 16.71 0 0 0 -9.63 18.31 174.18 174.18 0 0 1 -7 88.83 16.68 16.68 0 0 0 5.45 18.66l42.59 33.37-48.29-18.58a16.69 16.69 0 0 0 -19.8 6.21 173.93 173.93 0 0 1 -68.6 59 16.75 16.75 0 0 0 -8.86 20l15.27 49.41-34.02-50.13a13.35 13.35 0 0 0 -13.62-5.59 174.05 174.05 0 0 1 -100.55-10.33 13.37 13.37 0 0 0 -14.88 3.07l-44.85 47 26-51.85a16.76 16.76 0 0 0 -4.83-20.77 174 174 0 0 1 -52.4-66.62 16.74 16.74 0 0 0 -18.65-9.61z" transform="translate(-713.86 -716.5)"/><path d="m804.5 1925.3-58.14 11.94 55.18-30.13a16.62 16.62 0 0 0 8.52-17 174.17 174.17 0 0 1 8.64-85.11 16.71 16.71 0 0 0 -6.47-19.7l-44.69-29.46 53.62 15.74a16.69 16.69 0 0 0 18.37-6.44 174 174 0 0 1 60.6-53.56 16.63 16.63 0 0 0 8-19.6l-17.82-57.65 36.69 54.09a16.64 16.64 0 0 0 17.29 6.94 174 174 0 0 1 94.9 6 16.61 16.61 0 0 0 17.54-4.25l43.32-45.43-24.95 49.79a16.77 16.77 0 0 0 5.48 21.24 173.87 173.87 0 0 1 61.71 78.22l69.31-8.42-50.43 22.41a16.71 16.71 0 0 0 -9.63 18.31 174.18 174.18 0 0 1 -7 88.83 16.68 16.68 0 0 0 5.45 18.66l42.59 33.37-48.29-18.58a16.69 16.69 0 0 0 -19.8 6.21 173.93 173.93 0 0 1 -68.6 59 16.75 16.75 0 0 0 -8.86 20l15.27 49.41-34.02-50.13a13.35 13.35 0 0 0 -13.62-5.59 174.05 174.05 0 0 1 -100.55-10.33 13.37 13.37 0 0 0 -14.88 3.07l-44.85 47 26-51.85a16.76 16.76 0 0 0 -4.83-20.77 174 174 0 0 1 -52.4-66.62 16.74 16.74 0 0 0 -18.65-9.61z" transform="translate(-713.86 -716.5)"/></g></svg>