<svg id="Outline" viewBox="0 0 512 512" xmlns="http://www.w3.org/2000/svg"><path d="m435.173 180.461a6 6 0 0 1 -3.427-10.929l8.917-6.191a6 6 0 1 1 6.844 9.857l-8.917 6.191a5.975 5.975 0 0 1 -3.417 1.072z"/><path d="m442.727 181.824a5.994 5.994 0 0 1 -4.934-2.578l-6.191-8.918a6 6 0 0 1 9.857-6.844l6.191 8.918a6 6 0 0 1 -4.923 9.422z"/><path d="m467.656 186.322a6 6 0 0 1 -3.427-10.929l8.917-6.191a6 6 0 1 1 6.844 9.858l-8.918 6.19a5.967 5.967 0 0 1 -3.416 1.072z"/><path d="m475.21 187.685a5.992 5.992 0 0 1 -4.934-2.579l-6.191-8.917a6 6 0 0 1 9.857-6.843l6.191 8.917a6 6 0 0 1 -4.923 9.422z"/><path d="m464.526 210.935a5.981 5.981 0 0 1 -3.891-1.435c-7.689-6.557-19.391-7.431-23.53-4.819a6 6 0 0 1 -6.4-10.149c9.62-6.071 26.894-3.4 37.721 5.838a6 6 0 0 1 -3.9 10.565z"/><path d="m463.937 220.275a10.634 10.634 0 0 1 -2.684-.354c-6.317-1.644-7.6-7.3-8.454-11.043a24.069 24.069 0 0 0 -1.8-5.669 6 6 0 0 1 8.077-8.06l9.556 4.875a6.006 6.006 0 0 1 2.565 2.516c1.182 2.211 3.263 9.762-.489 14.527a8.433 8.433 0 0 1 -6.771 3.208z"/><circle cx="232" cy="274.5" r="20"/><path d="m382.958 269.739a20.116 20.116 0 0 1 -10.34-2.873 18.048 18.048 0 0 1 -8.475-11.01c-3.4-14.13 3.516-25.611 11.535-37.1 6.732-9.643 14.292-16.216 20.366-21.5a85.926 85.926 0 0 0 8.207-7.719c6.138-7.079 7.227-13.821 3.425-21.219-2.233-4.343-7.535-9.747-11.58-11.8-16.874-8.566-26.636-25.683-26-36.63a20.9 20.9 0 0 1 12.631-17.768 20.494 20.494 0 0 1 21.235 2.433 24.161 24.161 0 0 1 6.9 9.428l.4.835a6.576 6.576 0 0 0 8.314 3.2c18.015-7.155 44.822-6.844 66.024 15.48a72.927 72.927 0 0 1 18.663 65.579c-4.916 24.2-20.511 44.154-41.717 53.381-16.858 7.334-33.9 6.939-50.664-1.175a6.75 6.75 0 0 0 -7.765 1.327c-.19.343-.533 1.157-.789 1.764-1.771 4.2-5.067 12.008-15.152 14.677a20.368 20.368 0 0 1 -5.218.69zm8.542-157.514a9.546 9.546 0 0 0 -3.886.859 9.018 9.018 0 0 0 -5.541 7.5c-.31 5.356 5.927 18.371 19.454 25.238 6.229 3.161 13.461 10.476 16.822 17.015 6.072 11.815 4.332 23.767-5.032 34.566a95.067 95.067 0 0 1 -9.4 8.912c-5.867 5.1-12.517 10.883-18.4 19.311-6.635 9.5-11.944 18.125-9.707 27.42a6.243 6.243 0 0 0 2.956 3.513 8.212 8.212 0 0 0 6.336.9c4.084-1.081 5.489-3.767 7.166-7.741a17.143 17.143 0 0 1 2.724-4.9 18.682 18.682 0 0 1 22.115-4.324c13.469 6.522 27.144 6.848 40.647.972 17.356-7.552 30.67-24.705 34.745-44.766a61.071 61.071 0 0 0 -15.6-54.926c-22.051-23.219-47.931-14.562-52.894-12.591a18.629 18.629 0 0 1 -23.535-9.107l-.443-.924c-1.058-2.223-1.823-3.829-3.55-5.207a7.893 7.893 0 0 0 -4.977-1.72z"/><path d="m232 134a53 53 0 1 1 53-53 53.06 53.06 0 0 1 -53 53zm0-94a41 41 0 1 0 41 41 41.046 41.046 0 0 0 -41-41z"/><path d="m353.417 329.462c-.388-.68-.811-1.42-1.246-2.233-4.333-8.121-12.5-47.221-17.912-73.095-2.686-12.849-5.008-23.959-6.425-29.383-5.9-26.734-18.041-48.854-35.106-63.974-16.728-14.818-37.723-22.65-60.728-22.65s-44 7.832-60.728 22.65c-17.065 15.12-29.2 37.241-35.106 63.974-1.417 5.425-3.74 16.535-6.425 29.383-5.408 25.878-13.581 64.984-17.912 73.1-.435.813-.858 1.553-1.246 2.233-1.852 3.248-3.767 6.607-2.466 10.648a10.415 10.415 0 0 0 4.854 5.654 13.009 13.009 0 0 0 .639 3.557c3.124 8.484 9.709 9.222 13.644 9.663l.476.054c7.8.9 17.558-6.665 24.364-13.171.125-.119.251-.24.376-.361-5.515 54.765-5.324 109-4.318 126.2a.85.85 0 0 1 -.115.547 23 23 0 0 0 -4.632 8.889 9.415 9.415 0 0 0 1.535 8.267 9.2 9.2 0 0 0 7.5 3.675c10.979-.1 40.892.066 46.813.1a9.326 9.326 0 0 0 8.884-6.429c2.541-7.788 15.51-71.183 23.866-112.548 8.356 41.366 21.325 104.762 23.87 112.558a9.332 9.332 0 0 0 8.916 6.419c5.885-.035 35.8-.206 46.78-.1a9.329 9.329 0 0 0 9.033-11.928 23.019 23.019 0 0 0 -4.637-8.9.876.876 0 0 1 -.112-.567c1-17.178 1.195-71.407-4.32-126.182l.374.359c6.808 6.508 16.563 14.07 24.362 13.174l.48-.055c3.935-.441 10.52-1.179 13.655-9.691a13 13 0 0 0 .628-3.529 10.415 10.415 0 0 0 4.854-5.654c1.298-4.047-.617-7.406-2.469-10.654zm-14.34 15.222a3.733 3.733 0 0 1 -2.542 2.219 5.147 5.147 0 0 1 -2.739-.157c-2.328-.882-7.1-3.341-13.6-9.558-1.8-1.714-3.5-3.5-5.047-5.262a28.859 28.859 0 0 1 -6.962-15.773c-2.6-22.838-10.822-91.774-18.076-114.2a6.14 6.14 0 0 0 -6.951-4.25 6 6 0 0 0 -4.531 7.745c8.158 25.028 19.561 128.339 20.11 133.2 6.315 56.7 6.169 114.619 5.135 132.314a12.651 12.651 0 0 0 3.045 9.174 7.837 7.837 0 0 1 .684.923c-11.8-.042-33.027.068-40.851.113-3.346-12.865-15.81-73.55-26.862-128.572a8.166 8.166 0 0 0 -7.527-6.644 7.931 7.931 0 0 0 -8.2 6.416c-11.064 55.093-23.561 115.942-26.906 128.8-7.87-.045-29.065-.154-40.852-.113a7.714 7.714 0 0 1 .684-.922 12.645 12.645 0 0 0 3.047-9.154c-1.036-17.718-1.181-75.64 5.132-132.325.55-4.867 11.753-107.135 20.031-132.969a6.18 6.18 0 0 0 -3.535-7.73 6 6 0 0 0 -7.8 3.765c-7.288 22.361-15.544 91.526-18.147 114.417a28.877 28.877 0 0 1 -6.963 15.781c-1.546 1.765-3.252 3.549-5.049 5.264-7.874 7.527-13.345 9.524-14.674 9.927-1 .305-4.006 0-4.207-2.434-.154-2-.421-5.467-2.991-7.6a1.982 1.982 0 0 1 -.46-2.5c.351-.624.719-1.284.941-1.7 4.763-8.92 11.18-38.523 19.074-76.3 2.672-12.783 6.355-29.063 6.373-29.142 10.651-48.415 42.106-77.32 84.14-77.32s73.489 28.905 84.14 77.32c.018.079 3.7 16.359 6.373 29.142 7.894 37.772 14.311 67.375 19.074 76.3.18.338.459.839.746 1.351a2.478 2.478 0 0 1 -.371 2.986c-2.263 2.195-2.04 5.692-2.886 7.468z"/><path d="m232 321.5a47 47 0 1 1 47-47 47.053 47.053 0 0 1 -47 47zm0-82a35 35 0 1 0 35 35 35.04 35.04 0 0 0 -35-35z"/><path d="m460.305 83.4-1.625 12.63a4.35 4.35 0 0 1 -8.624.042l-1.75-12.613a6.053 6.053 0 0 1 11.994-1.665 6.253 6.253 0 0 1 .005 1.606z"/><circle cx="454.424" cy="107.188" r="4.518"/><path d="m487.539 93.739-7.439 10.338a4.35 4.35 0 0 1 -7.607-4.062l4.457-11.929a6.054 6.054 0 0 1 11.35 4.237 6.334 6.334 0 0 1 -.761 1.416z"/><circle cx="471.054" cy="111.87" r="4.518"/><path d="m291.105 280.5h-28.105a6 6 0 0 1 0-12h28.105a4.991 4.991 0 0 0 4.164-2.231l56.318-84.683a16.963 16.963 0 0 1 14.155-7.586h25.758a6 6 0 0 1 0 12h-25.758a4.988 4.988 0 0 0 -4.163 2.231l-56.318 84.683a16.966 16.966 0 0 1 -14.156 7.586z"/></svg>