<svg height="512" viewBox="0 0 64 64" width="512" xmlns="http://www.w3.org/2000/svg"><path d="m46.764 2c-.35716-.0079841-.69144.17516-.87695.48046-4.327 7.1324-11.81 15.141-24.453 17.572-7.9975 1.5379-14.256 5.0338-19.088 9.2166-.4173.36143-.46276.99263-.10156 1.4101.36143.41729.99265.46275 1.4102.10156 4.6037-3.9853 10.521-7.2948 18.158-8.7634 13.302-2.5579 21.27-11.054 25.785-18.498.28744-.47237.13694-1.0883-.33594-1.375-.15042-.091133-.32221-.14098-.49805-.14453zm3.6562.51952c-4.5446 8.3079-13.022 18.537-28.232 21.462-8.7712 1.6867-15.242 5.9636-19.908 10.808-.38298.398-.37073 1.0311.027344 1.414.39802.38297 1.0311.37072 1.4141-.027339 4.4347-4.6047 10.509-8.627 18.846-10.23 15.926-3.0627 24.89-13.842 29.607-22.466.26532-.48432.08782-1.092-.39648-1.3574-.62566-.26528-1.0958-.02989-1.3574.39647zm5.5801 4.4803c-1.645 0-3 1.355-3 2.9999 0 1.645 1.355 2.9999 3 2.9999s3-1.355 3-2.9999c0-1.645-1.355-2.9999-3-2.9999zm0 1.9999c.56413 0 1 .43586 1 .99997s-.43587.99997-1 .99997-1-.43586-1-.99997.43587-.99997 1-.99997zm-6 3.9999c-1.645 0-3 1.355-3 2.9999 0 1.645 1.355 2.9999 3 2.9999s3-1.355 3-2.9999c0-1.645-1.355-2.9999-3-2.9999zm0 1.9999c.56413 0 1 .43586 1 .99997s-.43587.99997-1 .99997-1-.43586-1-.99997.43587-.99997 1-.99997zm9 0c-1.645 0-3 1.355-3 2.9999 0 1.645 1.355 2.9999 3 2.9999s3-1.355 3-2.9999c0-1.645-1.355-2.9999-3-2.9999zm0 1.9999c.56413 0 1 .43586 1 .99997s-.43587.99997-1 .99997-1-.43586-1-.99997.43587-.99997 1-.99997zm-13 3.9999c-7.7201 0-14 6.2797-14 14 0 1.9687.41314 3.8403 1.1504 5.5409-10.872 4.5616-17.496 12.98-21.324 19.978-.26532.48432-.08782 1.092.39648 1.3574.48433.26532 1.092.08782 1.3574-.39647 4.5446-8.3079 13.022-18.537 28.232-21.462 8.7712-1.6867 15.242-5.9636 19.908-10.808.38298-.39801.37073-1.0311-.02734-1.414-.39802-.38296-1.0311-.37072-1.4141.02734-.47918.49754-.98175.98513-1.5 1.4668-2.1894-4.88-7.093-8.2888-12.779-8.2888zm0 1.9999c5.114 0 9.4663 3.182 11.197 7.6775-4.0599 3.3577-9.2104 6.1146-15.764 7.3748-2.2832.43906-4.4189 1.0404-6.4238 1.7675-.64633-1.475-1.0098-3.1034-1.0098-4.8202 0-6.6391 5.3607-12 12-12zm-19 4.9999c-1.645 0-3 1.355-3 2.9999 0 1.645 1.355 2.9999 3 2.9999s3-1.355 3-2.9999c0-1.645-1.355-2.9999-3-2.9999zm0 1.9999c.56413 0 1 .43586 1 .99997s-.43587.99997-1 .99997-1-.43586-1-.99997.43587-.99997 1-.99997zm33.811 2.9921c-.17213.03346-.33244.11159-.46484.22656-4.6037 3.9853-10.521 7.2948-18.158 8.7634-13.302 2.5579-21.27 11.054-25.785 18.498-.28744.47237-.13694 1.0883.33594 1.375.47238.28744 1.0884.13694 1.375-.33593 4.327-7.1324 11.81-15.141 24.453-17.572 7.9975-1.5379 14.256-5.0338 19.088-9.2166.4173-.36142.46276-.99263.10156-1.4101-.23379-.27049-.59421-.39559-.94531-.32812zm-53.811 6.0077c-1.645 0-3 1.355-3 2.9999 0 1.645 1.355 2.9999 3 2.9999s3-1.355 3-2.9999c0-1.645-1.355-2.9999-3-2.9999zm13 0c-1.645 0-3 1.355-3 2.9999 0 1.645 1.355 2.9999 3 2.9999s3-1.355 3-2.9999c0-1.645-1.355-2.9999-3-2.9999zm-13 1.9999c.56413 0 1 .43586 1 .99997s-.43587.99997-1 .99997-1-.43586-1-.99997.43587-.99997 1-.99997zm13 0c.56413 0 1 .43586 1 .99997s-.43587.99997-1 .99997-1-.43586-1-.99997.43587-.99997 1-.99997z"/></svg>