<svg id="Capa_1" enable-background="new 0 0 512 512" height="512" viewBox="0 0 512 512" width="512" xmlns="http://www.w3.org/2000/svg"><g><g><path d="m414.986 95.357-23.689-10.507c-17.336-7.692-37.174-6.109-53.063 4.225-15.801 10.276-25.234 27.635-25.234 46.436v23.576l-25.895-13.716c-3.492-1.85-5.661-5.453-5.661-9.405v-110.101c0-14.005-10.767-25.357-24.512-25.847-6.96-.263-13.566 2.278-18.577 7.113-5.015 4.839-7.776 11.343-7.776 18.311v110.523c0 3.952-2.169 7.556-5.662 9.405l-25.917 13.73v-23.589c0-18.801-9.433-36.16-25.233-46.436-15.891-10.335-35.728-11.917-53.063-4.225l-23.69 10.507c-3.71 1.646-7.4 3.448-10.968 5.359-3.65 1.956-5.025 6.502-3.069 10.153 1.957 3.65 6.5 5.024 10.153 3.069 3.24-1.736 6.594-3.375 9.966-4.871l23.689-10.507c12.677-5.624 27.184-4.47 38.804 3.088 11.528 7.499 18.411 20.158 18.411 33.863v45.941c-17.331 4.129-30.899 9.158-41.728 14.704-2.377-2.499-4.846-4.842-7.255-7.12-3.609-3.413-7.019-6.636-9.887-10.152-3.359-4.12-6.247-22.643 1.746-36.461 2.074-3.586.849-8.174-2.736-10.248-3.585-2.072-8.175-.849-10.248 2.736-6.928 11.978-8.439 27.491-6.16 39.435-15.409 8.384-30.119 7.17-30.249 7.162-4.106-.421-7.796 2.597-8.206 6.72-.411 4.121 2.598 7.796 6.72 8.206.209.021 1.547.145 3.748.145 6.283 0 19.593-1.021 33.7-8.296.021.026.04.055.061.08 3.482 4.27 7.409 7.982 11.206 11.572 1.482 1.401 2.922 2.764 4.307 4.128-16.853 11.732-24.856 24.807-31.888 36.298-8.507 13.901-15.227 24.882-35.03 31.622-3.921 1.334-6.018 5.595-4.683 9.517 1.062 3.12 3.977 5.085 7.099 5.085.802 0 1.617-.129 2.418-.402 7.02-2.389 12.791-5.295 17.658-8.561 1.752 6.34 3.46 18.078-3.309 28.837-3.022 4.805-7.59 12.066-32.627 21.181-3.893 1.417-5.899 5.722-4.482 9.613 1.109 3.046 3.984 4.937 7.049 4.937.852 0 1.718-.146 2.564-.454 23.351-8.502 32.234-16.224 37.581-23.436 12.123 7.488 17.858 20.316 15.45 35.167-.663 4.089 2.114 7.94 6.203 8.603.406.065.811.098 1.209.098 3.614 0 6.798-2.618 7.395-6.301 3.444-21.236-5.352-40.21-23.126-50.781 6.23-17.738-.131-34.346-1.69-37.951-.021-.047-.047-.091-.068-.138 5.325-5.969 9.284-12.435 13.183-18.807 2.281-3.729 4.578-7.48 7.177-11.2 12.841 7.385 18.98 20.518 16.503 35.792-.663 4.089 2.114 7.94 6.203 8.603.406.066.811.098 1.209.098 3.614 0 6.798-2.618 7.395-6.301 3.346-20.64-4.868-39.14-21.649-49.869 10.811-10.857 27.221-20.856 57.237-28.421v135.462c0 28.479-23.28 51.646-51.896 51.646h-65.208c-28.616 0-51.896-23.167-51.896-51.644v-88.197c0-42.236 18.194-82.548 49.918-110.595 3.104-2.744 3.395-7.483.651-10.587-2.743-3.104-7.483-3.394-10.587-.651-34.942 30.894-54.982 75.3-54.982 121.833v88.197c0 36.748 30.01 66.644 66.896 66.644h65.207c36.887 0 66.897-29.896 66.897-66.644v-115.681l50.273-26.63c4.221-2.234 9.258-2.235 13.477.001l50.25 26.617v53.213c-48.669 16.931-83.697 63.26-83.697 117.625 0 68.649 55.851 124.5 124.5 124.5 30.279 0 59.483-11.042 82.233-31.093 3.107-2.739 3.406-7.478.668-10.586-2.74-3.108-7.477-3.405-10.586-.668-20.009 17.634-45.69 27.346-72.315 27.346-60.379 0-109.5-49.121-109.5-109.5s49.121-109.5 109.499-109.5c60.379 0 109.501 49.121 109.501 109.5 0 20.485-5.718 40.473-16.535 57.804-2.193 3.514-1.123 8.14 2.391 10.333 3.514 2.194 8.141 1.123 10.334-2.391 11.822-18.94 18.272-40.668 18.763-63.002 20.906-11.86 33.744-33.704 33.744-57.888v-88.197c0-64.253-38.08-122.661-97.014-148.802zm-148.542-22.716h-20.865v-22.209h20.865zm-20.865 15h20.865v22.209h-20.865zm3.192-69.715c2.055-1.982 4.768-3.021 7.628-2.917 5.539.197 10.045 5.067 10.045 10.856v9.567h-20.865v-9.989c0-2.861 1.134-5.531 3.192-7.517zm-49.771 158.149 9.351-4.953 9.941 18.36-19.292 10.218zm43.252.715-10.704 5.669-9.941-18.36 10.33-5.472c8.415-4.456 13.642-13.14 13.642-22.661v-11.116h20.865v11.116c0 9.521 5.227 18.205 13.641 22.661l10.313 5.463-9.941 18.361-10.685-5.66c-8.617-4.566-18.904-4.563-27.52-.001zm51.461 12.682 9.941-18.36 9.345 4.95v23.625zm203.287 142.884c0 16.041-7.296 30.76-19.571 40.433-7.302-61.74-59.955-109.789-123.628-109.789-8.844 0-17.474.934-25.802 2.696v-130.185c0-13.705 6.883-26.364 18.411-33.862 11.62-7.558 26.127-8.71 38.804-3.088l23.689 10.507c53.517 23.738 88.097 76.764 88.097 135.091z"/><path d="m305.72 350.482c-5.645-2.06-11.756-1.799-17.204.736-11.249 5.232-16.144 18.642-10.91 29.891l16.872 36.267c2.534 5.449 7.04 9.585 12.686 11.645 2.517.919 5.125 1.376 7.727 1.376 3.234 0 6.458-.707 9.478-2.111 5.449-2.535 9.586-7.041 11.646-12.686 2.061-5.646 1.8-11.756-.736-17.204l-16.871-36.267c-2.537-5.45-7.043-9.586-12.688-11.647zm16.203 59.974c-.687 1.882-2.065 3.384-3.882 4.229-.001 0-.001 0-.001 0-1.815.846-3.851.934-5.734.245-1.882-.687-3.383-2.065-4.229-3.881l-16.871-36.267c-1.745-3.75-.113-8.221 3.636-9.965 1.007-.468 2.081-.703 3.159-.703.867 0 1.737.152 2.576.458 1.882.688 3.383 2.065 4.229 3.882l16.872 36.268c.844 1.817.932 3.854.245 5.734z"/><path d="m388.945 359.698c12.406 0 22.5-10.094 22.5-22.5s-10.094-22.5-22.5-22.5h-40c-12.406 0-22.5 10.094-22.5 22.5s10.094 22.5 22.5 22.5zm-47.5-22.5c0-4.136 3.364-7.5 7.5-7.5h40c4.136 0 7.5 3.364 7.5 7.5s-3.364 7.5-7.5 7.5h-40c-4.135 0-7.5-3.364-7.5-7.5z"/><path d="m388.441 449.528c17.277 0 31.334-14.056 31.334-31.333s-14.057-31.334-31.334-31.334-31.333 14.057-31.333 31.334 14.056 31.333 31.333 31.333zm0-47.667c9.007 0 16.334 7.327 16.334 16.334 0 9.006-7.327 16.333-16.334 16.333-9.006 0-16.333-7.327-16.333-16.333 0-9.007 7.328-16.334 16.333-16.334z"/><path d="m443.214 187.409c-1.019-5.227-3.074-10.088-5.954-14.352l4.665-4.665c2.929-2.93 2.929-7.678 0-10.607-2.93-2.928-7.678-2.928-10.607 0l-4.666 4.666c-4.263-2.879-9.124-4.935-14.35-5.953v-6.588c0-4.143-3.357-7.5-7.5-7.5s-7.5 3.357-7.5 7.5v6.588c-5.227 1.019-10.088 3.074-14.351 5.954l-4.666-4.666c-2.93-2.928-7.678-2.928-10.607 0-2.929 2.93-2.929 7.678 0 10.607l4.666 4.666c-2.879 4.263-4.935 9.124-5.953 14.351h-6.588c-4.143 0-7.5 3.357-7.5 7.5s3.357 7.5 7.5 7.5h6.588c1.019 5.227 3.074 10.087 5.953 14.35l-4.665 4.666c-2.929 2.93-2.929 7.678 0 10.607 2.894 2.895 7.718 2.887 10.608 0l4.665-4.665c4.264 2.879 9.124 4.935 14.351 5.954v6.588c0 4.143 3.357 7.5 7.5 7.5s7.5-3.357 7.5-7.5v-6.588c5.227-1.019 10.087-3.074 14.351-5.954l4.665 4.665c1.465 1.464 3.385 2.196 5.304 2.196s3.839-.732 5.304-2.196c2.929-2.93 2.929-7.678 0-10.607l-4.665-4.665c2.879-4.263 4.935-9.124 5.953-14.351h6.588c4.143 0 7.5-3.357 7.5-7.5s-3.357-7.5-7.5-7.5h-6.589zm-38.411 31.641c-13.312 0-24.141-10.829-24.141-24.141 0-13.311 10.829-24.141 24.141-24.141s24.141 10.829 24.141 24.141c-.001 13.312-10.83 24.141-24.141 24.141z"/></g></g></svg>