<svg id="Capa_1" enable-background="new 0 0 512 512" viewBox="0 0 512 512" xmlns="http://www.w3.org/2000/svg"><g><g><path d="m510.39 207.369-6.807-14.874c-1.995-4.369-5.581-7.68-10.097-9.32-4.496-1.634-9.342-1.398-13.659.662-5.069 2.431-10.595 4.851-16.412 7.189-16.941 6.775-35.961 12.703-56.515 17.616-2.739.646-5.685-.127-7.878-2.079-8.915-7.923-19.295-14.927-30.899-20.917 9.3-17.619 14.577-37.677 14.577-58.947 0-4.453-.24-8.969-.712-13.422-.438-4.118-4.13-7.092-8.25-6.666-4.119.438-7.104 4.131-6.667 8.25.417 3.929.628 7.912.628 11.838 0 61.592-50.108 111.7-111.7 111.7s-111.7-50.108-111.7-111.7 50.109-111.699 111.701-111.699c44.852 0 85.215 26.723 102.83 68.079 1.623 3.81 6.03 5.584 9.839 3.961 3.811-1.623 5.584-6.028 3.961-9.84-19.975-46.897-65.755-77.2-116.63-77.2-69.863 0-126.7 56.838-126.7 126.7 0 21.27 5.276 41.328 14.577 58.947-11.604 5.989-21.985 12.994-30.901 20.919-2.192 1.948-5.137 2.727-7.862 2.079-20.568-4.916-39.588-10.845-56.517-17.614-5.83-2.344-11.355-4.764-16.435-7.199-4.306-2.057-9.153-2.289-13.648-.657-4.516 1.641-8.102 4.951-10.094 9.314l-6.81 14.88c-4.002 8.744-.206 19.231 8.478 23.384 6.037 2.872 12.512 5.694 19.246 8.391 13.185 5.274 27.481 10.104 42.485 14.351 4.405 1.253 7.112 5.853 6.037 10.248-2.181 8.885-3.287 18.288-3.287 27.948 0 72.052 59.989 144.63 136.574 165.232 5.089 1.367 8.851 5.895 9.359 11.258l2.601 27.749c.871 9.161 8.461 16.07 17.656 16.07h30.48c9.195 0 16.786-6.909 17.657-16.08l2.599-27.731c.509-5.371 4.271-9.898 9.364-11.267 13.353-3.596 26.42-8.799 38.837-15.464 3.649-1.959 5.02-6.506 3.061-10.155-1.96-3.65-6.506-5.019-10.156-3.062-11.406 6.123-23.397 10.899-35.638 14.195-11.105 2.983-19.304 12.764-20.402 24.344l-2.599 27.729c-.135 1.42-1.306 2.49-2.724 2.49h-30.48c-1.418 0-2.589-1.07-2.723-2.48l-2.601-27.747c-1.097-11.572-9.295-21.353-20.398-24.335-34.487-9.278-66.41-30.231-89.889-59.001-22.944-28.114-35.58-60.696-35.58-91.746 0-8.457.96-16.657 2.855-24.378 3.021-12.35-4.229-24.757-16.512-28.249-14.51-4.107-28.306-8.766-41.006-13.847-6.441-2.578-12.623-5.272-18.362-8.003-1.332-.637-1.913-2.253-1.295-3.603l6.813-14.886c.419-.919 1.166-1.304 1.573-1.452.395-.144 1.188-.322 2.051.089 5.36 2.57 11.186 5.123 17.328 7.592 17.616 7.045 37.336 13.195 58.626 18.284 7.499 1.777 15.46-.268 21.301-5.462 8.211-7.298 17.861-13.76 28.725-19.278 3.448 4.995 7.244 9.731 11.355 14.173-5.753 2.736-11.136 5.752-16.085 9.02-4.526 2.988-8.685 6.185-12.36 9.499-3.076 2.773-3.321 7.516-.547 10.592 1.481 1.643 3.522 2.478 5.572 2.478 1.79 0 3.586-.637 5.02-1.931 3.119-2.812 6.679-5.544 10.58-8.12 5.839-3.856 12.407-7.329 19.557-10.364 22.014 18.438 50.353 29.556 81.244 29.556s59.23-11.118 81.241-29.555c7.15 3.035 13.718 6.508 19.556 10.363 21.827 14.418 32.894 33.758 32.894 57.482 0 2.906-.168 5.848-.48 8.812h-266.421c-.312-2.963-.48-5.905-.48-8.812 0-8.445 1.393-16.383 4.139-23.591 1.475-3.87-.468-8.204-4.339-9.679s-8.204.468-9.679 4.339c-3.398 8.92-5.121 18.653-5.121 28.931 0 31.761 16.233 66.729 43.425 93.541 29.38 28.959 66.763 44.909 105.265 44.909s75.885-15.949 105.266-44.909c27.191-26.812 43.424-61.779 43.424-93.54 0-29.079-13.332-52.63-39.627-69.999-4.948-3.268-10.332-6.284-16.085-9.02 4.111-4.442 7.907-9.178 11.355-14.173 10.864 5.517 20.514 11.979 28.723 19.275 5.843 5.198 13.806 7.241 21.318 5.462 21.275-5.086 40.995-11.236 58.624-18.286 6.129-2.464 11.955-5.017 17.305-7.582.873-.418 1.667-.238 2.062-.094.408.148 1.154.533 1.576 1.458l6.81 14.88c.618 1.35.037 2.966-1.282 3.597-5.752 2.736-11.935 5.431-18.374 8.008-12.701 5.081-26.498 9.74-41.015 13.851-12.275 3.489-19.525 15.896-16.503 28.252 1.894 7.715 2.854 15.915 2.854 24.372 0 41.782-23.687 86.957-61.816 117.896-3.216 2.61-3.708 7.333-1.098 10.55 1.482 1.827 3.646 2.774 5.828 2.774 1.66 0 3.332-.549 4.721-1.676 20.274-16.451 37.211-36.959 48.981-59.307 12.027-22.838 18.384-47.125 18.384-70.237 0-9.66-1.106-19.063-3.285-27.942-1.077-4.401 1.631-9.001 6.028-10.251 15.011-4.25 29.308-9.079 42.494-14.354 6.733-2.695 13.208-5.518 19.258-8.396 8.669-4.148 12.466-14.636 8.464-23.38zm-159.655 167.179c-26.555 26.176-60.199 40.592-94.735 40.592s-68.18-14.416-94.734-40.591c-17.587-17.341-30.061-38.281-35.655-59.047h260.778c-5.593 20.766-18.068 41.706-35.654 59.046z"/><path d="m332.546 145.062 7.589 2.033c.65.175 1.303.258 1.946.258 3.311 0 6.342-2.21 7.24-5.561 1.072-4.001-1.303-8.114-5.304-9.186l-7.598-2.036c-.191-3.217-1.026-6.31-2.439-9.134l5.555-5.555c2.929-2.93 2.929-7.678 0-10.607-2.929-2.928-7.678-2.928-10.606 0l-5.556 5.556c-2.823-1.413-5.916-2.247-9.132-2.438l-2.036-7.598c-1.072-4.001-5.185-6.381-9.186-5.303-4.001 1.071-6.375 5.185-5.304 9.186l2.033 7.588c-1.308.869-2.541 1.874-3.677 3.01l-6.125 6.125-4.697-4.697c-2.929-2.928-7.678-2.928-10.606 0-2.929 2.93-2.929 7.678 0 10.607l4.696 4.696-12.25 12.25-4.697-4.697c-2.929-2.928-7.678-2.928-10.606 0-2.929 2.93-2.929 7.678 0 10.607l4.696 4.696-6.125 6.125c-1.136 1.136-2.141 2.369-3.011 3.678l-7.588-2.033c-3.995-1.074-8.113 1.302-9.186 5.303-1.072 4.001 1.303 8.114 5.304 9.186l7.598 2.036c.191 3.217 1.026 6.309 2.439 9.133l-5.555 5.555c-2.929 2.93-2.929 7.678 0 10.607 1.464 1.464 3.384 2.196 5.303 2.196s3.839-.732 5.303-2.196l5.573-5.573c2.872 1.429 5.971 2.232 9.107 2.423l2.045 7.631c.898 3.351 3.928 5.561 7.24 5.561.643 0 1.296-.083 1.946-.258 4.001-1.071 6.375-5.185 5.304-9.186l-2.035-7.594c1.3-.86 2.534-1.861 3.679-3.005l6.125-6.125 4.697 4.697c1.464 1.464 3.384 2.196 5.303 2.196s3.839-.732 5.303-2.196c2.929-2.93 2.929-7.678 0-10.607l-4.696-4.696 12.25-12.25 4.696 4.696c1.464 1.465 3.384 2.197 5.303 2.197s3.839-.732 5.303-2.196c2.929-2.929 2.929-7.678 0-10.606l-4.697-4.697 6.125-6.125c1.136-1.136 2.141-2.369 3.011-3.677zm-59.331 38.784c-3.377 3.377-8.874 3.377-12.251 0s-3.377-8.872 0-12.249l45.714-45.715c3.377-3.378 8.874-3.379 12.25-.001 1.637 1.637 2.538 3.812 2.538 6.126s-.901 4.489-2.537 6.125z"/><path d="m224.477 135.196c1.181.682 2.471 1.006 3.743 1.006 2.592 0 5.113-1.345 6.502-3.751 2.071-3.587.842-8.174-2.745-10.245l-4.897-2.827c.558-2.188.856-4.48.856-6.84s-.298-4.651-.856-6.84l4.897-2.827c3.587-2.071 4.816-6.658 2.745-10.245-2.071-3.588-6.658-4.815-10.245-2.745l-4.916 2.838c-3.267-3.187-7.316-5.573-11.829-6.844v-5.661c0-4.143-3.358-7.5-7.5-7.5s-7.5 3.357-7.5 7.5v5.661c-4.513 1.271-8.561 3.657-11.828 6.844l-4.915-2.838c-3.587-2.071-8.174-.843-10.245 2.745-2.071 3.587-.842 8.174 2.745 10.245l4.897 2.827c-.558 2.189-.856 4.48-.856 6.84s.298 4.651.856 6.84l-4.897 2.827c-3.587 2.071-4.816 6.658-2.745 10.245 1.389 2.406 3.91 3.751 6.502 3.751 1.272 0 2.562-.324 3.743-1.006l4.915-2.838c3.267 3.187 7.316 5.572 11.828 6.844v5.662c0 4.143 3.358 7.5 7.5 7.5s7.5-3.357 7.5-7.5v-5.662c4.513-1.271 8.561-3.657 11.829-6.844zm-24.244-9.954c-7.004 0-12.703-5.698-12.703-12.703s5.698-12.703 12.703-12.703 12.703 5.698 12.703 12.703-5.698 12.703-12.703 12.703z"/><path d="m273.102 83.088c13.047 0 23.663-10.615 23.663-23.662 0-13.048-10.615-23.663-23.663-23.663s-23.662 10.615-23.662 23.663c0 13.047 10.615 23.662 23.662 23.662zm0-32.325c4.776 0 8.663 3.887 8.663 8.663s-3.886 8.662-8.663 8.662-8.662-3.886-8.662-8.662 3.886-8.663 8.662-8.663z"/><circle cx="324.232" cy="77.191" r="7.5"/><circle cx="222.979" cy="51.783" r="7.5"/><circle cx="206.917" cy="187.721" r="7.5"/></g></g><g/><g/><g/><g/><g/><g/><g/><g/><g/><g/><g/><g/><g/><g/><g/></svg>