<svg id="Capa_1" enable-background="new 0 0 511.964 511.964" height="512" viewBox="0 0 511.964 511.964" width="512" xmlns="http://www.w3.org/2000/svg"><g><path d="m188.369 93.58c-4.143 0-7.5 3.357-7.5 7.5v71.62c-11.542 6.47-21.639 15.235-29.993 26.026l-23.48-47.077c-5.301-10.628-20.111-11.488-26.611-1.569l-15.8 24.094c-.022.035-.084.129-.235.16-.15.032-.241-.027-.28-.053l-43.856-28.758c-5.56-3.644-12.633-3.127-17.603 1.289s-6.315 11.38-3.349 17.33l47.046 94.322c5.287 10.6 20.086 11.517 26.612 1.568l15.797-24.094c.113-.17.342-.221.518-.107l19.018 12.47c-5.37 26.26-3.045 54.862 6.678 81.152 22.972 62.118 72.967 129.768 133.382 142.465 10.976 10.697 22.939 20.283 35.799 28.662 26.449 17.232 61.321 14.688 84.802-6.202 48.325-42.995 85.969-100.097 89.879-165.518.247-4.135-2.904-7.687-7.039-7.934-4.133-.27-7.687 2.905-7.934 7.039-4.16 69.565-48.452 122.799-84.877 155.205-18.438 16.402-45.841 18.394-66.642 4.841-51.511-33.565-89.635-88.443-102-163.403-11.425-73.604 19.073-109.387 44.596-126.092 17.195-11.139 29.492-13.829 48.317-16.51 4.74 7.122 18.896 30.251 26.801 63.116-4.499 5.572-21.185 25.472-43.799 43.292-3.253 2.563-3.812 7.279-1.248 10.533 2.562 3.253 7.279 3.811 10.533 1.248 16.495-12.999 29.804-26.792 38.123-36.149 1.025 7.282 1.683 14.91 1.843 22.835.248 12.279.637 24.402 1.104 36.001-7.302 5.102-24.047 17.848-38.323 36.336-16.586 1.733-30.03-2.939-30.316-3.041-3.889-1.404-8.182.601-9.598 4.488-1.417 3.892.59 8.196 4.482 9.613.564.205 10.798 3.857 25.132 4.289-.292.51-.591 1.013-.877 1.529-6.51 11.753-8.362 24.808-5.507 38.801.831 4.067 4.8 6.677 8.849 5.849 4.059-.828 6.677-4.79 5.849-8.849-2.121-10.394-.799-19.993 3.931-28.533 10.523-19.001 26.581-33.829 37.192-42.309 2.033 41.494 4.738 72.566 4.776 73 .367 4.162 4.058 7.188 8.128 6.813 4.127-.362 7.178-4.001 6.815-8.127-.027-.304-1.375-15.799-2.876-39.393 11.223 4.292 30.843 14.27 44.106 34.787 2.252 3.484 6.898 4.473 10.37 2.228 3.479-2.249 4.476-6.892 2.228-10.37-18.386-28.442-46.653-39.477-57.677-42.851-1.169-20.675-2.28-45.286-2.791-70.562-.233-11.535-1.417-22.448-3.225-32.627 8.555 6.632 20.271 13.852 35.088 18.903.985 11.261 5.525 36.316 26.256 49.613 3.488 2.239 8.128 1.221 10.362-2.263 2.236-3.487 1.224-8.126-2.263-10.362-12.511-8.025-17.043-22.956-18.688-32.815 5.586 1.098 11.494 1.874 17.758 2.192.13.007.258.01.386.01 3.968 0 7.281-3.113 7.484-7.12.21-4.137-2.974-7.661-7.11-7.87-49.085-2.488-74.468-36.234-75.899-37.374-6.646-21.258-15.194-37.441-20.878-46.862 47.545-4.699 81.965 1.717 104.663 19.409 23.109 18.013 35.854 48.928 38.962 94.51.28 4.133 3.883 7.238 7.992 6.973 4.133-.281 7.255-3.86 6.973-7.992-3.247-47.614-16.631-81.088-40.855-102.135h41.131c8.196 0 14.865-6.669 14.865-14.865v-50.598c0-8.196-6.669-14.865-14.865-14.865h-19.19v-56.595c0-8.196-6.669-14.865-14.865-14.865h-16.017v-24.116c-.004-8.197-6.672-14.866-14.869-14.866h-21.27c-8.196 0-14.865 6.669-14.865 14.866v24.115h-18.294c-1.521 0-3.063.023-4.602.069v-24.184c.001-8.197-6.668-14.866-14.864-14.866h-21.27c-8.196 0-14.865 6.669-14.865 14.866v34.35c-15.692 5.999-30.107 14.45-42.833 24.829v-59.179c0-8.197-6.669-14.866-14.866-14.866h-50.597c-8.196 0-14.865 6.669-14.865 14.866v51.214c0 4.143 3.357 7.5 7.5 7.5s7.5-3.357 7.5-7.5v-51.08h50.328v72.953c-20.494 21.661-33.72 47.929-39.306 74.638-3.487.841-7.331 1.952-11.022 3.278v-64.789c0-4.142-3.358-7.5-7.5-7.5zm-70.511 129.709c-7.087-4.65-16.637-2.664-21.286 4.426l-15.797 24.094c-.059.09-.12.19-.334.167-.216-.013-.265-.111-.312-.206l-46.245-92.72 42.358 27.774c7.118 4.67 16.635 2.667 21.285-4.426l15.799-24.094c.059-.088.11-.179.334-.167.215.013.264.11.311.206l46.244 92.719zm361.005-97.848v50.328h-64.256c-35.301-16.419-80.877-13.71-119.194-7.708 10.011-24.586 34.919-42.62 64.219-42.62zm-168.779-62.478c5.351-2.014 8.946-7.214 8.946-12.94v-35.023h21v25.251c0 7.693 6.375 14.148 14.326 13.831 3.449-.13 3.401-.101 24.726-.101 7.634 0 13.844-6.21 13.844-13.844v-25.137h21v25.138c0 7.634 6.21 13.844 13.844 13.844h17.038v56.46h-85.176c-37.771 0-70.767 25.145-81.274 60.94-1.627.473-3.583 1.089-5.802 1.877-13.746-9.659-30.374-14.641-49.658-13.215 11.426-44.393 44.246-80.929 87.186-97.081zm-54.321 117.761c-99.525 53.505-63.232 198.091-8.009 267.942-44.771-22.48-80.507-76.149-98.356-124.415-8.03-21.715-10.47-45.127-7.112-67.009l11.205 7.347c12.33 8.086 27.573-5.347 20.95-18.619l-15.998-32.074c24.413-37.245 69.459-46.624 97.32-33.172z"/></g></svg>