<svg id="Image" height="512" viewBox="0 0 64 64" width="512" xmlns="http://www.w3.org/2000/svg"><g><path d="m56.177 44.037c.582-1.047 1.313-3.365-.186-7.237-.077-4.987-2.744-6.167-4.033-9.605.584-1.051 1.042-2.434 1.042-4.195 0-4.047-1.829-5.07-2.343-7.885 2.115-2.648 2.951-6.281 1.876-10.37-.336-1.278-2.271-.772-1.934.509 1.696 6.453-2.632 10.746-4.751 10.746-8.361 0-7.599-1.995-13.851-2.014-6.29.019-5.421 2.014-13.846 2.014-2.233 0-6.422-4.386-4.751-10.746.337-1.281-1.595-1.784-1.934-.509-1.074 4.085-.241 7.72 1.876 10.37-.487 2.67-2.342 3.998-2.342 7.885 0 1.762.459 3.145 1.042 4.196-1.259 3.354-3.956 4.684-4.033 9.604-1.499 3.873-.768 6.191-.186 7.237-1.069 2.219-1.823 7.5-1.823 8.963 0 6.008.488 6.474.75 6.724.83.788 2.116-.214 1.565-1.208-.055-.188-.315-1.295-.315-5.516 0-1.676.834-6.363 1.523-7.935 2.46.306 5.149.977 7.823 1.951.454.264.835.461 1.101.565 1.097.429 2.173 1.778 5.62 2.637 3.135 1.874 5.519 3.973 6.931 6.093v2.689c0 1.323 2 1.324 2 0v-2.688c1.412-2.12 3.796-4.219 6.931-6.093 5.339-1.332 4.967-3.962 14.545-5.154.692 1.572 1.526 6.259 1.526 7.935 0 4.221-.26 5.328-.315 5.516-.563 1.017.754 1.979 1.565 1.208.262-.25.75-.716.75-6.724 0-1.463-.754-6.744-1.823-8.963zm-46.618-.969c-.24-.416-.622-1.394-.364-3.109.866 1.234 2.106 2.49 3.422 3.624-1.045-.223-2.068-.399-3.058-.515zm22.441 11.206c-.913-1.163-2.08-2.302-3.452-3.394 2.149.156 4.623.166 6.904 0-1.372 1.092-2.539 2.231-3.452 3.394zm0-5.274c-7.603 0-9.888-1.495-11.4-2.484-.469-.307-.911-.596-1.423-.796-1.887-.739-9.177-6.263-9.177-8.72 0-3.886 1.903-4.944 3.429-7.988 1.077 1.048 2.495 1.644 3.389 1.733 1.324.132 1.509-1.86.199-1.99-.436-.043-1.147-.396-1.507-.615-.103-.062-2.51-1.555-2.51-5.14 0-2.83 1.211-3.97 1.987-6.262 1.052.797 2.178 1.262 3.164 1.262 8.521 0 8.205-1.997 13.846-2.014 5.727.017 5.213 2.014 13.851 2.014.987 0 2.114-.465 3.165-1.262.779 2.303 1.987 3.422 1.987 6.262 0 3.924-2.401 5.798-6.225 6.344-1.31.186-1.028 2.167.283 1.979 1.673-.239 4.098-.937 5.512-2.313 1.529 3.05 3.43 4.102 3.43 7.99 0 2.457-7.29 7.981-9.177 8.719-2.145.84-3.021 3.281-12.823 3.281zm22.806-9.042c.259 1.713-.123 2.692-.364 3.11-.99.116-2.014.292-3.059.516 1.317-1.135 2.556-2.391 3.423-3.626z"/><ellipse cx="32" cy="37" rx="1" ry="1.25"/></g></svg>