<svg id="Capa_1" enable-background="new 0 0 511.937 511.937" height="512" viewBox="0 0 511.937 511.937" width="512" xmlns="http://www.w3.org/2000/svg"><g><path d="m492.198 93.985c-10.062-10.062-22.781-16.589-36.785-18.876-9.556-1.559-17.025-9.029-18.586-18.586-2.287-14.003-8.814-26.723-18.876-36.784-26.318-26.318-69.141-26.318-95.459 0-14.985 14.985-21.425 35.319-19.346 54.912 1.678 16.149-3.671 31.744-14.718 42.791l-149.773 149.774c-2.929 2.929-2.929 7.678 0 10.607s7.677 2.929 10.607 0l149.774-149.774c6.655-6.656 11.688-14.576 14.965-23.222 2.436 3.664 5.263 7.143 8.492 10.372.77.77 1.56 1.511 2.36 2.239-3.892 7.861-8.98 14.988-15.21 21.218l-170.988 170.986c-17.487 17.487-41.973 25.978-67.178 23.293-11.345-1.209-22.472 2.716-30.525 10.77-14.621 14.621-14.621 38.412 0 53.033 5.59 5.59 12.646 9.215 20.406 10.482 10.928 1.784 20.842 6.864 28.668 14.69s12.906 17.739 14.691 28.666c1.266 7.761 4.89 14.817 10.481 20.408 14.621 14.621 38.412 14.621 53.033 0 8.054-8.054 11.979-19.18 10.77-30.526-2.683-25.205 5.807-49.69 23.294-67.177l170.987-170.987c6.229-6.229 13.356-11.317 21.218-15.21.728.8 1.469 1.59 2.239 2.36 3.228 3.228 6.707 6.055 10.371 8.491-8.646 3.278-16.566 8.31-23.222 14.965l-170.987 170.988c-14.268 14.268-21.187 34.307-18.984 54.983 1.692 15.874-3.804 31.445-15.079 42.72-20.47 20.469-53.777 20.469-74.246 0-7.826-7.826-12.901-17.714-14.678-28.595-2.601-15.924-15.048-28.371-30.973-30.972-10.882-1.778-20.77-6.853-28.596-14.679-20.47-20.47-20.469-53.777 0-74.246 11.274-11.274 26.846-16.771 42.721-15.08 20.675 2.203 40.714-4.716 54.982-18.984 2.929-2.929 2.929-7.677 0-10.606s-7.677-2.929-10.607 0c-11.047 11.046-26.642 16.395-42.787 14.676-20.405-2.175-40.421 4.892-54.916 19.388-26.318 26.318-26.318 69.141 0 95.459 10.062 10.061 22.782 16.588 36.785 18.876 9.557 1.561 17.025 9.031 18.586 18.586 2.287 14.003 8.814 26.722 18.876 36.784 26.318 26.318 69.141 26.318 95.459 0 14.496-14.496 21.563-34.513 19.388-54.916-1.72-16.146 3.629-31.74 14.675-42.787l170.987-170.987c11.046-11.046 26.642-16.395 42.787-14.675 19.597 2.036 39.931-4.404 54.916-19.388 26.319-26.319 26.319-69.142.001-95.46zm-180.545 63.872c2.924-2.925 7.682-2.925 10.607 0 2.924 2.925 2.924 7.682 0 10.607-2.924 2.924-7.682 2.924-10.607 0-2.924-2.925-2.924-7.682 0-10.607zm-53.033 53.033c2.924-2.924 7.682-2.924 10.607 0 2.924 2.924 2.924 7.682 0 10.607-2.924 2.924-7.682 2.924-10.607 0-2.924-2.925-2.924-7.682 0-10.607zm-74.246 74.247c2.924-2.925 7.682-2.925 10.607 0 2.924 2.924 2.924 7.682 0 10.606-2.924 2.925-7.682 2.925-10.607 0-2.925-2.924-2.925-7.682 0-10.606zm15.91 68.942c-2.924 2.924-7.682 2.924-10.607 0-2.924-2.925-2.924-7.682 0-10.607s7.682-2.924 10.607 0c2.924 2.925 2.924 7.683 0 10.607zm53.033-53.033c-2.924 2.924-7.682 2.924-10.607 0-2.924-2.925-2.924-7.682 0-10.607 2.924-2.924 7.682-2.924 10.607 0 2.924 2.925 2.924 7.683 0 10.607zm74.246-74.246c-2.924 2.925-7.682 2.925-10.607 0-2.924-2.924-2.924-7.682 0-10.607 2.924-2.924 7.682-2.924 10.607 0 2.924 2.925 2.924 7.683 0 10.607zm35.112-35.112-20.115 20.115c-1.071-2.249-2.532-4.356-4.391-6.215-8.772-8.772-23.047-8.772-31.82 0-8.772 8.772-8.772 23.047 0 31.82 1.859 1.859 3.967 3.32 6.216 4.391l-44.251 44.251c-1.071-2.249-2.532-4.356-4.391-6.216-8.773-8.772-23.047-8.772-31.82 0-8.773 8.773-8.773 23.047 0 31.82 1.859 1.859 3.967 3.32 6.216 4.391l-23.038 23.038c-1.071-2.249-2.532-4.356-4.391-6.215-8.773-8.773-23.047-8.773-31.82 0-8.773 8.772-8.773 23.047 0 31.82 1.971 1.97 4.22 3.495 6.621 4.58-16.621 20.033-24.45 46.081-21.606 72.783.726 6.815-1.628 13.497-6.461 18.329-8.773 8.773-23.047 8.773-31.82 0-3.354-3.354-5.526-7.579-6.284-12.218-2.295-14.049-8.826-26.793-18.888-36.856-10.062-10.062-22.807-16.594-36.857-18.888-4.639-.757-8.863-2.93-12.217-6.284-8.773-8.773-8.773-23.047 0-31.82 4.832-4.832 11.513-7.187 18.33-6.461 29.735 3.166 58.665-6.894 79.373-27.603l20.115-20.115c1.071 2.249 2.532 4.356 4.391 6.216 8.773 8.773 23.047 8.772 31.82 0s8.773-23.047 0-31.82c-1.859-1.859-3.967-3.32-6.216-4.391l44.251-44.251c1.071 2.249 2.532 4.356 4.391 6.216 8.773 8.773 23.047 8.772 31.82 0 8.773-8.773 8.773-23.047 0-31.82-1.859-1.859-3.967-3.32-6.216-4.391l23.038-23.038c1.071 2.249 2.532 4.356 4.391 6.215 8.773 8.773 23.047 8.773 31.82 0 8.772-8.772 8.773-23.047 0-31.82-1.969-1.969-4.217-3.493-6.617-4.578 4.195-5.054 7.843-10.511 10.915-16.328 6.805 3.827 14.257 6.446 22.113 7.729 9.556 1.561 17.025 9.03 18.586 18.586 1.283 7.856 3.902 15.307 7.729 22.113-8.44 4.457-16.123 10.121-22.917 16.915zm118.916-12.85c-20.469 20.469-53.777 20.469-74.246 0-7.826-7.826-12.901-17.714-14.678-28.595-1.301-7.963-5.062-15.055-10.49-20.483-5.427-5.427-12.521-9.189-20.483-10.489-10.882-1.778-20.77-6.853-28.596-14.678-20.47-20.47-20.47-53.777 0-74.246 20.469-20.469 53.776-20.47 74.246 0 7.826 7.825 12.901 17.714 14.678 28.595 2.6 15.926 15.048 28.371 30.972 30.972 10.881 1.777 20.77 6.853 28.596 14.679 20.471 20.468 20.471 53.775.001 74.245z"/><path d="m258.62 253.317c-2.929 2.929-2.929 7.677 0 10.607 2.929 2.929 7.678 2.929 10.607 0s2.929-7.678 0-10.607-7.678-2.929-10.607 0z"/><path d="m354.079 157.857c-2.929 2.929-2.929 7.678 0 10.607s7.678 2.929 10.607 0 2.929-7.678 0-10.607-7.678-2.929-10.607 0z"/><path d="m147.251 343.473c-2.929 2.929-2.929 7.678 0 10.607s7.678 2.929 10.607 0 2.929-7.678 0-10.607-7.678-2.929-10.607 0z"/><path d="m62.165 364.919c-2.929 2.929-2.929 7.677 0 10.606s7.677 2.929 10.607 0c2.929-2.929 2.929-7.677 0-10.606s-7.678-2.929-10.607 0z"/><path d="m136.411 439.165c-2.929 2.929-2.929 7.678 0 10.607s7.678 2.929 10.607 0 2.929-7.678 0-10.607-7.678-2.929-10.607 0z"/><path d="m111.239 368.878c-8.773 8.772-8.773 23.047 0 31.82 8.773 8.772 23.047 8.772 31.82 0s8.773-23.047 0-31.82-23.047-8.773-31.82 0zm21.214 21.213c-2.924 2.925-7.682 2.925-10.607 0-2.924-2.924-2.924-7.682 0-10.606 2.924-2.925 7.682-2.925 10.607 0 2.924 2.924 2.924 7.681 0 10.606z"/></g></svg>