<svg height="512" viewBox="0 0 64 64" width="512" xmlns="http://www.w3.org/2000/svg"><g id="Outline"><g id="Outline-2" data-name="Outline"><path d="m9.142 56.066a4.769 4.769 0 0 0 4.083.908c2.576-.595 4.089-2.046 6.184-4.055a55.135 55.135 0 0 1 12.091-9.051 34.759 34.759 0 0 0 5.96-4.467c3.19-2.8 5.946-5.221 12.889-6.415 4.232-.727 6.444-6.262 8.584-11.615.368-.922.787-1.854 1.189-2.753 1.006-2.241 1.874-4.177 1.882-5.607a4.99 4.99 0 0 0 -1.419-3.621 4.583 4.583 0 0 0 -3.385-1.362c-7.618.05-21.672.113-30.182-.028a24.986 24.986 0 0 0 -18.364 7.72 23.452 23.452 0 0 0 -6.654 17.76c.013.181 1.151 18.109 7.142 22.586zm21.358-13.934a56.913 56.913 0 0 0 -12.48 9.344c-.684.656-1.273 1.217-1.837 1.7-1.014-4.324 2.139-6.495 5.224-8.006a11.385 11.385 0 0 0 3.411-2.187 12.23 12.23 0 0 0 1.91-2.374 7.094 7.094 0 0 1 1.992-2.214c2-1.374 4.468-.829 6.346.433a28.74 28.74 0 0 1 -4.566 3.304zm27.794-24.332c-.414.924-.844 1.881-1.223 2.829-1.844 4.616-3.935 9.849-7.064 10.387a26.221 26.221 0 0 0 -8 2.567 88.135 88.135 0 0 1 -.938-16.939 41.262 41.262 0 0 0 5.248-.7c1.189-.21 2.311-.408 3.339-.511 1.987-.2 4.18.625 6.3 1.42.825.31 1.618.6 2.386.834zm-23.846-7.729c7.868.038 17.1-.007 22.765-.043a2.768 2.768 0 0 1 2.787 2.972 9.192 9.192 0 0 1 -.852 2.853c-.771-.22-1.612-.534-2.489-.863-2.226-.835-4.744-1.779-7.2-1.538-1.105.11-2.264.315-3.489.532-3.73.66-7.588 1.343-10.451-.494a2.87 2.87 0 0 1 -1.071-3.419zm-2.059-.011c-.92 4.116 3.124 6.417 6.679 6.557a91.163 91.163 0 0 0 1.081 18.074 34.135 34.135 0 0 0 -3.53 2.785c-2.507-1.876-6.074-2.76-9.028-.732a8.936 8.936 0 0 0 -2.527 2.76 10.359 10.359 0 0 1 -1.612 2.02 9.373 9.373 0 0 1 -2.869 1.823c-2.783 1.541-8.015 3.753-6.124 11.041a6.728 6.728 0 0 1 -1.685.638 2.817 2.817 0 0 1 -2.435-.562c-1.681-1.256-3.022-4.153-4.039-7.564 4.466-1.059 5.642-7.337 6.588-12.438l.238-1.27c.6-3.133 2.943-5.106 5.658-7.39a30.122 30.122 0 0 0 6.044-6.243c1.886-2.829 1.678-6.133-.552-9.434 2.76-.262 5.134-.034 8.113-.065zm-22.289 7.04a23.088 23.088 0 0 1 11.959-6.637c1.664 2.117 3.038 5.088 1.111 7.978a28.112 28.112 0 0 1 -5.67 5.827c-2.881 2.424-5.6 4.714-6.335 8.544l-.24 1.282c-.884 4.768-1.889 10.135-5.144 10.867a67.567 67.567 0 0 1 -1.781-11.6 21.473 21.473 0 0 1 6.1-16.261z"/></g></g></svg>