<?xml version="1.0" encoding="UTF-8"?>
<svg id="Capa_1" data-name="Capa 1" xmlns="http://www.w3.org/2000/svg" viewBox="0 0 512 512">
  <defs>
    <style>
      .cls-1 {
        fill: #3c4146;
      }

      .cls-2 {
        fill: #fff;
      }

      .cls-3 {
        fill: #6dc6e2;
      }
    </style>
  </defs>
  <rect class="cls-3" width="512" height="512"/>
  <g id="ISOLOGO">
    <path class="cls-2" d="M254.75,100.97c-45.6,1.24-84.56,17.73-115.28,51.69-22.63,25.02-35.88,54.6-38.92,88.43-4.56,50.68,11.96,93.64,48.54,128.62,23.42,22.4,51.67,35.43,83.89,40.12,26.21,3.81,51.48.54,76.24-8.15,19.17-6.72,30.59-25.57,28.98-47.66-1.68-23.04-23.8-39.09-45.6-38.92-9.81.08-23.66,1.29-31.26-6.33-3.23-3.23-4.3-6.98-4.91-9.08-.91-3.17-.83-5.32-.83-23.02,0,0,51.52-.91,63.78,2.62,22.31,6.42,37,18.92,49.9,36.24,5.04,6.76,16.81,25.75,16.98,27.8.44,5.23.26,43.97.19,50.59-.03,2.8-38.69,33.49-51.64,39.55-40.54,19-88.38,21.49-131.36,9.82-39.45-10.72-74.92-34.24-100.4-66.18-27.1-33.98-42.41-76.79-42.36-120.3.05-41.43,12.73-82.36,37.7-115.56,9.31-12.37,20.11-23.58,31.91-33.59,28.72-24.35,61.99-38.46,99.08-43.73,8.45-1.2,17.02-1.94,25.61-1.27-.09,12.77-.17,25.55-.26,38.32Z"/>
    <path class="cls-1" d="M254.75,100.97c.09-12.77.17-25.55.26-38.32.02-2.47,17.74.47,19.4.72,9.14,1.39,18.02,3.96,26.57,7.49,18.08,7.47,34.42,19.13,47.43,33.74,13.12,14.73,21.94,32.15,27.89,50.87,5.89,18.53,9.4,39.95,2.76,58.75-.27.78-.52,1.41-.68,1.83-.02.04,19.72,12.68,21.35,13.87,19.81,14.48,37.26,32.12,51.56,52.06-2.59,6.52-13.47,37.17-15.97,45.26-1.75-.57-55.71-75.24-107.56-90.88-.26-.08-.78-.23-1.46-.43,1.72-2.9,3.93-7.03,5.92-12.2,10.43-27.12,8.82-67.41-17.19-95.23-22.47-24.03-52.13-26.98-60.28-27.52Z"/>
  </g>
</svg>