<svg width="24" height="24" viewBox="0 0 24 24" fill="none" xmlns="http://www.w3.org/2000/svg">
<g clip-path="url(#clip0_2341_18497)">
<path d="M19.8457 9.01451L20.2293 10.1864C17.7305 10.8757 15.3395 12.0715 13.2393 13.69L13.2393 13.69C11.1461 15.3034 9.37995 17.3068 8.0685 19.5441L6.1076 18.293C6.148 18.2278 6.1899 18.161 6.23341 18.0927L6.2335 18.0925C7.45324 16.1711 9.0522 14.4073 10.8572 12.9928L10.772 12.8841L10.8572 12.9928C12.3052 11.8581 13.9062 10.9266 15.6153 10.2243C16.989 9.66016 18.4077 9.25486 19.8457 9.01451ZM20.7996 7.34023H20.7916L20.7836 7.3411C16.8283 7.76713 13.0284 9.34549 9.91241 11.7877L9.9124 11.7877C7.97003 13.3102 6.2642 15.187 4.94083 17.272C4.65138 17.7277 4.37013 18.2004 4.12856 18.6875L4.06873 18.8082L4.18225 18.8806L8.5018 21.6369L8.64403 21.7276L8.71751 21.5758C11.2515 16.3388 16.2963 12.4302 22.0286 11.3377L22.1505 11.3145V11.1904V11.1589V11.135L22.1431 11.1122L20.9427 7.44359L20.9089 7.34023H20.8001H20.7996Z" fill="white" stroke="white" stroke-width="0.3"/>
<path d="M16.1567 14.1097C15.2908 14.669 14.5258 15.4203 13.9037 16.2295L13.9037 16.2295C13.5334 16.7115 13.1942 17.2393 12.9543 17.8098L12.9184 17.895L12.9785 17.9654L16.106 21.6247L16.1509 21.6772H16.2201H16.2521H16.3012L16.3407 21.6482L19.4515 19.3675L19.5622 19.2864L19.4912 19.1689L16.4351 14.1138L16.1567 13.6534V14.1097ZM15.118 17.1621C15.3741 16.8288 15.6481 16.5206 15.9336 16.2433L17.5278 18.8798L16.4499 19.6701L14.7508 17.6819C14.858 17.5144 14.9801 17.3418 15.118 17.1621Z" fill="white" stroke="white" stroke-width="0.3"/>
<mask id="path-3-outside-1_2341_18497" maskUnits="userSpaceOnUse" x="1" y="1.47363" width="14" height="12" fill="white">
<rect fill="white" x="1" y="1.47363" width="14" height="12"/>
<path d="M12.8011 3.70455L13.1147 7.4884C12.289 7.79367 11.5121 8.1206 10.7814 8.47019L11.1901 3.70455H12.8011ZM4.00788 8.93843L8.22255 9.91233C7.48301 10.4032 6.80502 10.9296 6.18365 11.4938C6.1615 11.514 6.13934 11.5342 6.11817 11.5544L3.51797 10.4623L4.00837 8.93892M13.934 2.47363H10.0596L9.50468 8.94532L3.18267 7.48446L2 11.1595L6.38355 13.001C6.5997 12.8153 6.79764 12.5987 7.01083 12.4052C9.11669 10.4928 11.739 9.23582 14.4195 8.33331L13.934 2.47363Z"/>
</mask>
<path d="M12.8011 3.70455L13.1147 7.4884C12.289 7.79367 11.5121 8.1206 10.7814 8.47019L11.1901 3.70455H12.8011ZM4.00788 8.93843L8.22255 9.91233C7.48301 10.4032 6.80502 10.9296 6.18365 11.4938C6.1615 11.514 6.13934 11.5342 6.11817 11.5544L3.51797 10.4623L4.00837 8.93892M13.934 2.47363H10.0596L9.50468 8.94532L3.18267 7.48446L2 11.1595L6.38355 13.001C6.5997 12.8153 6.79764 12.5987 7.01083 12.4052C9.11669 10.4928 11.739 9.23582 14.4195 8.33331L13.934 2.47363Z" fill="white"/>
<path d="M12.8011 3.70455L13.1001 3.67977L13.0772 3.40455H12.8011V3.70455ZM13.1147 7.4884L13.2188 7.76979L13.4325 7.69076L13.4137 7.46362L13.1147 7.4884ZM10.7814 8.47019L10.4825 8.44455L10.4377 8.9672L10.9109 8.74081L10.7814 8.47019ZM11.1901 3.70455V3.40455H10.9147L10.8912 3.67892L11.1901 3.70455ZM8.22255 9.91233L8.38846 10.1623L8.96902 9.77692L8.29009 9.62003L8.22255 9.91233ZM6.18365 11.4938L5.98197 11.2717L5.98161 11.2721L6.18365 11.4938ZM6.11817 11.5544L6.002 11.831L6.18306 11.907L6.32519 11.7715L6.11817 11.5544ZM3.51797 10.4623L3.2324 10.3704L3.14808 10.6323L3.4018 10.7389L3.51797 10.4623ZM13.934 2.47363L14.233 2.44886L14.2102 2.17363H13.934V2.47363ZM10.0596 2.47363V2.17363H9.7842L9.76067 2.448L10.0596 2.47363ZM9.50468 8.94532L9.43713 9.23762L9.77404 9.31547L9.80358 8.97095L9.50468 8.94532ZM3.18267 7.48446L3.25021 7.19217L2.98156 7.13009L2.89709 7.39256L3.18267 7.48446ZM2 11.1595L1.71442 11.0676L1.63013 11.3295L1.88381 11.4361L2 11.1595ZM6.38355 13.001L6.26737 13.2775L6.43833 13.3494L6.57901 13.2286L6.38355 13.001ZM7.01083 12.4052L7.21245 12.6273L7.21251 12.6273L7.01083 12.4052ZM14.4195 8.33331L14.5152 8.61762L14.7379 8.54266L14.7185 8.30854L14.4195 8.33331ZM12.5021 3.72934L12.8157 7.51319L13.4137 7.46362L13.1001 3.67977L12.5021 3.72934ZM13.0107 7.20702C12.1771 7.51521 11.3916 7.84568 10.6519 8.19956L10.9109 8.74081C11.6326 8.39553 12.401 8.07213 13.2188 7.76979L13.0107 7.20702ZM11.0803 8.49582L11.489 3.73019L10.8912 3.67892L10.4825 8.44455L11.0803 8.49582ZM11.1901 4.00455H12.8011V3.40455H11.1901V4.00455ZM3.94034 9.23073L8.15501 10.2046L8.29009 9.62003L4.07542 8.64613L3.94034 9.23073ZM8.05664 9.66239C7.30511 10.1612 6.61508 10.6968 5.98197 11.2717L6.38533 11.7159C6.99497 11.1623 7.66092 10.6452 8.38846 10.1623L8.05664 9.66239ZM5.98161 11.2721C5.95992 11.2918 5.9352 11.3143 5.91115 11.3373L6.32519 11.7715C6.34348 11.7541 6.36308 11.7362 6.3857 11.7156L5.98161 11.2721ZM6.23434 11.2778L3.63414 10.1857L3.4018 10.7389L6.002 11.831L6.23434 11.2778ZM3.80354 10.5542L4.29394 9.03085L3.7228 8.84699L3.2324 10.3704L3.80354 10.5542ZM13.934 2.17363H10.0596V2.77363H13.934V2.17363ZM9.76067 2.448L9.20577 8.91969L9.80358 8.97095L10.3585 2.49926L9.76067 2.448ZM9.57222 8.65302L3.25021 7.19217L3.11513 7.77676L9.43713 9.23762L9.57222 8.65302ZM2.89709 7.39256L1.71442 11.0676L2.28558 11.2514L3.46825 7.57637L2.89709 7.39256ZM1.88381 11.4361L6.26737 13.2775L6.49974 12.7244L2.11619 10.8829L1.88381 11.4361ZM6.57901 13.2286C6.69559 13.1284 6.80552 13.0215 6.90877 12.9198C7.01417 12.8161 7.11153 12.7189 7.21245 12.6273L6.80921 12.183C6.69694 12.285 6.58874 12.3929 6.48783 12.4922C6.38478 12.5937 6.28767 12.6879 6.1881 12.7734L6.57901 13.2286ZM7.21251 12.6273C9.27613 10.7533 11.8558 9.51306 14.5152 8.61762L14.3238 8.04899C11.6223 8.95858 8.95725 10.2324 6.80915 12.1831L7.21251 12.6273ZM14.7185 8.30854L14.233 2.44886L13.635 2.4984L14.1205 8.35808L14.7185 8.30854Z" fill="white" mask="url(#path-3-outside-1_2341_18497)"/>
</g>
<defs>
<clipPath id="clip0_2341_18497">
<rect width="20" height="19.0532" fill="white" transform="translate(2 2.47363)"/>
</clipPath>
</defs>
</svg>
