<svg width="24" height="24" viewBox="0 0 24 24" fill="none" xmlns="http://www.w3.org/2000/svg">
<path d="M22.1222 9.9C22.2289 9.9 22.3211 9.97816 22.3389 10.0878C22.4433 10.7015 22.5 11.3618 22.5 12C22.503 14.584 21.5955 17.0777 19.9522 19.0012C19.9141 19.0456 19.8609 19.0726 19.8041 19.0765C19.7472 19.0804 19.6911 19.0609 19.6478 19.0222L16.9311 16.6072C16.9077 16.586 16.8886 16.5601 16.875 16.531C16.8614 16.5019 16.8535 16.4703 16.8518 16.4379C16.8502 16.4055 16.8547 16.3731 16.8653 16.3427C16.8759 16.3122 16.8922 16.2843 16.9133 16.2607C17.4604 15.6354 17.8814 14.9004 18.1511 14.1H12.7222C12.6633 14.1 12.6068 14.0754 12.5651 14.0317C12.5234 13.9879 12.5 13.9285 12.5 13.8667V10.1333C12.5 10.005 12.6 9.9 12.7222 9.9H22.1222ZM15.2478 17.6C15.2878 17.5789 15.3327 17.5703 15.3772 17.5752C15.4218 17.5802 15.464 17.5985 15.4989 17.628L18.3522 20.1632C18.3777 20.1854 18.3979 20.2135 18.4115 20.2452C18.4251 20.2769 18.4316 20.3115 18.4305 20.3463C18.4294 20.381 18.4208 20.4151 18.4053 20.4458C18.3898 20.4765 18.3679 20.5032 18.3411 20.5237C16.6408 21.8118 14.5967 22.5035 12.5 22.5C10.8335 22.5001 9.19333 22.063 7.72866 21.2282C6.26398 20.3934 5.02122 19.1875 4.11334 17.7202C4.08361 17.6716 4.07237 17.6131 4.08184 17.5563C4.09131 17.4994 4.1208 17.4484 4.16445 17.4133L6.99222 15.1243C7.01822 15.1039 7.04804 15.0895 7.07972 15.0821C7.1114 15.0747 7.14421 15.0743 7.17601 15.0812C7.20781 15.088 7.23788 15.1018 7.26422 15.1217C7.29057 15.1416 7.31261 15.1672 7.32889 15.1967C8.10667 16.5836 9.36049 17.6053 10.8331 18.0522C12.3056 18.4991 13.8852 18.3373 15.2478 17.6ZM6.58889 13.0803C6.59664 13.1231 6.59283 13.1673 6.57791 13.2079C6.56299 13.2485 6.53754 13.2839 6.50445 13.3102L3.46556 15.7683C3.43874 15.7904 3.40735 15.8056 3.37393 15.8126C3.3405 15.8197 3.30597 15.8184 3.27311 15.8088C3.24025 15.7993 3.20998 15.7818 3.18474 15.7577C3.1595 15.7337 3.13999 15.7037 3.12778 15.6703C2.71163 14.496 2.49902 13.253 2.5 12C2.5 10.656 2.74111 9.37033 3.18 8.1885C3.19233 8.15592 3.21162 8.12676 3.23639 8.10326C3.26115 8.07976 3.29074 8.06255 3.32284 8.05297C3.35495 8.04338 3.38873 8.04168 3.42157 8.04798C3.45441 8.05429 3.48542 8.06843 3.51223 8.08933L6.54778 10.4273C6.62 10.4822 6.65333 10.579 6.63445 10.67C6.47126 11.4628 6.45653 12.2812 6.58889 13.0803ZM7.10778 8.68783C7.21445 8.7695 7.36445 8.73683 7.43556 8.62016C7.97741 7.72518 8.72566 6.98831 9.61097 6.47784C10.4963 5.96737 11.49 5.69983 12.5 5.7C13.8967 5.69951 15.2493 6.21352 16.3222 7.1525C16.3655 7.19102 16.421 7.21118 16.4777 7.20903C16.5344 7.20687 16.5883 7.18255 16.6289 7.14083L19.1467 4.496C19.1678 4.47397 19.1844 4.44766 19.1954 4.41868C19.2065 4.38969 19.2119 4.35864 19.2111 4.32741C19.2104 4.29618 19.2036 4.26544 19.1912 4.23706C19.1788 4.20868 19.161 4.18325 19.1389 4.16233C17.3138 2.44658 14.9497 1.49855 12.5 1.5C10.8551 1.49884 9.23548 1.9242 7.78483 2.7383C6.33418 3.5524 5.09744 4.73005 4.18445 6.16667C4.15375 6.21601 4.14228 6.27586 4.15242 6.33383C4.16255 6.39181 4.19351 6.44348 4.23889 6.47817L7.10778 8.68783Z" fill="white"/>
</svg>
