<svg width="24" height="24" viewBox="0 0 24 24" fill="none" xmlns="http://www.w3.org/2000/svg">
<path fill-rule="evenodd" clip-rule="evenodd" d="M12 2.25C6.616 2.25 2.25 6.616 2.25 12C2.25 17.384 6.616 21.75 12 21.75C17.384 21.75 21.75 17.384 21.75 12C21.7504 11.3467 21.6867 10.6949 21.56 10.054C21.5262 9.88386 21.4345 9.73068 21.3005 9.62055C21.1665 9.51042 20.9985 9.45015 20.825 9.45H12C11.8011 9.45 11.6103 9.52902 11.4697 9.66967C11.329 9.81032 11.25 10.0011 11.25 10.2V13.8C11.25 14.214 11.586 14.55 12 14.55H15.883C15.5978 14.9826 15.243 15.3651 14.833 15.682H14.831L14.833 15.684C14.0228 16.3128 13.0256 16.6528 12 16.65C10.7667 16.65 9.584 16.1601 8.71195 15.288C7.83991 14.416 7.35 13.2333 7.35 12C7.35 10.7667 7.83991 9.584 8.71195 8.71195C9.584 7.83991 10.7667 7.35 12 7.35C13.184 7.35 14.26 7.796 15.084 8.528C15.227 8.65523 15.4132 8.723 15.6045 8.71742C15.7958 8.71184 15.9777 8.63335 16.113 8.498L18.658 5.952C18.7292 5.88079 18.7854 5.79596 18.8231 5.70257C18.8608 5.60919 18.8793 5.50917 18.8776 5.40847C18.8758 5.30777 18.8537 5.20846 18.8128 5.11646C18.7718 5.02447 18.7127 4.94167 18.639 4.873C16.8399 3.18656 14.466 2.24866 12 2.25ZM15.202 17.25C14.4955 17.6811 13.7092 17.9651 12.8903 18.0851C12.0715 18.2051 11.2368 18.1585 10.4363 17.9482C9.63582 17.738 8.88602 17.3683 8.23181 16.8614C7.57761 16.3544 7.03245 15.7206 6.629 14.998L4.952 16.29C5.68824 17.4994 6.72334 18.4989 7.95771 19.1925C9.19207 19.886 10.5841 20.2502 12 20.25C13.821 20.25 15.505 19.66 16.87 18.66L15.202 17.25ZM18.005 17.656C19.4493 16.1273 20.2528 14.1031 20.25 12C20.25 11.652 20.227 11.296 20.185 10.95H12.75V13.05H17.086C17.206 13.05 17.3242 13.0788 17.4307 13.134C17.5373 13.1891 17.629 13.2691 17.6983 13.367C17.7676 13.465 17.8123 13.5781 17.8288 13.697C17.8453 13.8158 17.833 13.9369 17.793 14.05C17.4942 14.8901 17.0177 15.6558 16.396 16.295L18.005 17.656ZM5.02 7.601C5.76263 6.42101 6.79254 5.44874 8.0133 4.77522C9.23406 4.1017 10.6058 3.74896 12 3.75C13.892 3.75 15.63 4.392 17.023 5.466L15.523 6.966C14.4923 6.23867 13.2615 5.84877 12 5.85C10.9357 5.84987 9.8895 6.12597 8.96383 6.65129C8.03816 7.17661 7.26467 7.93318 6.719 8.847L5.02 7.601ZM4.33 8.955C3.94484 9.9239 3.74799 10.9574 3.75 12C3.74833 12.9955 3.92792 13.9829 4.28 14.914L6.047 13.552C5.91607 13.0451 5.84987 12.5236 5.85 12C5.85 11.394 5.938 10.808 6.101 10.254L4.33 8.955Z" fill="white"/>
</svg>
