<svg width="24" height="25" viewBox="0 0 24 25" fill="none" xmlns="http://www.w3.org/2000/svg">
<path d="M22.1222 10.4C22.2289 10.4 22.3211 10.4782 22.3389 10.5878C22.4433 11.2015 22.5 11.8618 22.5 12.5C22.503 15.084 21.5955 17.5777 19.9522 19.5012C19.9141 19.5456 19.8609 19.5726 19.8041 19.5765C19.7472 19.5804 19.6911 19.5609 19.6478 19.5222L16.9311 17.1072C16.9077 17.086 16.8886 17.0601 16.875 17.031C16.8614 17.0019 16.8535 16.9703 16.8518 16.9379C16.8502 16.9055 16.8547 16.8731 16.8653 16.8427C16.8759 16.8122 16.8922 16.7843 16.9133 16.7607C17.4604 16.1354 17.8814 15.4004 18.1511 14.6H12.7222C12.6633 14.6 12.6068 14.5754 12.5651 14.5317C12.5234 14.4879 12.5 14.4285 12.5 14.3667V10.6333C12.5 10.505 12.6 10.4 12.7222 10.4H22.1222ZM15.2478 18.1C15.2878 18.0789 15.3327 18.0703 15.3772 18.0752C15.4218 18.0802 15.464 18.0985 15.4989 18.128L18.3522 20.6632C18.3777 20.6854 18.3979 20.7135 18.4115 20.7452C18.4251 20.7769 18.4316 20.8115 18.4305 20.8463C18.4294 20.881 18.4208 20.9151 18.4053 20.9458C18.3898 20.9765 18.3679 21.0032 18.3411 21.0237C16.6408 22.3118 14.5967 23.0035 12.5 23C10.8335 23.0001 9.19333 22.563 7.72866 21.7282C6.26398 20.8934 5.02122 19.6875 4.11334 18.2202C4.08361 18.1716 4.07237 18.1131 4.08184 18.0563C4.09131 17.9994 4.1208 17.9484 4.16445 17.9133L6.99222 15.6243C7.01822 15.6039 7.04804 15.5895 7.07972 15.5821C7.1114 15.5747 7.14421 15.5743 7.17601 15.5812C7.20781 15.588 7.23788 15.6018 7.26422 15.6217C7.29057 15.6416 7.31261 15.6672 7.32889 15.6967C8.10667 17.0836 9.36049 18.1053 10.8331 18.5522C12.3056 18.9991 13.8852 18.8373 15.2478 18.1ZM6.58889 13.5803C6.59664 13.6231 6.59283 13.6673 6.57791 13.7079C6.56299 13.7485 6.53754 13.7839 6.50445 13.8102L3.46556 16.2683C3.43874 16.2904 3.40735 16.3056 3.37393 16.3126C3.3405 16.3197 3.30597 16.3184 3.27311 16.3088C3.24025 16.2993 3.20998 16.2818 3.18474 16.2577C3.1595 16.2337 3.13999 16.2037 3.12778 16.1703C2.71163 14.996 2.49902 13.753 2.5 12.5C2.5 11.156 2.74111 9.87033 3.18 8.6885C3.19233 8.65592 3.21162 8.62676 3.23639 8.60326C3.26115 8.57976 3.29074 8.56255 3.32284 8.55297C3.35495 8.54338 3.38873 8.54168 3.42157 8.54798C3.45441 8.55429 3.48542 8.56843 3.51223 8.58933L6.54778 10.9273C6.62 10.9822 6.65333 11.079 6.63445 11.17C6.47126 11.9628 6.45653 12.7812 6.58889 13.5803ZM7.10778 9.18783C7.21445 9.2695 7.36445 9.23683 7.43556 9.12016C7.97741 8.22518 8.72566 7.48831 9.61097 6.97784C10.4963 6.46737 11.49 6.19983 12.5 6.2C13.8967 6.19951 15.2493 6.71352 16.3222 7.6525C16.3655 7.69102 16.421 7.71118 16.4777 7.70903C16.5344 7.70687 16.5883 7.68255 16.6289 7.64083L19.1467 4.996C19.1678 4.97397 19.1844 4.94766 19.1954 4.91868C19.2065 4.88969 19.2119 4.85864 19.2111 4.82741C19.2104 4.79618 19.2036 4.76544 19.1912 4.73706C19.1788 4.70868 19.161 4.68325 19.1389 4.66233C17.3138 2.94658 14.9497 1.99855 12.5 2C10.8551 1.99884 9.23548 2.4242 7.78483 3.2383C6.33418 4.0524 5.09744 5.23005 4.18445 6.66667C4.15375 6.71601 4.14228 6.77586 4.15242 6.83383C4.16255 6.89181 4.19351 6.94348 4.23889 6.97817L7.10778 9.18783Z" fill="#39B9B0"/>
</svg>
