<svg width="24" height="24" viewBox="0 0 24 24" fill="none" xmlns="http://www.w3.org/2000/svg">
<g clip-path="url(#clip0_3118_1054)">
<path d="M7.71804 2.56005C10.3724 2.174 12.7233 3.67317 13.1454 6.36808C13.4879 8.55525 13.3858 9.33187 15.0367 11.0864C17.2388 13.4238 20.7419 12.6922 21.7679 16.0721C23.4804 21.7083 15.1118 24.4137 13.2686 18.8632C12.4754 16.4777 12.869 15.0552 10.8366 13.0332C9.09554 11.3027 6.91587 11.6302 5.42722 10.1806C2.95463 7.77412 4.32011 3.05427 7.71804 2.56005Z" fill="white"/>
<path d="M5.84107 21.9141C7.96243 21.9141 9.68214 20.1944 9.68214 18.073C9.68214 15.9516 7.96243 14.2319 5.84107 14.2319C3.71971 14.2319 2 15.9516 2 18.073C2 20.1944 3.71971 21.9141 5.84107 21.9141Z" fill="white"/>
</g>
<defs>
<clipPath id="clip0_3118_1054">
<rect width="20" height="19.4157" fill="white" transform="translate(2 2.5)"/>
</clipPath>
</defs>
</svg>
