<svg width="24" height="25" viewBox="0 0 24 25" fill="none" xmlns="http://www.w3.org/2000/svg">
<g clip-path="url(#clip0_3118_1032)">
<path d="M7.71804 3.06005C10.3724 2.674 12.7233 4.17317 13.1454 6.86808C13.4879 9.05525 13.3858 9.83187 15.0367 11.5864C17.2388 13.9238 20.7419 13.1922 21.7679 16.5721C23.4804 22.2083 15.1118 24.9137 13.2686 19.3632C12.4754 16.9777 12.869 15.5552 10.8366 13.5332C9.09554 11.8027 6.91587 12.1302 5.42722 10.6806C2.95463 8.27412 4.32011 3.55427 7.71804 3.06005Z" fill="#39B9B0"/>
<path d="M5.84107 22.4141C7.96243 22.4141 9.68214 20.6944 9.68214 18.573C9.68214 16.4516 7.96243 14.7319 5.84107 14.7319C3.71971 14.7319 2 16.4516 2 18.573C2 20.6944 3.71971 22.4141 5.84107 22.4141Z" fill="#39B9B0"/>
</g>
<defs>
<clipPath id="clip0_3118_1032">
<rect width="20" height="19.4157" fill="white" transform="translate(2 3)"/>
</clipPath>
</defs>
</svg>
