<svg id="Layer_1" height="512" viewBox="0 0 512 512" width="512" xmlns="http://www.w3.org/2000/svg" data-name="Layer 1"><path d="m421.282 342.516a45.279 45.279 0 0 1 28.629 42.614v108.653a18.235 18.235 0 0 1 -18.222 18.217h-46.625v-83.8a8.532 8.532 0 0 0 -17.064 0v83.8h-224v-83.8a8.535 8.535 0 0 0 -17.069 0v83.8h-46.625a18.234 18.234 0 0 1 -18.217-18.217v-108.653a45.279 45.279 0 0 1 28.629-42.614l111.8-45.674 47.807 42.529a8.558 8.558 0 0 0 11.354 0l47.807-42.529 111.8 45.674zm-38.895-204.957a15.157 15.157 0 0 1 -15.142 15.132h-10.915v-30.279h10.915a15.161 15.161 0 0 1 15.142 15.147zm-126.387-137.559a102.83 102.83 0 0 1 102.71 102.71v2.632h-17.71c-16.38-4.5-20.341-11.892-26.258-22.953-1.666-3.1-3.382-6.315-5.506-9.707a8.55 8.55 0 0 0 -11.423-2.914c-69.225 38.981-75.948 38.981-140.312 38.83-1.374-.01-2.783-.01-4.212-.01v-5.878a102.83 102.83 0 0 1 102.711-102.71zm-126.392 140.79a15.165 15.165 0 0 1 15.147-15.147c3.81 0 7.438.01 10.915.01v30.274h-10.915a15.167 15.167 0 0 1 -15.147-15.137zm43.127 32.136a83.265 83.265 0 0 0 166.53 0v-50.56a8.192 8.192 0 0 1 -1.525-.231c-24.482-6.351-31.372-19.234-38.049-31.694-.287-.543-.589-1.1-.886-1.661-60.791 33.843-75.7 36.747-126.07 36.892zm83.265 100.335a99.684 99.684 0 0 1 -43.4-9.889l.131 19.712 43.269 38.498 43.273-38.5.131-19.712a99.684 99.684 0 0 1 -43.4 9.889zm-58.093-120.635a8.527 8.527 0 1 1 -15.007-8.1 26.981 26.981 0 0 1 47.476 0 8.527 8.527 0 1 1 -15.007 8.1 9.935 9.935 0 0 0 -17.462 0zm83.713-8.1a26.984 26.984 0 0 1 47.48 0 8.527 8.527 0 1 1 -15.007 8.1 9.935 9.935 0 0 0 -17.462 0 8.529 8.529 0 1 1 -15.011-8.1zm-53.791 50.024a8.538 8.538 0 0 1 11.69 2.994c3.2 5.42 9.526 8.782 16.481 8.782s13.27-3.362 16.481-8.782a8.535 8.535 0 0 1 14.689 8.7c-6.265 10.583-18.212 17.15-31.17 17.15s-24.9-6.567-31.17-17.15a8.538 8.538 0 0 1 3-11.69zm73.91 169.3c-9.582 3.3-16.063 11.932-16.929 22.535-1.781 21.956 25.016 42.81 35.5 48.984a8.473 8.473 0 0 0 4.333 1.183 8.562 8.562 0 0 0 4.343-1.183c10.472-6.174 37.264-27.028 35.483-48.984-.861-10.6-7.347-19.239-16.924-22.535a26.265 26.265 0 0 0 -22.9 3.09 26.263 26.263 0 0 0 -22.9-3.09zm22.9 22.7a8.543 8.543 0 0 1 -6.27-2.738c-2.552-2.778-5.571-4.272-8.449-4.272a8 8 0 0 0 -2.612.442c-3.13 1.078-5.179 3.986-5.486 7.786-.744 9.138 11.852 22.378 22.817 30.088 10.965-7.71 23.561-20.95 22.817-30.088-.312-3.8-2.361-6.708-5.486-7.786-3.573-1.243-7.709.2-11.061 3.83a8.559 8.559 0 0 1 -6.268 2.737z" fill-rule="evenodd"/></svg>