<?xml version="1.0" encoding="iso-8859-1"?>
<!-- Generator: Adobe Illustrator 19.0.0, SVG Export Plug-In . SVG Version: 6.00 Build 0)  -->
<svg version="1.1" id="Capa_1" xmlns="http://www.w3.org/2000/svg" xmlns:xlink="http://www.w3.org/1999/xlink" x="0px" y="0px"
	 viewBox="0 0 512 512" style="enable-background:new 0 0 512 512;" xml:space="preserve">
<g>
	<g>
		<path d="M459.322,143.72l-21.211,21.211c58.491,58.491,58.491,153.647,0,212.139l21.211,21.211
			C529.503,328.1,529.503,213.901,459.322,143.72z"/>
	</g>
</g>
<g>
	<g>
		<path d="M416.901,186.142l-21.211,21.211c35.083,35.098,35.083,92.197,0,127.295l21.211,21.211
			C463.673,309.071,463.673,232.929,416.901,186.142z"/>
	</g>
</g>
<g>
	<g>
		<path d="M374.464,228.578l-21.211,21.211c5.669,5.669,8.789,13.198,8.789,21.211s-3.12,15.542-8.789,21.211l21.211,21.211
			c11.338-11.323,17.578-26.396,17.578-42.422S385.802,239.901,374.464,228.578z"/>
	</g>
</g>
<g>
	<g>
		<path d="M149.372,0C67.59,0,0.042,69.247,0.042,153.139v240C0.042,458.134,52.634,512,116.047,512
			c63.398,0,114.99-53.866,114.99-118.861v-34.277c0-29.414,18.823-51.138,40.635-76.289c27.832-32.095,59.37-68.481,59.37-129.434
			C331.042,55.023,266.53,0,149.372,0z M226.335,243.285c-17.622,20.317-32.534,52.046-39.888,84.902
			C178.288,364.589,144.48,391,106.042,391v-30c24.521,0,46.025-16.553,51.138-39.375c8.511-38.027,25.459-73.74,46.479-97.998
			c27.129-31.289,37.383-45.483,37.383-70.488c0-26.221,0-63.139-91.67-63.139c-32.168,0-58.33,28.876-58.33,63.139V181
			c33.091,0,60,26.909,60,60s-26.909,60-60,60h-15v-30h15c16.538,0,30-13.462,30-30c0-16.538-13.462-30-30-30h-30v-57.861
			c0-50.801,39.624-93.139,88.33-93.139c121.67,0,121.67,65.57,121.67,93.139C271.042,189.833,254.05,211.308,226.335,243.285z"/>
	</g>
</g>
<g>
</g>
<g>
</g>
<g>
</g>
<g>
</g>
<g>
</g>
<g>
</g>
<g>
</g>
<g>
</g>
<g>
</g>
<g>
</g>
<g>
</g>
<g>
</g>
<g>
</g>
<g>
</g>
<g>
</g>
</svg>
