<svg clip-rule="evenodd" fill-rule="evenodd" height="512" image-rendering="optimizeQuality" shape-rendering="geometricPrecision" text-rendering="geometricPrecision" viewBox="0 0 1707 1707" width="512" xmlns="http://www.w3.org/2000/svg">
  <g id="Layer_x0020_1" fill="currentColor">
    <g id="_324836224" fill-rule="nonzero">
      <path d="m1036 1292 226 392c6 12 17 20 31 22 22 3 42-12 45-34l22-156 144 58c12 6 25 5 37-1 19-11 26-36 15-55l-228-395c-18 18-37 35-57 50-50 39-105 71-163 95-24 9-48 17-72 24z"/>
      <path d="m379 1123-226 392c-8 11-10 25-5 38 9 20 32 30 52 22l147-59 21 153c1 13 8 25 20 32 19 11 44 5 55-14l228-395c-25-7-49-15-72-24-59-24-114-56-163-95-20-15-39-32-57-50z"/>
    </g>
    <path d="m891 368 69 151 167 19c22 3 38 23 35 45-1 10-6 20-14 26l-122 113 33 165c4 22-10 43-31 47-11 2-21 0-29-5l-146-82-147 83c-19 10-43 4-54-16-5-9-6-19-4-28l33-164-124-115c-16-15-17-40-2-56 7-8 16-12 26-13l166-19 70-153c9-21 33-29 53-20 10 4 17 12 21 22z" fill-rule="nonzero"/>
    <path d="m1305 187c-116-116-275-187-452-187-176 0-336 71-451 187-116 116-187 275-187 452 0 175 70 333 185 449 0 0 1 1 2 2 18 18 38 36 58 52 47 36 98 66 154 89 25 10 51 18 77 25 52 14 106 21 162 21s111-7 162-21c27-7 53-15 78-25 55-23 107-53 153-89 21-16 40-34 59-52 1-1 1-2 2-2 114-116 185-274 185-449 0-177-72-336-187-452zm-452 10c122 0 233 49 313 129s129 190 129 313c0 122-49 232-129 312s-191 129-313 129-232-49-312-129-130-190-130-312c0-123 50-233 130-313s190-129 312-129z"/>
  </g>
</svg>

