<svg id="Capa_1" enable-background="new 0 0 512.41 512.41" height="512" viewBox="0 0 512.41 512.41" width="512" xmlns="http://www.w3.org/2000/svg"><g><path d="m178.505 271.205h17.701c8.401 0 15 6.599 15 15v226h30v-226c0-24.901-20.099-45-45-45h-17.701c1.8 4.501 2.701 9.6 2.701 15s-.901 10.499-2.701 15z"/><path d="m333.906 241.205h-17.701c-24.901 0-45 20.099-45 45v226h30v-226c0-8.401 6.599-15 15-15h17.701c-1.8-4.501-2.701-9.6-2.701-15s.902-10.499 2.701-15z"/><path d="m485.6 450.594-19.394 19.394-30-30-40.606 40.606 21.211 21.211 19.395-19.395 30 30 40.605-40.605z"/><path d="m436.206 42.422 30 30 40.605-40.606-21.211-21.211-19.394 19.395-30-30-40.606 40.605 21.211 21.211z"/><path d="m97.206 421.205c55.977 0 97.776-50.757 86.999-105.901 0-.298-.298-.899-.298-1.199-12.902 10.8-29.702 17.1-47.701 17.1v-30c19.799 0 36.301-12.9 42.299-30h-103.299v-30h103.299c-5.999-17.1-22.2-30-42.299-30v-30c17.999 0 34.799 6.301 47.701 17.1 0-.3.298-.901.298-1.199 10.78-55.16-31.035-105.901-86.999-105.901-43.033 0-80.173 31.15-87.7 71.1-6.367 31.532-9.368 63.217-9.3 94.9.066 31.017 3.067 62.032 9.3 92.9 8.1 41.1 45.699 71.1 87.7 71.1z"/><path d="m415.205 91.205c-55.977 0-97.776 50.757-86.999 105.901 0 .298.298.899.298 1.199 12.902-10.8 29.702-17.1 47.701-17.1v30c-19.799 0-36.301 12.9-42.299 30h102.299v30h-102.299c5.999 17.1 22.2 30 42.299 30v30c-17.999 0-34.799-6.301-47.701-17.1 0 .3-.298.901-.298 1.199-10.78 55.16 31.035 105.901 86.999 105.901 42.001 0 79.6-30 87.7-71.1 6.301-31.199 9.3-62.701 9.3-93.9s-3.999-62.701-10.3-93.9c-8.1-41.1-44.699-71.1-86.7-71.1z"/></g></svg>