<svg id="Layer_1" enable-background="new 0 0 450 450" height="512" viewBox="0 0 450 450" width="512" xmlns="http://www.w3.org/2000/svg"><g clip-rule="evenodd" fill-rule="evenodd"><path d="m258.8 10c16.8 196 53 208.9 84.4 227.8 26.9 16.2 49.6 43.6 38.2 75.3-6.5 18.1-25.3 42.5-44.1 24.9-37.9-35.3-64.9 3.9-64.9 3.9-23.9 41.3-70.9 41.3-94.9 0 0 0-27-39.2-64.9-3.9-18.9 17.6-37.6-6.8-44.1-24.9-11.3-31.6 11.4-59.1 38.2-75.3 31.4-18.9 67.6-31.8 84.4-227.8z"/><g><path d="m144.9 440c8.6 0 16.8-4.7 21.1-12.1 6.1-10.7 1.8-20.7-4.2-30.1-4.6-7.1-9.9-13.7-15.5-20-.5-.5-.9-1-1.4-1.5-.5.5-.9 1-1.4 1.5-5.6 6.3-10.9 12.9-15.5 20-6 9.4-10.3 19.4-4.2 30.1 4.3 7.4 12.5 12.1 21.1 12.1z"/><path d="m305.1 440c8.6 0 16.8-4.7 21.1-12.1 6.1-10.7 1.8-20.7-4.2-30.1-4.6-7.1-9.9-13.7-15.5-20-.5-.5-.9-1-1.4-1.5-.5.5-.9 1-1.4 1.5-5.6 6.3-10.9 12.9-15.5 20-6 9.4-10.3 19.4-4.2 30.1 4.3 7.4 12.5 12.1 21.1 12.1z"/></g></g></svg>