<svg id="Capa_1" enable-background="new 0 0 512 512" height="512" viewBox="0 0 512 512" width="512" xmlns="http://www.w3.org/2000/svg"><g><path d="m122.64 312.103.93-11.64c-13.79-.24-27.01-7.19-36.37-19.15-8.81-11.27-13.67-26.05-13.67-41.61s4.86-30.33 13.67-41.6c9.53-12.18 23.07-19.17 37.14-19.17 3.39 0 6.74.4 10.01 1.18l2.12-20.97c2.9-28.58 25.83-50.691 54.53-52.581 100.06-7 94.81-6.65 95.44-6.66 7.03-.11 14.6-3.27 22.69-8.58 5.633-9.347 14.231-45.738 4.68-80.111-3.01-10.83-16.3-14.82-24.8-7.46-8.756 7.572-17.677 17.06-35.21 17.06h-99.97c-49.88 0-96.1 24.08-124.65 63.441-27.33 37.629-36.03 85.59-23.69 130.38l31.12 115.341h66.6c10.08 0 18.62-7.849 19.43-17.87z"/><path d="m359.02 248.553-46.76-60.95c-3.24-4.23-4.9-9.46-4.66-14.79.47-10.42.99-29.28-.25-47.411-6.82 2.77-13.5 4.35-20.02 4.49l-94.3 6.6c-14.09.93-25.3 11.72-26.72 25.67l-4.4 43.59c-1.262 12.664-16.882 18.11-25.74 8.88-2.5-2.6-6.57-5.7-11.83-5.7-11.28 0-20.81 14.09-20.81 30.77s9.53 30.77 20.81 30.77c2.68 0 5.32-.81 7.84-2.41 10.454-6.621 23.976 1.594 22.98 13.87l-2.62 32.58c-2.07 25.5-23.73 45.46-49.33 45.46h-59.56c1.69 19.4 3.46 62.571-5.3 124.001-1.11 7.78 3.82 15.16 11.48 17.04 50.16 12.288 108.854 15.626 159.96 2.96 8.32-2.07 13.4-10.46 11.23-18.76-4.49-17.04-11.09-47.77-12.2-84.221 27.93 3.29 57.31.72 85.11-2.92 17.5-2.28 34.31-10.44 34.31-30.66v-25.44l-.01-.01c-.18-.02-.36-.04-.55-.07-12.4-1.86-28.98-2.38-37.59 5.65-6.148 5.752-15.825 5.481-21.66-.72-5.78-6.17-5.45-15.85.73-21.62 13.4-12.53 33.27-17.26 59.08-14.11v-28.59l25.1-11.35c8.74-3.959 11.51-14.999 5.68-22.599z"/><path d="m354.751 102.689c6.354 5.331 15.834 4.51 21.174-1.833l26.651-31.654c5.34-6.342 4.518-15.804-1.836-21.134-6.354-5.329-15.834-4.509-21.174 1.833l-26.652 31.654c-5.339 6.342-4.518 15.804 1.837 21.134z"/><path d="m361.796 142.967c0 8.284 6.729 15 15.028 15h44.386c8.3 0 15.028-6.716 15.028-15 0-8.285-6.729-15-15.028-15h-44.386c-8.299-.001-15.028 6.715-15.028 15z"/><path d="m479.707 279.465c-.525-5.51-2.028-10.934-4.481-16.002-5.475-11.309-15.034-19.812-26.915-23.945-11.882-4.132-24.665-3.399-35.986 2.062-8.354 4.022-15.265 10.345-19.985 18.284-4.236 7.125-1.883 16.328 5.255 20.555s16.358 1.879 20.594-5.245c1.694-2.849 4.182-5.122 7.205-6.577 13.261-6.398 27.583 5.879 23.902 19.636-2.283 8.537 3.226 18.852 15.598 18.852 9.401 0 17.05 7.634 17.05 17.018 0 9.128-7.354 17.243-17.783 17.005-10.027-.215-17.442 9.219-14.866 18.861.737 2.758 1.139 7.031-1.132 11.72-5.953 12.297-23.166 12.794-29.974 1.342-4.235-7.125-13.455-9.473-20.593-5.246-7.138 4.228-9.491 13.43-5.256 20.555 4.719 7.939 11.629 14.262 19.976 18.281 23.495 11.332 51.604 1.476 62.91-21.879 2.453-5.067 3.955-10.489 4.48-16.001 18.74-6.212 32.294-23.875 32.294-44.638s-13.554-38.426-32.293-44.638z"/><path d="m434.132 324.103c0-8.284-6.729-15-15.028-15h-45.708c-8.3 0-15.028 6.716-15.028 15s6.729 15 15.028 15h45.708c8.3 0 15.028-6.716 15.028-15z"/></g></svg>