<svg id="Layer_1" enable-background="new 0 0 512 512" viewBox="0 0 512 512" xmlns="http://www.w3.org/2000/svg"><path d="m511.5 30.564v122.094l-44.692 27.726c-1.531.95-2.65 2.418-3.178 4.139-10.305 33.87-65.428 58.576-86.682 61.659-.919.137-1.816.444-2.629.919l-84.76 48.905c-.137.074-.285.159-.412.243l-19.554 11.276c-4.128 2.397-8.974 3.03-13.63 1.784-4.677-1.246-8.584-4.223-10.98-8.383-2.386-4.139-3.009-8.985-1.763-13.651 1.256-4.667 4.223-8.552 8.362-10.938l28.486-16.46c.042-.021.085-.042.127-.063l51.893-29.953c3.537-2.048 4.751-6.567 2.713-10.104-2.048-3.537-6.567-4.751-10.104-2.703l-43.309 25.001-91.422-17.22c-1.911-.359-3.885.053-5.49 1.14l-22.151 14.898-.01.01-24.231 16.302c-2.038 1.373-3.263 3.674-3.263 6.134v63.781c0 9.935-8.098 18.012-18.054 18.012-9.935 0-18.012-8.077-18.012-18.012v-70.306c0-18.181 7.581-33.712 21.908-44.904 9.017-7.032 17.379-13.029 25.572-18.329 33.532-21.771 59.516-29.14 92.404-38.474 26.163-7.423 55.81-15.827 96.026-33.321 31.125-13.536 54.902-28.602 77.897-43.172 3.674-2.333 7.338-4.656 11.012-6.958zm-319.635 277.888c9.608 0 18.044-13.979 18.044-29.9v-34.916l-19.701-3.706-16.365 11.012v27.609c-.001 15.923 8.414 29.901 18.022 29.901zm319.635 87.717c0 6.134-4.994 11.128-11.139 11.128h-142.755c-4.086 0-7.391 3.315-7.391 7.401 0 4.076 3.305 7.391 7.391 7.391h120.604c6.145 0 11.139 4.994 11.139 11.128 0 6.145-4.994 11.139-11.139 11.139h-178.727c-4.086 0-7.391 3.305-7.391 7.391s3.305 7.391 7.391 7.391h101.97v11.16c0 6.145-4.994 11.139-11.139 11.139h-136.695c-29.911-10.706-52.294-26.247-70.391-48.831-1.362-1.7-3.421-2.714-5.606-2.766-54.395-1.14-112.412 1.425-177.122 7.866v-118.653l83.483 8.774c.401 17.748 14.95 32.065 32.783 32.065 18.097 0 32.815-14.697 32.836-32.762 10.094-2.967 19.87-5.522 29.172-7.623 4.012 2.397 8.436 3.727 13.092 3.727 7.792 0 14.961-3.727 20.599-9.924 7.074-.982 14.148-1.763 21.401-2.365 4.413 6.208 10.801 10.653 18.287 12.649 8.478 2.27 17.305 1.098 24.843-3.263l17.949-10.357c6.43.264 12.532.56 18.561.918.148.011.285.011.433.011h137.971c6.134 0 11.128 4.994 11.128 11.139 0 5.744-4.382 10.495-9.977 11.065h-95.456c-4.086 0-7.391 3.315-7.391 7.401 0 4.076 3.305 7.391 7.391 7.391h93.407c.296.032.591.053.897.053h26.3c6.145 0 11.139 5.015 11.139 11.171 0 6.134-4.994 11.128-11.139 11.128h-120.603c-4.086 0-7.391 3.315-7.391 7.391 0 4.086 3.305 7.401 7.391 7.401h142.756c6.144-.002 11.138 4.992 11.138 11.126zm-437.833-13.916c0-11.582-9.418-21.011-21-21.011s-21.011 9.429-21.011 21.011 9.428 21 21.011 21 21-9.417 21-21zm49.402 6.768c-1.52-3.79-5.828-5.628-9.608-4.118l-.158.063c-3.79 1.52-5.627 5.817-4.118 9.608 1.161 2.893 3.938 4.646 6.873 4.646.908 0 1.837-.169 2.734-.528l.158-.063c3.791-1.51 5.628-5.817 4.119-9.608zm31.969-12.817c.486 0 .971-.042 1.457-.137l.148-.031c4.012-.803 6.599-4.699 5.807-8.7-.802-4.002-4.698-6.599-8.7-5.796l-.148.032c-4.012.792-6.599 4.688-5.807 8.689.708 3.514 3.791 5.943 7.243 5.943zm14.919 20.44c-.792-4.012-4.688-6.609-8.689-5.807l-.148.032c-4.012.792-6.609 4.688-5.807 8.689.697 3.516 3.79 5.955 7.243 5.955.475 0 .961-.053 1.446-.148l.148-.031c4.012-.803 6.609-4.688 5.807-8.69zm21.38-51.597c1.161 2.882 3.938 4.645 6.873 4.645.908 0 1.837-.169 2.734-.528l.158-.063c3.79-1.52 5.627-5.817 4.118-9.608-1.52-3.79-5.828-5.628-9.608-4.118l-.158.063c-3.79 1.511-5.627 5.818-4.117 9.609zm13.103 27.303c-1.52-3.79-5.818-5.627-9.608-4.118l-.148.063c-3.79 1.52-5.638 5.818-4.118 9.608 1.151 2.893 3.928 4.646 6.863 4.646.919 0 1.848-.169 2.745-.528l.148-.063c3.79-1.51 5.638-5.818 4.118-9.608zm13.884 31.885c-.802-4.002-4.698-6.599-8.7-5.797l-.148.032c-4.002.792-6.599 4.688-5.796 8.7.697 3.505 3.79 5.934 7.232 5.934.486 0 .971-.042 1.468-.137l.148-.032c4.001-.802 6.598-4.698 5.796-8.7zm65.449-39.339c0-11.93-9.713-21.644-21.644-21.644s-21.633 9.714-21.633 21.644c0 11.931 9.703 21.644 21.633 21.644s21.644-9.713 21.644-21.644z"/></svg>