<svg id="Layer_1" viewBox="0 0 64 64" xmlns="http://www.w3.org/2000/svg" data-name="Layer 1"><path d="m41.095 27.533h-18.19c-5.213 0-9.453 4.24-9.453 9.452v23.015h6.411v-21.162c0-.552.447-1 1-1s1 .448 1 1v21.162h20.273v-21.162c0-.552.447-1 1-1s1 .448 1 1v21.162h6.411v-23.015c0-5.212-4.24-9.452-9.453-9.452zm-3.095 1.725c1.031 0 1.871.839 1.871 1.871s-.84 1.871-1.871 1.871-1.871-.839-1.871-1.871.84-1.871 1.871-1.871zm1.891 7.806c0 .552-.447 1-1 1s-1.005-.448-1.005-1 .443-1 .995-1h.01c.553 0 1 .448 1 1zm-7.042-6.936h.01c.553 0 1 .448 1 1s-.447 1-1 1-1.005-.448-1.005-1 .443-1 .995-1zm-5.945-.452c1.12 0 2.032.912 2.032 2.032s-.912 2.032-2.032 2.032-2.032-.912-2.032-2.032.912-2.032 2.032-2.032zm.503 7.71c0 .552-.447 1-1 1s-1.005-.448-1.005-1 .443-1 .995-1h.01c.553 0 1 .448 1 1zm.271 13.322c-1.441 0-2.613-1.172-2.613-2.613s1.172-2.613 2.613-2.613 2.612 1.172 2.612 2.613-1.172 2.613-2.612 2.613zm6.084.21c-.552 0-1.005-.448-1.005-1s.443-1 .995-1h.01c.553 0 1 .448 1 1s-.447 1-1 1zm-1.504-8.984c-1.707 0-3.097-1.389-3.097-3.097s1.39-3.097 3.097-3.097 3.098 1.389 3.098 3.097-1.39 3.097-3.098 3.097zm5.742 7.161c-1.191 0-2.161-.97-2.161-2.161s.97-2.161 2.161-2.161 2.161.97 2.161 2.161-.97 2.161-2.161 2.161z"/><path d="m32.258 37.741c-.604 0-1.097.492-1.097 1.097s.492 1.097 1.097 1.097 1.098-.492 1.098-1.097-.492-1.097-1.098-1.097z"/><path d="m27.678 47.484c-.338 0-.613.275-.613.613s.275.613.613.613.612-.275.612-.613-.274-.613-.612-.613z"/><path d="m38 46.774c-.089 0-.161.072-.161.161 0 .178.322.178.322 0 0-.089-.072-.161-.161-.161z"/><path d="m38.129 31.129c0-.071-.058-.129-.129-.129s-.129.058-.129.129c0 .143.258.143.258 0z"/><path d="m40.474 12.474c0-4.672-3.801-8.474-8.474-8.474s-8.474 3.801-8.474 8.474 3.801 8.474 8.474 8.474 8.474-3.801 8.474-8.474z"/></svg>