<svg id="Capa_1" enable-background="new 0 0 565.462 565.462" height="512" viewBox="0 0 565.462 565.462" width="512" xmlns="http://www.w3.org/2000/svg"><g><path d="m349.761 349.667c23.782 0 23.749 35.932 0 35.932-23.782 0-23.748-35.932 0-35.932z"/><path d="m561.972 468.422c-34.752-28.989-84.982-44.691-90.166-86.135-8.893-71.145 48.631-110.703 48.631-212.278 0-32.08-30.374-161.693-170.676-161.693-65.283 0-123.491 27.402-156.348 63.094-40.699 44.221-35.959 83.984-24.86 142.761 5.289 27.926 5.401 28.465-25.781 69.382-7.696 9.795-5.132 29.604 10.353 37.347 16.625 8.329 14.165 3.309 8.41 25.983-2.653 10.614 1.627 19.926 17.775 25.119l-3.021 8.927c-14.237 16.753 7.918 25.141 8.107 39.525.573 46.08 38.979 44.062 78.118 24.029 34.002 91.171 12.645 111.793 31.103 111.793 196.969 0 214.031 7.848 246.795-23.547 22.79-21.835 30.175-57.596 21.56-64.307zm-233.017-217.107c55.851-18.64 115.453 28.757 98.285 42.489-3.863 3.088-9.522 2.482-12.632-1.404-31.44-39.312-78.028-24.681-79.993-24.029-11.297 3.684-16.866-13.316-5.66-17.056zm58.243 67.406c-14.159-21.245-43.051-14.53-44.275-14.227-11.532 2.796-15.799-14.575-4.323-17.438 1.718-.427 42.321-10.151 63.554 21.694 6.592 9.893-8.354 19.864-14.956 9.971zm-48.598 129.489c-11.509-2.875-7.198-20.279 4.323-17.438 1.224.303 30.115 7.018 44.275-14.227 2.751-4.121 8.332-5.244 12.464-2.493 15.36 10.241-18.876 44.691-61.062 34.158zm-92.805-91.3c.517 11.846-17.348 12.688-17.943.865-1.527-30.272 15.26-70.853 55.503-88.022 10.937-4.66 17.988 11.869 7.052 16.529-46.307 19.751-44.702 68.551-44.612 70.628zm62.993-35.483c-1.134.696-26.241 16.371-21.245 41.366 1.112 5.536-3.122 10.746-8.815 10.746-16.854 0-14.867-46.105 20.795-67.507 10.175-6.108 19.427 9.253 9.265 15.395zm40.973 10.274c19.819 0 35.932 16.113 35.932 35.932s-16.113 35.932-35.932 35.932-35.932-16.113-35.932-35.932c.001-19.818 16.114-35.932 35.932-35.932zm78.882 122.393c-27.005 33.742-70.033 39.749-99.688 29.857-11.262-3.75-5.614-20.784 5.659-17.056 2.077.685 48.586 15.237 79.993-24.029 7.433-9.287 21.447 1.953 14.036 11.228z"/><path d="m142.468 445.044c-5.057-12.156-23.036-2.364-15.765 8.422 5.931 9.01 19.924 1.548 15.765-8.422z"/><path d="m116.889 389.035c1.923 4.612 7.191 6.756 11.734 4.862 6.778-2.82 7.374-11.932 1.55-15.765-7.267-4.9-16.704 2.703-13.284 10.903z"/><path d="m160.434 400.129c-5.062-12.166-23.032-2.358-15.765 8.421 5.931 9.011 19.924 1.549 15.765-8.421z"/><path d="m120.607 556.275h-81.172c-12.599 0-23.883-7.871-27.443-19.145-12.538-39.669-17.006-83.374-4.772-123.156-.453 15.869 30.974 80.211 47.901 102.776 2.967 3.968 8.607 4.773 12.576 1.797 13.583-10.197-10.79-14.871-41.86-100.092-4.077-11.156 12.037-22.207 20.975-14.406 8.963 7.832 20.77-5.713 11.824-13.531-14.056-12.276-35.566-7.755-46.071 7.456 12.643-37.122 34.854-77.59 47.037-93.636 10.934-14.378 35.487-10.911 39.042 11.678 5.257 9.45 10.273 56.662-14.721 99.946 7.355 8.799 22.06 29.063 25.747 44.499 5.1 21.366 19.069 25.135 33.315 40.423 20.937 22.405 2.615 55.391-22.378 55.391z"/></g></svg>